%TF.GenerationSoftware,KiCad,Pcbnew,5.1.9*%
%TF.CreationDate,2021-03-22T22:06:03+01:00*%
%TF.ProjectId,control_voltage_eurorack_module,636f6e74-726f-46c5-9f76-6f6c74616765,rev?*%
%TF.SameCoordinates,Original*%
%TF.FileFunction,Legend,Bot*%
%TF.FilePolarity,Positive*%
%FSLAX46Y46*%
G04 Gerber Fmt 4.6, Leading zero omitted, Abs format (unit mm)*
G04 Created by KiCad (PCBNEW 5.1.9) date 2021-03-22 22:06:03*
%MOMM*%
%LPD*%
G01*
G04 APERTURE LIST*
%ADD10C,0.120000*%
%ADD11C,0.150000*%
%ADD12C,0.010000*%
G04 APERTURE END LIST*
D10*
%TO.C,U3*%
X35295000Y-96815000D02*
X37095000Y-96815000D01*
X37095000Y-100035000D02*
X34645000Y-100035000D01*
%TO.C,U1*%
X30480000Y-110510000D02*
X28530000Y-110510000D01*
X30480000Y-110510000D02*
X32430000Y-110510000D01*
X30480000Y-105390000D02*
X28530000Y-105390000D01*
X30480000Y-105390000D02*
X33930000Y-105390000D01*
%TO.C,RV10*%
X21090000Y-112225000D02*
X21420000Y-112225000D01*
X16680000Y-112225000D02*
X17011000Y-112225000D01*
X18791000Y-112225000D02*
X19310000Y-112225000D01*
X16680000Y-107485000D02*
X17810000Y-107485000D01*
X20290000Y-107485000D02*
X21420000Y-107485000D01*
X16680000Y-112225000D02*
X16680000Y-107485000D01*
X21420000Y-112225000D02*
X21420000Y-107485000D01*
%TO.C,R5*%
X75022064Y-23855000D02*
X73567936Y-23855000D01*
X75022064Y-25675000D02*
X73567936Y-25675000D01*
%TO.C,R4*%
X36922064Y-75290000D02*
X35467936Y-75290000D01*
X36922064Y-77110000D02*
X35467936Y-77110000D01*
%TO.C,R3*%
X36922064Y-58145000D02*
X35467936Y-58145000D01*
X36922064Y-59965000D02*
X35467936Y-59965000D01*
%TO.C,R2*%
X36922064Y-41000000D02*
X35467936Y-41000000D01*
X36922064Y-42820000D02*
X35467936Y-42820000D01*
%TO.C,R1*%
X36922064Y-23855000D02*
X35467936Y-23855000D01*
X36922064Y-25675000D02*
X35467936Y-25675000D01*
%TO.C,L1*%
X57584758Y-95525000D02*
X59255242Y-95525000D01*
X57584758Y-93705000D02*
X59255242Y-93705000D01*
%TO.C,J1*%
X47565000Y-38675000D02*
X52765000Y-38675000D01*
X47565000Y-56515000D02*
X47565000Y-38675000D01*
X52765000Y-59115000D02*
X52765000Y-38675000D01*
X47565000Y-56515000D02*
X50165000Y-56515000D01*
X50165000Y-56515000D02*
X50165000Y-59115000D01*
X50165000Y-59115000D02*
X52765000Y-59115000D01*
X47565000Y-57785000D02*
X47565000Y-59115000D01*
X47565000Y-59115000D02*
X48895000Y-59115000D01*
%TO.C,C7*%
X36118748Y-111400000D02*
X37541252Y-111400000D01*
X36118748Y-109580000D02*
X37541252Y-109580000D01*
%TO.C,C5*%
X32110000Y-98348748D02*
X32110000Y-99771252D01*
X33930000Y-98348748D02*
X33930000Y-99771252D01*
%TO.C,C4*%
X42905000Y-81203748D02*
X42905000Y-82626252D01*
X44725000Y-81203748D02*
X44725000Y-82626252D01*
%TO.C,C3*%
X24490000Y-107238748D02*
X24490000Y-108661252D01*
X26310000Y-107238748D02*
X26310000Y-108661252D01*
%TO.C,C2*%
X58343748Y-101240000D02*
X59766252Y-101240000D01*
X58343748Y-99420000D02*
X59766252Y-99420000D01*
%TO.C,C1*%
X49606252Y-99420000D02*
X48183748Y-99420000D01*
X49606252Y-101240000D02*
X48183748Y-101240000D01*
%TO.C,R6*%
X75022064Y-41000000D02*
X73567936Y-41000000D01*
X75022064Y-42820000D02*
X73567936Y-42820000D01*
%TO.C,R7*%
X75022064Y-58145000D02*
X73567936Y-58145000D01*
X75022064Y-59965000D02*
X73567936Y-59965000D01*
%TO.C,R8*%
X75022064Y-75290000D02*
X73567936Y-75290000D01*
X75022064Y-77110000D02*
X73567936Y-77110000D01*
%TO.C,R9*%
X18690000Y-99152064D02*
X18690000Y-97697936D01*
X16870000Y-99152064D02*
X16870000Y-97697936D01*
%TO.C,R10*%
X25760000Y-95157936D02*
X25760000Y-96612064D01*
X27580000Y-95157936D02*
X27580000Y-96612064D01*
%TO.C,R11*%
X18322936Y-115210000D02*
X19777064Y-115210000D01*
X18322936Y-113390000D02*
X19777064Y-113390000D01*
%TO.C,R12*%
X74655000Y-85632936D02*
X74655000Y-87087064D01*
X76475000Y-85632936D02*
X76475000Y-87087064D01*
%TO.C,J2*%
X54725000Y-62735000D02*
X45605000Y-62735000D01*
X45605000Y-62735000D02*
X45605000Y-78235000D01*
X45605000Y-78235000D02*
X54725000Y-78235000D01*
X54725000Y-78235000D02*
X54725000Y-62735000D01*
X54725000Y-68435000D02*
X53415000Y-68435000D01*
X53415000Y-68435000D02*
X53415000Y-64035000D01*
X53415000Y-64035000D02*
X46915000Y-64035000D01*
X46915000Y-64035000D02*
X46915000Y-76935000D01*
X46915000Y-76935000D02*
X53415000Y-76935000D01*
X53415000Y-76935000D02*
X53415000Y-72535000D01*
X53415000Y-72535000D02*
X53415000Y-72535000D01*
X53415000Y-72535000D02*
X54725000Y-72535000D01*
X55115000Y-67945000D02*
X56115000Y-67445000D01*
X56115000Y-67445000D02*
X56115000Y-68445000D01*
X56115000Y-68445000D02*
X55115000Y-67945000D01*
%TO.C,Y1*%
X50675000Y-107515000D02*
X57275000Y-107515000D01*
X50675000Y-102035000D02*
X57275000Y-102035000D01*
X43100000Y-107575000D02*
X43100000Y-101975000D01*
%TO.C,C8*%
X37541252Y-102595000D02*
X36118748Y-102595000D01*
X37541252Y-104415000D02*
X36118748Y-104415000D01*
D11*
%TO.C,U2*%
X57483555Y-88900000D02*
X57076969Y-89306586D01*
X50165000Y-81581445D02*
X49687703Y-82058742D01*
X42846445Y-88900000D02*
X43323742Y-88422703D01*
X50165000Y-96218555D02*
X50642297Y-95741258D01*
X57483555Y-88900000D02*
X57006258Y-88422703D01*
X50165000Y-96218555D02*
X49687703Y-95741258D01*
X42846445Y-88900000D02*
X43323742Y-89377297D01*
X50165000Y-81581445D02*
X50642297Y-82058742D01*
X57076969Y-89306586D02*
X57978530Y-90208148D01*
D12*
%TO.C,G\u002A\u002A\u002A*%
G36*
X49718917Y-23324932D02*
G01*
X49210744Y-23383839D01*
X48689949Y-23477636D01*
X48174009Y-23602736D01*
X47680397Y-23755555D01*
X47309725Y-23896867D01*
X46747181Y-24154325D01*
X46233422Y-24436846D01*
X45756028Y-24752568D01*
X45302583Y-25109627D01*
X44905620Y-25472147D01*
X44437775Y-25970618D01*
X44022117Y-26504804D01*
X43659475Y-27073070D01*
X43350683Y-27673784D01*
X43096570Y-28305310D01*
X42897968Y-28966017D01*
X42755708Y-29654269D01*
X42745620Y-29718000D01*
X42722862Y-29911823D01*
X42705766Y-30151958D01*
X42694436Y-30423104D01*
X42688980Y-30709962D01*
X42689504Y-30997233D01*
X42696115Y-31269616D01*
X42708920Y-31511811D01*
X42728024Y-31708520D01*
X42731581Y-31734125D01*
X42859654Y-32411710D01*
X43041660Y-33068489D01*
X43275375Y-33698427D01*
X43558575Y-34295493D01*
X43873369Y-34829750D01*
X44078735Y-35123135D01*
X44319609Y-35431297D01*
X44584737Y-35741954D01*
X44862864Y-36042828D01*
X45142739Y-36321636D01*
X45413108Y-36566101D01*
X45610280Y-36725135D01*
X46172870Y-37115653D01*
X46750422Y-37446911D01*
X47348500Y-37721236D01*
X47972668Y-37940958D01*
X48628490Y-38108406D01*
X49132245Y-38199248D01*
X49383110Y-38230345D01*
X49666156Y-38254081D01*
X49963222Y-38269811D01*
X50256146Y-38276890D01*
X50526768Y-38274672D01*
X50756928Y-38262514D01*
X50800000Y-38258475D01*
X51491316Y-38161103D01*
X52145855Y-38014810D01*
X52769074Y-37818095D01*
X53366430Y-37569457D01*
X53451125Y-37529052D01*
X54027774Y-37215872D01*
X54575503Y-36851331D01*
X55090229Y-36440057D01*
X55567867Y-35986679D01*
X56004331Y-35495825D01*
X56395536Y-34972122D01*
X56737399Y-34420200D01*
X57025832Y-33844686D01*
X57256753Y-33250208D01*
X57273922Y-33197951D01*
X57403633Y-32755449D01*
X57512409Y-32298544D01*
X57597556Y-31842635D01*
X57656379Y-31403125D01*
X57686186Y-30995414D01*
X57689411Y-30822830D01*
X57686847Y-30764679D01*
X57308750Y-30764679D01*
X57278274Y-31449692D01*
X57187138Y-32116555D01*
X57035788Y-32763996D01*
X56824665Y-33390738D01*
X56554215Y-33995509D01*
X56224878Y-34577034D01*
X55837100Y-35134038D01*
X55749954Y-35245674D01*
X55529758Y-35502389D01*
X55269097Y-35773173D01*
X54981534Y-36045964D01*
X54680634Y-36308701D01*
X54379964Y-36549322D01*
X54093087Y-36755768D01*
X53943250Y-36852115D01*
X53458729Y-37122561D01*
X52950540Y-37358828D01*
X52431488Y-37556248D01*
X51914374Y-37710149D01*
X51412002Y-37815863D01*
X51228625Y-37842304D01*
X51090911Y-37859879D01*
X50969168Y-37876146D01*
X50883097Y-37888446D01*
X50863500Y-37891585D01*
X50778973Y-37898938D01*
X50642755Y-37902388D01*
X50466511Y-37902329D01*
X50261906Y-37899150D01*
X50040604Y-37893244D01*
X49814269Y-37885002D01*
X49594567Y-37874815D01*
X49393161Y-37863074D01*
X49221716Y-37850171D01*
X49091897Y-37836496D01*
X49054193Y-37830891D01*
X48382635Y-37685846D01*
X47738026Y-37483823D01*
X47122450Y-37226274D01*
X46537995Y-36914651D01*
X45986746Y-36550406D01*
X45470790Y-36134992D01*
X44992212Y-35669861D01*
X44553099Y-35156465D01*
X44155538Y-34596256D01*
X43967708Y-34290000D01*
X43723999Y-33833791D01*
X43521188Y-33368214D01*
X43354697Y-32880206D01*
X43219952Y-32356705D01*
X43132084Y-31904431D01*
X43090009Y-31589898D01*
X43062851Y-31239592D01*
X43050477Y-30869480D01*
X43052753Y-30495530D01*
X43069545Y-30133712D01*
X43100718Y-29799992D01*
X43146140Y-29510339D01*
X43152419Y-29479875D01*
X43281540Y-28938778D01*
X43429574Y-28447758D01*
X43600579Y-27995153D01*
X43798612Y-27569301D01*
X43853836Y-27463750D01*
X44197232Y-26888146D01*
X44589149Y-26351837D01*
X45026573Y-25857016D01*
X45506489Y-25405878D01*
X46025884Y-25000615D01*
X46581745Y-24643421D01*
X47171057Y-24336490D01*
X47790807Y-24082015D01*
X48437981Y-23882190D01*
X48925697Y-23772146D01*
X49044668Y-23750593D01*
X49156267Y-23733903D01*
X49271107Y-23721478D01*
X49399800Y-23712719D01*
X49552958Y-23707028D01*
X49741195Y-23703808D01*
X49975121Y-23702460D01*
X50165000Y-23702308D01*
X50449593Y-23703227D01*
X50680474Y-23706057D01*
X50867414Y-23711275D01*
X51020187Y-23719356D01*
X51148562Y-23730774D01*
X51262313Y-23746006D01*
X51339750Y-23759432D01*
X52009221Y-23912645D01*
X52640219Y-24113915D01*
X53238552Y-24365782D01*
X53810024Y-24670787D01*
X54360442Y-25031469D01*
X54525590Y-25153380D01*
X54661206Y-25263679D01*
X54826984Y-25410165D01*
X55011142Y-25581348D01*
X55201902Y-25765738D01*
X55387482Y-25951845D01*
X55556104Y-26128177D01*
X55695986Y-26283245D01*
X55751021Y-26348664D01*
X56132796Y-26867569D01*
X56464642Y-27422460D01*
X56744560Y-28007674D01*
X56970553Y-28617546D01*
X57140622Y-29246412D01*
X57252769Y-29888607D01*
X57304996Y-30538467D01*
X57308750Y-30764679D01*
X57686847Y-30764679D01*
X57666711Y-30308092D01*
X57601847Y-29765245D01*
X57497751Y-29210882D01*
X57357358Y-28661596D01*
X57243953Y-28303232D01*
X57007133Y-27708957D01*
X56713035Y-27134646D01*
X56365965Y-26584772D01*
X55970227Y-26063808D01*
X55530125Y-25576225D01*
X55049962Y-25126498D01*
X54534045Y-24719097D01*
X53986676Y-24358497D01*
X53412160Y-24049169D01*
X52959000Y-23850719D01*
X52491027Y-23685570D01*
X51991846Y-23545720D01*
X51478721Y-23434582D01*
X50968915Y-23355573D01*
X50479693Y-23312104D01*
X50196993Y-23304500D01*
X49718917Y-23324932D01*
G37*
X49718917Y-23324932D02*
X49210744Y-23383839D01*
X48689949Y-23477636D01*
X48174009Y-23602736D01*
X47680397Y-23755555D01*
X47309725Y-23896867D01*
X46747181Y-24154325D01*
X46233422Y-24436846D01*
X45756028Y-24752568D01*
X45302583Y-25109627D01*
X44905620Y-25472147D01*
X44437775Y-25970618D01*
X44022117Y-26504804D01*
X43659475Y-27073070D01*
X43350683Y-27673784D01*
X43096570Y-28305310D01*
X42897968Y-28966017D01*
X42755708Y-29654269D01*
X42745620Y-29718000D01*
X42722862Y-29911823D01*
X42705766Y-30151958D01*
X42694436Y-30423104D01*
X42688980Y-30709962D01*
X42689504Y-30997233D01*
X42696115Y-31269616D01*
X42708920Y-31511811D01*
X42728024Y-31708520D01*
X42731581Y-31734125D01*
X42859654Y-32411710D01*
X43041660Y-33068489D01*
X43275375Y-33698427D01*
X43558575Y-34295493D01*
X43873369Y-34829750D01*
X44078735Y-35123135D01*
X44319609Y-35431297D01*
X44584737Y-35741954D01*
X44862864Y-36042828D01*
X45142739Y-36321636D01*
X45413108Y-36566101D01*
X45610280Y-36725135D01*
X46172870Y-37115653D01*
X46750422Y-37446911D01*
X47348500Y-37721236D01*
X47972668Y-37940958D01*
X48628490Y-38108406D01*
X49132245Y-38199248D01*
X49383110Y-38230345D01*
X49666156Y-38254081D01*
X49963222Y-38269811D01*
X50256146Y-38276890D01*
X50526768Y-38274672D01*
X50756928Y-38262514D01*
X50800000Y-38258475D01*
X51491316Y-38161103D01*
X52145855Y-38014810D01*
X52769074Y-37818095D01*
X53366430Y-37569457D01*
X53451125Y-37529052D01*
X54027774Y-37215872D01*
X54575503Y-36851331D01*
X55090229Y-36440057D01*
X55567867Y-35986679D01*
X56004331Y-35495825D01*
X56395536Y-34972122D01*
X56737399Y-34420200D01*
X57025832Y-33844686D01*
X57256753Y-33250208D01*
X57273922Y-33197951D01*
X57403633Y-32755449D01*
X57512409Y-32298544D01*
X57597556Y-31842635D01*
X57656379Y-31403125D01*
X57686186Y-30995414D01*
X57689411Y-30822830D01*
X57686847Y-30764679D01*
X57308750Y-30764679D01*
X57278274Y-31449692D01*
X57187138Y-32116555D01*
X57035788Y-32763996D01*
X56824665Y-33390738D01*
X56554215Y-33995509D01*
X56224878Y-34577034D01*
X55837100Y-35134038D01*
X55749954Y-35245674D01*
X55529758Y-35502389D01*
X55269097Y-35773173D01*
X54981534Y-36045964D01*
X54680634Y-36308701D01*
X54379964Y-36549322D01*
X54093087Y-36755768D01*
X53943250Y-36852115D01*
X53458729Y-37122561D01*
X52950540Y-37358828D01*
X52431488Y-37556248D01*
X51914374Y-37710149D01*
X51412002Y-37815863D01*
X51228625Y-37842304D01*
X51090911Y-37859879D01*
X50969168Y-37876146D01*
X50883097Y-37888446D01*
X50863500Y-37891585D01*
X50778973Y-37898938D01*
X50642755Y-37902388D01*
X50466511Y-37902329D01*
X50261906Y-37899150D01*
X50040604Y-37893244D01*
X49814269Y-37885002D01*
X49594567Y-37874815D01*
X49393161Y-37863074D01*
X49221716Y-37850171D01*
X49091897Y-37836496D01*
X49054193Y-37830891D01*
X48382635Y-37685846D01*
X47738026Y-37483823D01*
X47122450Y-37226274D01*
X46537995Y-36914651D01*
X45986746Y-36550406D01*
X45470790Y-36134992D01*
X44992212Y-35669861D01*
X44553099Y-35156465D01*
X44155538Y-34596256D01*
X43967708Y-34290000D01*
X43723999Y-33833791D01*
X43521188Y-33368214D01*
X43354697Y-32880206D01*
X43219952Y-32356705D01*
X43132084Y-31904431D01*
X43090009Y-31589898D01*
X43062851Y-31239592D01*
X43050477Y-30869480D01*
X43052753Y-30495530D01*
X43069545Y-30133712D01*
X43100718Y-29799992D01*
X43146140Y-29510339D01*
X43152419Y-29479875D01*
X43281540Y-28938778D01*
X43429574Y-28447758D01*
X43600579Y-27995153D01*
X43798612Y-27569301D01*
X43853836Y-27463750D01*
X44197232Y-26888146D01*
X44589149Y-26351837D01*
X45026573Y-25857016D01*
X45506489Y-25405878D01*
X46025884Y-25000615D01*
X46581745Y-24643421D01*
X47171057Y-24336490D01*
X47790807Y-24082015D01*
X48437981Y-23882190D01*
X48925697Y-23772146D01*
X49044668Y-23750593D01*
X49156267Y-23733903D01*
X49271107Y-23721478D01*
X49399800Y-23712719D01*
X49552958Y-23707028D01*
X49741195Y-23703808D01*
X49975121Y-23702460D01*
X50165000Y-23702308D01*
X50449593Y-23703227D01*
X50680474Y-23706057D01*
X50867414Y-23711275D01*
X51020187Y-23719356D01*
X51148562Y-23730774D01*
X51262313Y-23746006D01*
X51339750Y-23759432D01*
X52009221Y-23912645D01*
X52640219Y-24113915D01*
X53238552Y-24365782D01*
X53810024Y-24670787D01*
X54360442Y-25031469D01*
X54525590Y-25153380D01*
X54661206Y-25263679D01*
X54826984Y-25410165D01*
X55011142Y-25581348D01*
X55201902Y-25765738D01*
X55387482Y-25951845D01*
X55556104Y-26128177D01*
X55695986Y-26283245D01*
X55751021Y-26348664D01*
X56132796Y-26867569D01*
X56464642Y-27422460D01*
X56744560Y-28007674D01*
X56970553Y-28617546D01*
X57140622Y-29246412D01*
X57252769Y-29888607D01*
X57304996Y-30538467D01*
X57308750Y-30764679D01*
X57686847Y-30764679D01*
X57666711Y-30308092D01*
X57601847Y-29765245D01*
X57497751Y-29210882D01*
X57357358Y-28661596D01*
X57243953Y-28303232D01*
X57007133Y-27708957D01*
X56713035Y-27134646D01*
X56365965Y-26584772D01*
X55970227Y-26063808D01*
X55530125Y-25576225D01*
X55049962Y-25126498D01*
X54534045Y-24719097D01*
X53986676Y-24358497D01*
X53412160Y-24049169D01*
X52959000Y-23850719D01*
X52491027Y-23685570D01*
X51991846Y-23545720D01*
X51478721Y-23434582D01*
X50968915Y-23355573D01*
X50479693Y-23312104D01*
X50196993Y-23304500D01*
X49718917Y-23324932D01*
G36*
X49686754Y-36624636D02*
G01*
X49568108Y-36702067D01*
X49512275Y-36780476D01*
X49519258Y-36857145D01*
X49589057Y-36929360D01*
X49686595Y-36980634D01*
X49759032Y-37024071D01*
X49857113Y-37100117D01*
X49963313Y-37194812D01*
X49998514Y-37229134D01*
X50201465Y-37432085D01*
X50179935Y-37604410D01*
X50170102Y-37706265D01*
X50175682Y-37764384D01*
X50200578Y-37797480D01*
X50223115Y-37811367D01*
X50280715Y-37838849D01*
X50310564Y-37832065D01*
X50327629Y-37779933D01*
X50337156Y-37726937D01*
X50354745Y-37634950D01*
X50381111Y-37508621D01*
X50410292Y-37376428D01*
X50436365Y-37255374D01*
X50446866Y-37177167D01*
X50441731Y-37123080D01*
X50420899Y-37074384D01*
X50409228Y-37054030D01*
X50368075Y-36979414D01*
X50365861Y-36939221D01*
X50409622Y-36912973D01*
X50464086Y-36894338D01*
X50575527Y-36841617D01*
X50628583Y-36773587D01*
X50628316Y-36687537D01*
X50600896Y-36630345D01*
X50543905Y-36609513D01*
X50505708Y-36608099D01*
X50329959Y-36619477D01*
X50210098Y-36651820D01*
X50148206Y-36704512D01*
X50143767Y-36714951D01*
X50128524Y-36793913D01*
X50147640Y-36866757D01*
X50207799Y-36953337D01*
X50234603Y-36984675D01*
X50295555Y-37065636D01*
X50315903Y-37133458D01*
X50310333Y-37190776D01*
X50288884Y-37267628D01*
X50265229Y-37313971D01*
X50233369Y-37304460D01*
X50170669Y-37256907D01*
X50088700Y-37180530D01*
X50057170Y-37148244D01*
X49874692Y-36956935D01*
X49940471Y-36873310D01*
X49991934Y-36796755D01*
X49998404Y-36738040D01*
X49958120Y-36673759D01*
X49922532Y-36634966D01*
X49838813Y-36547582D01*
X49686754Y-36624636D01*
G37*
X49686754Y-36624636D02*
X49568108Y-36702067D01*
X49512275Y-36780476D01*
X49519258Y-36857145D01*
X49589057Y-36929360D01*
X49686595Y-36980634D01*
X49759032Y-37024071D01*
X49857113Y-37100117D01*
X49963313Y-37194812D01*
X49998514Y-37229134D01*
X50201465Y-37432085D01*
X50179935Y-37604410D01*
X50170102Y-37706265D01*
X50175682Y-37764384D01*
X50200578Y-37797480D01*
X50223115Y-37811367D01*
X50280715Y-37838849D01*
X50310564Y-37832065D01*
X50327629Y-37779933D01*
X50337156Y-37726937D01*
X50354745Y-37634950D01*
X50381111Y-37508621D01*
X50410292Y-37376428D01*
X50436365Y-37255374D01*
X50446866Y-37177167D01*
X50441731Y-37123080D01*
X50420899Y-37074384D01*
X50409228Y-37054030D01*
X50368075Y-36979414D01*
X50365861Y-36939221D01*
X50409622Y-36912973D01*
X50464086Y-36894338D01*
X50575527Y-36841617D01*
X50628583Y-36773587D01*
X50628316Y-36687537D01*
X50600896Y-36630345D01*
X50543905Y-36609513D01*
X50505708Y-36608099D01*
X50329959Y-36619477D01*
X50210098Y-36651820D01*
X50148206Y-36704512D01*
X50143767Y-36714951D01*
X50128524Y-36793913D01*
X50147640Y-36866757D01*
X50207799Y-36953337D01*
X50234603Y-36984675D01*
X50295555Y-37065636D01*
X50315903Y-37133458D01*
X50310333Y-37190776D01*
X50288884Y-37267628D01*
X50265229Y-37313971D01*
X50233369Y-37304460D01*
X50170669Y-37256907D01*
X50088700Y-37180530D01*
X50057170Y-37148244D01*
X49874692Y-36956935D01*
X49940471Y-36873310D01*
X49991934Y-36796755D01*
X49998404Y-36738040D01*
X49958120Y-36673759D01*
X49922532Y-36634966D01*
X49838813Y-36547582D01*
X49686754Y-36624636D01*
G36*
X49325956Y-25123222D02*
G01*
X48748112Y-25238970D01*
X48390823Y-25340590D01*
X48075936Y-25455628D01*
X47737140Y-25606754D01*
X47391456Y-25784602D01*
X47055905Y-25979809D01*
X46747510Y-26183010D01*
X46483293Y-26384843D01*
X46465905Y-26399517D01*
X46047983Y-26791887D01*
X45668568Y-27223176D01*
X45335165Y-27683737D01*
X45055278Y-28163927D01*
X44989076Y-28297329D01*
X44761225Y-28846237D01*
X44592889Y-29410657D01*
X44483725Y-29985683D01*
X44433392Y-30566407D01*
X44441549Y-31147924D01*
X44507854Y-31725327D01*
X44631966Y-32293708D01*
X44813545Y-32848160D01*
X45052247Y-33383778D01*
X45347732Y-33895654D01*
X45382170Y-33948021D01*
X45742145Y-34432694D01*
X46145583Y-34872612D01*
X46588907Y-35265675D01*
X47068542Y-35609785D01*
X47580911Y-35902843D01*
X48122439Y-36142749D01*
X48689548Y-36327405D01*
X49278663Y-36454712D01*
X49752250Y-36512940D01*
X49957945Y-36528560D01*
X50124557Y-36536662D01*
X50276066Y-36537184D01*
X50436452Y-36530064D01*
X50629692Y-36515237D01*
X50683931Y-36510498D01*
X51278124Y-36426614D01*
X51856200Y-36282872D01*
X52160231Y-36172967D01*
X50071891Y-36172967D01*
X49771002Y-36153203D01*
X49596637Y-36136778D01*
X49396033Y-36110369D01*
X49204691Y-36078832D01*
X49150768Y-36068360D01*
X48584465Y-35921915D01*
X48043393Y-35720071D01*
X47531170Y-35465872D01*
X47051415Y-35162362D01*
X46607748Y-34812585D01*
X46203789Y-34419588D01*
X45843155Y-33986412D01*
X45529467Y-33516104D01*
X45266344Y-33011707D01*
X45131893Y-32687732D01*
X45093637Y-32582139D01*
X45067859Y-32503213D01*
X45059511Y-32466259D01*
X45059939Y-32465354D01*
X45092453Y-32464437D01*
X45182935Y-32464165D01*
X45325857Y-32464501D01*
X45515692Y-32465413D01*
X45746912Y-32466865D01*
X46013989Y-32468822D01*
X46311394Y-32471250D01*
X46633601Y-32474114D01*
X46970453Y-32477334D01*
X48871780Y-32496125D01*
X48959314Y-32766000D01*
X48987668Y-32853591D01*
X49033000Y-32993841D01*
X49092797Y-33178972D01*
X49164549Y-33401206D01*
X49245744Y-33652765D01*
X49333873Y-33925872D01*
X49426424Y-34212749D01*
X49482065Y-34385250D01*
X49575428Y-34674257D01*
X49665457Y-34952073D01*
X49749723Y-35211260D01*
X49825793Y-35444377D01*
X49891238Y-35643985D01*
X49943625Y-35802643D01*
X49980525Y-35912912D01*
X49994587Y-35953796D01*
X50071891Y-36172967D01*
X52160231Y-36172967D01*
X52413711Y-36081336D01*
X52946210Y-35824067D01*
X53449248Y-35513129D01*
X53918377Y-35150583D01*
X54221206Y-34870195D01*
X54631910Y-34419885D01*
X54984984Y-33944115D01*
X55281404Y-33440936D01*
X55522146Y-32908396D01*
X55652915Y-32512060D01*
X55276750Y-32512060D01*
X55263581Y-32567532D01*
X55227662Y-32667344D01*
X55174378Y-32798905D01*
X55109112Y-32949628D01*
X55037249Y-33106923D01*
X54964171Y-33258202D01*
X54923731Y-33337500D01*
X54646901Y-33800355D01*
X54316469Y-34235942D01*
X53938363Y-34639098D01*
X53518510Y-35004659D01*
X53062836Y-35327464D01*
X52577268Y-35602350D01*
X52070000Y-35823308D01*
X51706480Y-35945320D01*
X51339247Y-36043183D01*
X50984268Y-36113454D01*
X50657504Y-36152696D01*
X50509432Y-36159610D01*
X50298238Y-36163250D01*
X50498953Y-35552062D01*
X50555510Y-35379644D01*
X50628064Y-35158144D01*
X50712924Y-34898850D01*
X50806397Y-34613050D01*
X50904792Y-34312033D01*
X51004416Y-34007086D01*
X51101356Y-33710179D01*
X51490285Y-32518573D01*
X51212750Y-32518573D01*
X51202787Y-32559464D01*
X51173175Y-32659290D01*
X51124337Y-32816738D01*
X51056693Y-33030497D01*
X50970663Y-33299256D01*
X50866669Y-33621702D01*
X50745130Y-33996524D01*
X50606468Y-34422411D01*
X50451102Y-34898052D01*
X50377336Y-35123437D01*
X50316772Y-35305714D01*
X50262035Y-35465433D01*
X50216390Y-35593471D01*
X50183099Y-35680708D01*
X50165428Y-35718021D01*
X50164292Y-35718750D01*
X50146080Y-35691031D01*
X50115026Y-35618021D01*
X50077546Y-35514939D01*
X50073986Y-35504437D01*
X50036942Y-35392953D01*
X49986412Y-35238599D01*
X49924636Y-35048397D01*
X49853857Y-34829369D01*
X49776315Y-34588536D01*
X49694253Y-34332919D01*
X49609910Y-34069540D01*
X49525529Y-33805421D01*
X49443351Y-33547583D01*
X49365618Y-33303048D01*
X49294570Y-33078837D01*
X49232449Y-32881971D01*
X49181497Y-32719473D01*
X49143954Y-32598364D01*
X49122063Y-32525665D01*
X49117250Y-32507274D01*
X49142625Y-32482493D01*
X49159387Y-32480250D01*
X49190170Y-32510974D01*
X49220622Y-32599111D01*
X49239522Y-32686469D01*
X49269848Y-32818674D01*
X49315014Y-32978263D01*
X49366008Y-33133768D01*
X49373598Y-33154782D01*
X49423967Y-33298026D01*
X49470675Y-33440922D01*
X49505094Y-33556855D01*
X49510040Y-33575625D01*
X49565233Y-33740360D01*
X49637286Y-33850775D01*
X49734469Y-33915465D01*
X49863375Y-33942891D01*
X49948257Y-33944999D01*
X49974626Y-33929414D01*
X49943622Y-33891247D01*
X49885811Y-33846602D01*
X49770223Y-33726596D01*
X49702669Y-33576246D01*
X49688928Y-33469436D01*
X49679130Y-33423104D01*
X49652783Y-33331302D01*
X49614223Y-33208527D01*
X49579718Y-33104311D01*
X49531179Y-32952421D01*
X49489001Y-32805223D01*
X49458995Y-32683773D01*
X49449113Y-32631062D01*
X49427540Y-32480250D01*
X49542270Y-32480250D01*
X49618852Y-32485540D01*
X49651295Y-32510962D01*
X49658639Y-32567562D01*
X49672427Y-32647042D01*
X49706448Y-32761133D01*
X49752762Y-32887533D01*
X49803434Y-33003942D01*
X49835633Y-33064844D01*
X49885087Y-33107179D01*
X49920442Y-33106237D01*
X49947065Y-33087886D01*
X49953842Y-33050087D01*
X49941400Y-32976409D01*
X49927621Y-32918769D01*
X49898775Y-32791336D01*
X49873921Y-32662751D01*
X49866070Y-32614070D01*
X49846393Y-32478016D01*
X50172384Y-32487070D01*
X50498375Y-32496125D01*
X50488771Y-32647671D01*
X50472115Y-32773913D01*
X50442564Y-32900459D01*
X50433208Y-32929475D01*
X50399761Y-33031163D01*
X50390843Y-33087204D01*
X50407135Y-33110802D01*
X50442813Y-33115217D01*
X50494352Y-33086975D01*
X50553107Y-33012631D01*
X50610870Y-32907681D01*
X50659432Y-32787621D01*
X50690582Y-32667948D01*
X50694704Y-32639756D01*
X50713595Y-32480250D01*
X50836173Y-32480250D01*
X50918959Y-32486848D01*
X50954192Y-32511231D01*
X50958750Y-32536450D01*
X50947751Y-32617105D01*
X50918634Y-32737587D01*
X50877224Y-32878909D01*
X50829343Y-33022083D01*
X50780816Y-33148121D01*
X50751484Y-33212258D01*
X50699152Y-33345969D01*
X50673903Y-33475595D01*
X50673000Y-33499384D01*
X50649356Y-33641385D01*
X50585887Y-33767187D01*
X50493795Y-33856672D01*
X50465615Y-33871933D01*
X50411744Y-33913120D01*
X50410131Y-33952211D01*
X50460023Y-33972192D01*
X50470076Y-33972500D01*
X50572593Y-33943905D01*
X50673228Y-33868639D01*
X50758598Y-33762483D01*
X50815318Y-33641214D01*
X50831053Y-33546938D01*
X50844580Y-33485741D01*
X50878665Y-33392280D01*
X50910014Y-33321067D01*
X50953848Y-33216426D01*
X51002775Y-33080967D01*
X51051693Y-32931343D01*
X51095500Y-32784207D01*
X51129092Y-32656215D01*
X51147369Y-32564021D01*
X51149250Y-32540198D01*
X51163248Y-32490565D01*
X51181000Y-32480250D01*
X51210740Y-32505186D01*
X51212750Y-32518573D01*
X51490285Y-32518573D01*
X51503044Y-32479484D01*
X53389897Y-32480754D01*
X53792594Y-32481522D01*
X54153527Y-32483226D01*
X54469705Y-32485815D01*
X54738135Y-32489239D01*
X54955826Y-32493450D01*
X55119786Y-32498398D01*
X55227023Y-32504032D01*
X55274545Y-32510303D01*
X55276750Y-32512060D01*
X55652915Y-32512060D01*
X55708186Y-32344545D01*
X55726246Y-32263038D01*
X54911625Y-32263038D01*
X54886762Y-32268601D01*
X54805450Y-32273292D01*
X54674734Y-32277135D01*
X54501659Y-32280155D01*
X54293271Y-32282377D01*
X54056614Y-32283828D01*
X53798733Y-32284531D01*
X53526673Y-32284512D01*
X53247480Y-32283796D01*
X52968197Y-32282408D01*
X52695871Y-32280374D01*
X52437546Y-32277719D01*
X52200266Y-32274468D01*
X51991078Y-32270645D01*
X51817026Y-32266277D01*
X51685155Y-32261388D01*
X51602510Y-32256003D01*
X51576291Y-32251123D01*
X51578562Y-32216586D01*
X51597600Y-32140659D01*
X51601851Y-32126529D01*
X51339750Y-32126529D01*
X51322100Y-32203007D01*
X51279533Y-32251674D01*
X51255862Y-32258000D01*
X51227095Y-32245601D01*
X51242051Y-32199099D01*
X51243554Y-32196268D01*
X51284041Y-32137921D01*
X51320986Y-32109428D01*
X51339479Y-32121600D01*
X51339750Y-32126529D01*
X51601851Y-32126529D01*
X51627650Y-32040779D01*
X51662956Y-31934381D01*
X51697763Y-31838900D01*
X51726315Y-31771773D01*
X51741713Y-31750000D01*
X51768244Y-31771647D01*
X51821003Y-31826533D01*
X51852010Y-31861125D01*
X51924471Y-31927406D01*
X51994688Y-31966240D01*
X52048059Y-31972401D01*
X52069981Y-31940663D01*
X52070000Y-31939137D01*
X52052054Y-31898449D01*
X52005125Y-31824358D01*
X51943000Y-31737815D01*
X51860100Y-31614287D01*
X51821561Y-31516120D01*
X51822760Y-31428273D01*
X51835272Y-31387471D01*
X51852516Y-31356013D01*
X51880922Y-31342708D01*
X51931434Y-31349481D01*
X52014990Y-31378254D01*
X52142532Y-31430951D01*
X52184305Y-31448833D01*
X52489042Y-31552039D01*
X52705778Y-31593228D01*
X52922717Y-31634706D01*
X53150564Y-31702275D01*
X53237375Y-31734879D01*
X53358860Y-31780990D01*
X53458487Y-31813458D01*
X53521593Y-31827754D01*
X53534771Y-31826735D01*
X53560717Y-31787349D01*
X53533098Y-31730281D01*
X53461655Y-31660637D01*
X53326403Y-31557367D01*
X53189979Y-31481157D01*
X53033030Y-31423582D01*
X52836201Y-31376218D01*
X52785516Y-31366310D01*
X52558842Y-31319690D01*
X52382123Y-31274013D01*
X52242034Y-31224918D01*
X52125251Y-31168044D01*
X52063019Y-31129822D01*
X51990085Y-31075475D01*
X51963012Y-31031948D01*
X51970941Y-30981509D01*
X51971406Y-30980244D01*
X51992784Y-30934009D01*
X52022174Y-30915908D01*
X52074342Y-30926032D01*
X52164057Y-30964473D01*
X52200780Y-30981673D01*
X52296905Y-31020422D01*
X52432334Y-31066677D01*
X52584650Y-31113013D01*
X52661155Y-31134162D01*
X52857305Y-31190023D01*
X53019215Y-31247206D01*
X53161460Y-31314013D01*
X53298616Y-31398744D01*
X53445261Y-31509698D01*
X53615969Y-31655177D01*
X53686847Y-31718250D01*
X53809396Y-31823226D01*
X53937122Y-31924709D01*
X54048381Y-32005738D01*
X54080970Y-32027095D01*
X54175423Y-32089223D01*
X54214399Y-32121921D01*
X54199025Y-32124538D01*
X54130429Y-32096422D01*
X54038500Y-32051625D01*
X53938268Y-32006779D01*
X53851408Y-31978001D01*
X53815219Y-31972250D01*
X53729850Y-31956958D01*
X53688858Y-31940290D01*
X53633587Y-31927170D01*
X53598299Y-31963441D01*
X53571789Y-31999664D01*
X53540932Y-31992389D01*
X53503629Y-31960789D01*
X53421378Y-31919579D01*
X53372238Y-31924470D01*
X53306123Y-31923881D01*
X53236719Y-31872401D01*
X53228604Y-31863832D01*
X53156137Y-31803493D01*
X53095341Y-31783663D01*
X53059120Y-31806577D01*
X53054250Y-31833656D01*
X53043970Y-31856316D01*
X53009529Y-31827547D01*
X52988446Y-31801906D01*
X52920341Y-31739272D01*
X52856770Y-31718658D01*
X52812303Y-31741130D01*
X52800250Y-31788129D01*
X52823499Y-31846037D01*
X52884010Y-31927929D01*
X52967929Y-32020115D01*
X53061401Y-32108903D01*
X53150574Y-32180603D01*
X53221593Y-32221523D01*
X53243583Y-32226250D01*
X53299249Y-32211547D01*
X53298667Y-32172235D01*
X53260625Y-32131000D01*
X53215209Y-32081368D01*
X53220425Y-32059759D01*
X53266959Y-32073258D01*
X53305214Y-32097088D01*
X53381685Y-32141675D01*
X53444753Y-32162538D01*
X53449206Y-32162750D01*
X53512874Y-32179441D01*
X53578997Y-32213865D01*
X53644524Y-32242093D01*
X53703865Y-32246525D01*
X53739687Y-32230310D01*
X53734655Y-32196596D01*
X53726310Y-32187109D01*
X53689205Y-32138610D01*
X53699656Y-32122954D01*
X53748953Y-32143545D01*
X53781482Y-32165538D01*
X53856743Y-32205356D01*
X53913235Y-32208028D01*
X53936769Y-32175638D01*
X53930536Y-32143663D01*
X53923879Y-32107804D01*
X53949218Y-32105684D01*
X54014365Y-32138732D01*
X54062499Y-32167770D01*
X54172290Y-32215637D01*
X54319734Y-32242583D01*
X54399622Y-32248781D01*
X54553861Y-32250445D01*
X54654392Y-32236155D01*
X54698574Y-32206833D01*
X54687155Y-32173333D01*
X54408917Y-32173333D01*
X54404559Y-32192208D01*
X54387750Y-32194500D01*
X54361617Y-32182883D01*
X54366584Y-32173333D01*
X54404264Y-32169533D01*
X54408917Y-32173333D01*
X54687155Y-32173333D01*
X54683769Y-32163401D01*
X54673500Y-32153105D01*
X54616932Y-32117512D01*
X54525348Y-32075087D01*
X54467125Y-32052564D01*
X54355314Y-32008861D01*
X54255480Y-31959511D01*
X54156983Y-31896783D01*
X54049185Y-31812948D01*
X53921446Y-31700274D01*
X53763127Y-31551031D01*
X53721000Y-31510461D01*
X53543743Y-31342825D01*
X53397006Y-31214439D01*
X53268582Y-31117579D01*
X53146265Y-31044519D01*
X53017851Y-30987532D01*
X52871132Y-30938893D01*
X52775974Y-30912301D01*
X52637726Y-30871276D01*
X52488899Y-30820616D01*
X52345012Y-30766354D01*
X52340436Y-30764432D01*
X51778842Y-30764432D01*
X51758160Y-30818503D01*
X51709079Y-30870453D01*
X51658203Y-30942489D01*
X51602655Y-31062975D01*
X51551275Y-31210250D01*
X51487236Y-31387977D01*
X51405182Y-31569621D01*
X51313097Y-31741013D01*
X51218963Y-31887981D01*
X51130763Y-31996354D01*
X51086590Y-32035151D01*
X51010217Y-32114084D01*
X50990500Y-32180786D01*
X50983864Y-32229289D01*
X50952435Y-32251724D01*
X50878939Y-32257864D01*
X50854004Y-32258000D01*
X50766053Y-32253356D01*
X50718232Y-32230005D01*
X50687334Y-32173818D01*
X50678969Y-32151424D01*
X50624393Y-32044485D01*
X50556237Y-31973153D01*
X50486549Y-31948519D01*
X50463578Y-31953150D01*
X50431393Y-31978538D01*
X50422176Y-32032088D01*
X50430038Y-32115751D01*
X50449536Y-32258000D01*
X49903934Y-32258000D01*
X49922817Y-32154812D01*
X49928049Y-32047503D01*
X49902235Y-31986906D01*
X49855196Y-31971128D01*
X49796750Y-31998279D01*
X49736717Y-32066466D01*
X49684918Y-32173797D01*
X49675614Y-32202437D01*
X49638191Y-32244234D01*
X49553039Y-32257966D01*
X49546872Y-32258000D01*
X49470734Y-32251692D01*
X49469698Y-32250812D01*
X49129658Y-32250812D01*
X49104093Y-32253908D01*
X49097842Y-32252791D01*
X49049276Y-32218236D01*
X49048190Y-32216539D01*
X48768000Y-32216539D01*
X48757550Y-32225922D01*
X48723239Y-32233848D01*
X48660631Y-32240430D01*
X48565288Y-32245774D01*
X48432773Y-32249992D01*
X48258647Y-32253191D01*
X48038474Y-32255482D01*
X47767815Y-32256974D01*
X47442234Y-32257777D01*
X47085250Y-32258000D01*
X46765098Y-32257564D01*
X46464946Y-32256313D01*
X46190626Y-32254328D01*
X45947969Y-32251693D01*
X45742806Y-32248490D01*
X45580969Y-32244802D01*
X45468289Y-32240711D01*
X45410597Y-32236299D01*
X45404129Y-32234187D01*
X45429305Y-32209216D01*
X45498461Y-32153781D01*
X45603622Y-32073925D01*
X45736815Y-31975696D01*
X45890064Y-31865139D01*
X45904192Y-31855060D01*
X46091431Y-31721392D01*
X46311927Y-31563675D01*
X46547423Y-31394987D01*
X46779661Y-31228406D01*
X46990140Y-31077185D01*
X47162969Y-30952943D01*
X47321801Y-30838882D01*
X47458248Y-30741016D01*
X47563923Y-30665357D01*
X47630439Y-30617920D01*
X47645909Y-30607000D01*
X47703977Y-30566041D01*
X47795731Y-30500853D01*
X47903233Y-30424184D01*
X47924522Y-30408968D01*
X48028352Y-30335705D01*
X48092481Y-30295751D01*
X48128644Y-30285174D01*
X48148572Y-30300044D01*
X48161451Y-30329593D01*
X48200065Y-30440858D01*
X48214075Y-30509398D01*
X48205199Y-30550276D01*
X48188718Y-30568533D01*
X48147587Y-30592431D01*
X48058858Y-30637668D01*
X47932717Y-30699258D01*
X47779353Y-30772216D01*
X47635111Y-30839484D01*
X47402443Y-30948978D01*
X47215926Y-31042476D01*
X47062916Y-31127978D01*
X46930771Y-31213481D01*
X46806848Y-31306983D01*
X46678505Y-31416481D01*
X46577594Y-31508480D01*
X46297851Y-31744734D01*
X46021189Y-31929431D01*
X45821851Y-32033239D01*
X45732194Y-32081256D01*
X45672145Y-32125555D01*
X45656500Y-32149511D01*
X45684479Y-32179480D01*
X45753875Y-32204480D01*
X45775563Y-32208752D01*
X45910576Y-32208939D01*
X46082165Y-32169205D01*
X46295597Y-32088317D01*
X46302061Y-32085519D01*
X46378086Y-32054023D01*
X46409572Y-32049863D01*
X46410045Y-32074673D01*
X46403109Y-32097728D01*
X46399486Y-32148710D01*
X46441892Y-32162745D01*
X46443347Y-32162750D01*
X46502597Y-32144104D01*
X46588151Y-32097471D01*
X46678641Y-32036810D01*
X46752697Y-31976078D01*
X46783635Y-31940484D01*
X46795438Y-31897037D01*
X46760135Y-31889068D01*
X46684218Y-31918006D01*
X46683389Y-31918429D01*
X46602716Y-31946656D01*
X46541948Y-31931623D01*
X46538962Y-31929753D01*
X46489838Y-31914991D01*
X46417556Y-31927763D01*
X46319010Y-31965008D01*
X46217191Y-32004078D01*
X46155919Y-32020067D01*
X46140491Y-32013652D01*
X46176204Y-31985511D01*
X46232987Y-31954010D01*
X46305890Y-31913361D01*
X46386688Y-31861076D01*
X46485194Y-31790040D01*
X46611221Y-31693139D01*
X46774581Y-31563256D01*
X46799695Y-31543077D01*
X47028530Y-31382319D01*
X47241592Y-31280396D01*
X47244195Y-31279483D01*
X47400637Y-31221246D01*
X47582241Y-31147924D01*
X47771296Y-31067227D01*
X47950092Y-30986869D01*
X48100918Y-30914561D01*
X48188431Y-30868324D01*
X48274060Y-30824705D01*
X48320132Y-30816373D01*
X48336448Y-30834247D01*
X48354736Y-30892305D01*
X48381558Y-30976529D01*
X48384204Y-30984800D01*
X48407059Y-31058840D01*
X48418460Y-31100948D01*
X48418750Y-31103217D01*
X48393288Y-31122526D01*
X48329022Y-31159050D01*
X48293357Y-31177680D01*
X48164527Y-31225905D01*
X47978209Y-31267993D01*
X47732148Y-31304391D01*
X47561500Y-31323039D01*
X47400472Y-31356816D01*
X47244309Y-31418832D01*
X47230811Y-31426034D01*
X47119488Y-31496923D01*
X47047834Y-31560919D01*
X47016968Y-31610822D01*
X47028007Y-31639433D01*
X47082071Y-31639553D01*
X47180277Y-31603983D01*
X47205010Y-31592104D01*
X47299389Y-31552419D01*
X47400809Y-31528073D01*
X47530302Y-31515184D01*
X47644254Y-31511002D01*
X47926129Y-31491983D01*
X48159851Y-31449257D01*
X48340284Y-31383863D01*
X48378902Y-31362633D01*
X48481929Y-31300519D01*
X48513840Y-31384451D01*
X48536650Y-31454527D01*
X48539264Y-31512242D01*
X48517125Y-31576518D01*
X48465676Y-31666274D01*
X48433813Y-31716778D01*
X48376919Y-31809730D01*
X48337085Y-31881775D01*
X48323500Y-31915216D01*
X48344887Y-31942717D01*
X48397610Y-31935412D01*
X48464516Y-31899493D01*
X48528358Y-31841263D01*
X48582299Y-31782326D01*
X48617030Y-31753999D01*
X48621890Y-31753950D01*
X48639511Y-31793159D01*
X48668133Y-31873749D01*
X48701523Y-31975984D01*
X48733447Y-32080131D01*
X48757671Y-32166452D01*
X48767962Y-32215214D01*
X48768000Y-32216539D01*
X49048190Y-32216539D01*
X49004351Y-32148085D01*
X49000421Y-32138937D01*
X48976432Y-32063663D01*
X48984083Y-32039949D01*
X49018840Y-32067162D01*
X49076174Y-32144670D01*
X49079644Y-32149996D01*
X49122212Y-32220154D01*
X49129658Y-32250812D01*
X49469698Y-32250812D01*
X49439428Y-32225117D01*
X49434506Y-32186562D01*
X49409286Y-32120954D01*
X49329459Y-32055755D01*
X49307839Y-32042931D01*
X49211069Y-31962183D01*
X49104148Y-31828200D01*
X48992406Y-31649333D01*
X48881173Y-31433930D01*
X48796696Y-31242278D01*
X48745274Y-31125860D01*
X48696631Y-31030850D01*
X48659622Y-30974196D01*
X48653494Y-30968220D01*
X48616896Y-30918305D01*
X48575651Y-30832249D01*
X48557409Y-30783666D01*
X48528847Y-30692817D01*
X48523647Y-30638293D01*
X48543185Y-30596844D01*
X48570335Y-30565320D01*
X48656249Y-30444006D01*
X48737243Y-30280056D01*
X48804198Y-30094198D01*
X48835224Y-29970808D01*
X48609250Y-29970808D01*
X48598132Y-30024713D01*
X48570086Y-30107971D01*
X48533073Y-30201315D01*
X48495057Y-30285474D01*
X48464000Y-30341178D01*
X48451325Y-30353000D01*
X48424108Y-30326264D01*
X48393007Y-30261086D01*
X48390106Y-30253012D01*
X48362246Y-30158208D01*
X48367280Y-30097929D01*
X48412682Y-30048510D01*
X48454759Y-30019625D01*
X48069017Y-30019625D01*
X48044494Y-30053163D01*
X47981239Y-30104723D01*
X47928524Y-30140366D01*
X47847571Y-30194115D01*
X47731135Y-30274774D01*
X47594752Y-30371445D01*
X47453956Y-30473230D01*
X47453258Y-30473741D01*
X47309698Y-30578166D01*
X47167989Y-30680397D01*
X47044728Y-30768509D01*
X46958433Y-30829250D01*
X46915074Y-30859340D01*
X46872899Y-30888830D01*
X46826637Y-30921531D01*
X46771015Y-30961257D01*
X46700760Y-31011822D01*
X46610601Y-31077040D01*
X46495266Y-31160723D01*
X46349481Y-31266685D01*
X46167975Y-31398740D01*
X45945476Y-31560701D01*
X45688250Y-31747979D01*
X45509541Y-31877223D01*
X45346853Y-31993215D01*
X45207461Y-32090901D01*
X45098641Y-32165231D01*
X45027667Y-32211150D01*
X45002740Y-32224066D01*
X44977303Y-32197100D01*
X44948706Y-32125401D01*
X44931266Y-32059562D01*
X44869792Y-31718269D01*
X44826847Y-31344924D01*
X44803211Y-30958614D01*
X44799661Y-30578429D01*
X44816977Y-30223456D01*
X44846137Y-29972000D01*
X44965593Y-29399291D01*
X45143335Y-28851630D01*
X45379082Y-28329525D01*
X45672552Y-27833488D01*
X46023462Y-27364028D01*
X46431532Y-26921656D01*
X46636975Y-26728648D01*
X46741038Y-26637699D01*
X46829308Y-26565450D01*
X46890330Y-26520998D01*
X46910532Y-26511292D01*
X46929128Y-26540187D01*
X46963102Y-26620960D01*
X47009210Y-26744779D01*
X47064210Y-26902813D01*
X47124858Y-27086231D01*
X47146641Y-27154229D01*
X47207475Y-27344656D01*
X47283911Y-27582289D01*
X47371704Y-27854017D01*
X47466604Y-28146727D01*
X47564365Y-28447309D01*
X47660738Y-28742651D01*
X47709777Y-28892500D01*
X47792037Y-29144399D01*
X47867681Y-29377609D01*
X47934489Y-29585172D01*
X47990245Y-29760128D01*
X48032730Y-29895518D01*
X48059726Y-29984382D01*
X48069017Y-30019625D01*
X48454759Y-30019625D01*
X48466323Y-30011687D01*
X48549124Y-29960604D01*
X48592354Y-29943148D01*
X48608007Y-29955887D01*
X48609250Y-29970808D01*
X48835224Y-29970808D01*
X48839670Y-29953130D01*
X48862453Y-29846505D01*
X48887162Y-29772947D01*
X48925732Y-29715030D01*
X48990097Y-29655332D01*
X49092192Y-29576429D01*
X49103578Y-29567836D01*
X49207137Y-29492632D01*
X49293871Y-29435023D01*
X49349855Y-29404053D01*
X49360221Y-29401149D01*
X49386521Y-29428949D01*
X49422061Y-29502902D01*
X49459701Y-29607810D01*
X49464322Y-29622750D01*
X49504204Y-29742443D01*
X49537890Y-29811434D01*
X49572096Y-29841194D01*
X49594414Y-29845000D01*
X49634203Y-29834925D01*
X49652596Y-29793877D01*
X49657000Y-29707780D01*
X49645903Y-29590321D01*
X49618087Y-29460498D01*
X49605560Y-29419591D01*
X49554119Y-29268620D01*
X49661122Y-29177100D01*
X49740280Y-29112675D01*
X49786055Y-29090625D01*
X49811847Y-29110389D01*
X49830701Y-29169994D01*
X49873277Y-29261763D01*
X49937845Y-29303388D01*
X49951711Y-29304763D01*
X49985877Y-29277697D01*
X50006721Y-29209261D01*
X50010108Y-29120920D01*
X49999431Y-29057100D01*
X49985181Y-28977146D01*
X50003263Y-28927906D01*
X50027802Y-28905054D01*
X50115499Y-28841986D01*
X50176382Y-28819281D01*
X50229682Y-28833575D01*
X50271114Y-28862480D01*
X50320263Y-28909181D01*
X50340135Y-28961595D01*
X50338019Y-29044453D01*
X50334400Y-29077150D01*
X50328712Y-29182150D01*
X50344999Y-29244744D01*
X50366377Y-29269351D01*
X50425362Y-29295594D01*
X50469464Y-29261996D01*
X50498455Y-29177885D01*
X50519334Y-29111454D01*
X50540745Y-29083016D01*
X50541153Y-29083000D01*
X50578353Y-29099413D01*
X50647270Y-29140932D01*
X50684395Y-29165483D01*
X50747451Y-29210436D01*
X50780097Y-29249270D01*
X50784476Y-29298937D01*
X50762729Y-29376389D01*
X50724106Y-29479875D01*
X50687615Y-29605319D01*
X50675941Y-29714967D01*
X50689389Y-29793575D01*
X50717246Y-29823434D01*
X50771424Y-29813117D01*
X50837632Y-29756780D01*
X50904184Y-29667309D01*
X50959394Y-29557592D01*
X50960212Y-29555511D01*
X51009350Y-29429835D01*
X51219151Y-29581358D01*
X51428953Y-29732880D01*
X51440106Y-29971502D01*
X51464689Y-30171863D01*
X51523659Y-30348110D01*
X51625661Y-30522152D01*
X51692624Y-30611568D01*
X51757384Y-30701540D01*
X51778842Y-30764432D01*
X52340436Y-30764432D01*
X52221584Y-30714522D01*
X52134136Y-30671152D01*
X52105307Y-30651624D01*
X52105112Y-30616584D01*
X52120011Y-30543588D01*
X52143952Y-30454557D01*
X52170886Y-30371412D01*
X52194765Y-30316074D01*
X52199940Y-30308703D01*
X52232950Y-30316657D01*
X52307648Y-30357501D01*
X52415154Y-30425720D01*
X52546588Y-30515796D01*
X52631822Y-30577003D01*
X52802750Y-30701849D01*
X52991367Y-30839781D01*
X53190912Y-30985837D01*
X53394619Y-31135054D01*
X53595726Y-31282472D01*
X53787470Y-31423128D01*
X53963087Y-31552061D01*
X54115814Y-31664310D01*
X54238888Y-31754912D01*
X54325544Y-31818906D01*
X54369021Y-31851329D01*
X54371875Y-31853538D01*
X54410244Y-31882616D01*
X54486469Y-31939400D01*
X54587240Y-32013994D01*
X54641750Y-32054199D01*
X54749900Y-32134902D01*
X54839958Y-32204009D01*
X54898538Y-32251161D01*
X54911625Y-32263038D01*
X55726246Y-32263038D01*
X55840498Y-31747433D01*
X55867235Y-31579598D01*
X55897801Y-31287676D01*
X55911475Y-30959603D01*
X55910034Y-30767060D01*
X55557196Y-30767060D01*
X55547025Y-31076394D01*
X55523698Y-31388677D01*
X55488441Y-31686719D01*
X55442477Y-31953330D01*
X55396925Y-32138937D01*
X55372654Y-32214394D01*
X55355342Y-32255479D01*
X55352713Y-32258000D01*
X55325459Y-32240118D01*
X55255480Y-32190477D01*
X55151099Y-32115085D01*
X55020639Y-32019949D01*
X54889426Y-31923605D01*
X54759464Y-31828246D01*
X54586945Y-31702202D01*
X54380793Y-31551963D01*
X54149933Y-31384021D01*
X53903286Y-31204866D01*
X53649777Y-31020990D01*
X53398328Y-30838883D01*
X53376803Y-30823308D01*
X53148178Y-30657300D01*
X52935874Y-30502002D01*
X52745371Y-30361507D01*
X52582149Y-30239908D01*
X52458311Y-30146306D01*
X51966066Y-30146306D01*
X51952545Y-30214311D01*
X51942543Y-30246027D01*
X51906397Y-30353527D01*
X51879837Y-30404863D01*
X51853072Y-30404344D01*
X51816314Y-30356275D01*
X51789627Y-30313312D01*
X51745631Y-30216436D01*
X51711108Y-30097078D01*
X51703561Y-30056000D01*
X51691896Y-29965634D01*
X51694756Y-29925601D01*
X51715927Y-29923649D01*
X51740461Y-29936510D01*
X51805527Y-29980510D01*
X51884027Y-30041257D01*
X51891150Y-30047161D01*
X51948059Y-30100103D01*
X51966066Y-30146306D01*
X52458311Y-30146306D01*
X52451686Y-30141299D01*
X52359463Y-30069771D01*
X52310959Y-30029418D01*
X52304897Y-30022640D01*
X52306451Y-29995570D01*
X52320021Y-29933866D01*
X52346549Y-29834396D01*
X52386977Y-29694028D01*
X52442245Y-29509633D01*
X52513295Y-29278078D01*
X52601069Y-28996232D01*
X52706508Y-28660964D01*
X52830553Y-28269142D01*
X52859454Y-28178125D01*
X52934003Y-27943354D01*
X53016724Y-27682686D01*
X53100113Y-27419779D01*
X53176665Y-27178290D01*
X53219358Y-27043523D01*
X53275565Y-26871460D01*
X53323672Y-26733500D01*
X53064755Y-26733500D01*
X53059547Y-26761800D01*
X53036909Y-26839796D01*
X53000049Y-26957132D01*
X52952177Y-27103453D01*
X52924543Y-27185937D01*
X52822401Y-27492184D01*
X52707820Y-27842060D01*
X52586356Y-28218297D01*
X52463568Y-28603627D01*
X52345014Y-28980783D01*
X52293516Y-29146500D01*
X52222597Y-29375412D01*
X52167871Y-29550573D01*
X52126749Y-29678891D01*
X52096641Y-29767273D01*
X52074959Y-29822628D01*
X52059114Y-29851863D01*
X52046517Y-29861886D01*
X52034578Y-29859605D01*
X52027680Y-29855797D01*
X51981621Y-29825984D01*
X51905095Y-29773642D01*
X51855688Y-29739043D01*
X51779855Y-29678243D01*
X51736631Y-29617561D01*
X51724389Y-29543193D01*
X51741500Y-29441332D01*
X51786335Y-29298172D01*
X51799314Y-29261022D01*
X51831968Y-29173599D01*
X51867621Y-29092535D01*
X51912093Y-29008285D01*
X51971201Y-28911306D01*
X52050763Y-28792052D01*
X52156598Y-28640979D01*
X52294523Y-28448542D01*
X52294915Y-28448000D01*
X52393119Y-28304795D01*
X52475610Y-28171501D01*
X52540641Y-28053594D01*
X52586467Y-27956555D01*
X52611342Y-27885859D01*
X52613522Y-27846987D01*
X52591260Y-27845416D01*
X52542813Y-27886624D01*
X52466433Y-27976089D01*
X52430274Y-28023144D01*
X52346637Y-28129992D01*
X52242197Y-28257295D01*
X52138796Y-28378459D01*
X52133500Y-28384500D01*
X51916353Y-28647576D01*
X51737234Y-28897740D01*
X51600425Y-29128240D01*
X51510206Y-29332321D01*
X51489075Y-29401363D01*
X51476347Y-29435691D01*
X51453924Y-29443071D01*
X51408933Y-29419756D01*
X51328495Y-29361996D01*
X51312237Y-29349876D01*
X51153019Y-29231008D01*
X51254322Y-29089320D01*
X51306324Y-29025742D01*
X51395700Y-28926374D01*
X51514377Y-28799770D01*
X51654278Y-28654486D01*
X51807329Y-28499076D01*
X51879673Y-28426793D01*
X52092499Y-28213080D01*
X52260786Y-28038958D01*
X52387099Y-27901434D01*
X52474004Y-27797513D01*
X52524067Y-27724203D01*
X52539853Y-27678511D01*
X52534087Y-27663253D01*
X52503481Y-27674144D01*
X52439877Y-27721423D01*
X52354752Y-27796154D01*
X52315195Y-27833720D01*
X52207696Y-27932966D01*
X52068951Y-28053818D01*
X51918401Y-28179634D01*
X51800125Y-28274565D01*
X51641373Y-28405291D01*
X51467042Y-28558749D01*
X51302176Y-28712470D01*
X51209072Y-28804843D01*
X50935518Y-29086067D01*
X50836009Y-29002336D01*
X50765020Y-28922843D01*
X50736553Y-28846760D01*
X50736500Y-28843926D01*
X50748067Y-28772395D01*
X50774142Y-28754428D01*
X50801791Y-28793248D01*
X50810414Y-28825506D01*
X50842277Y-28898574D01*
X50892099Y-28939577D01*
X50942620Y-28938142D01*
X50963308Y-28917387D01*
X50983868Y-28864730D01*
X51009060Y-28773678D01*
X51024471Y-28706030D01*
X51045818Y-28611379D01*
X51061889Y-28570858D01*
X51078785Y-28576126D01*
X51096750Y-28607218D01*
X51143907Y-28668723D01*
X51189513Y-28666939D01*
X51227659Y-28612380D01*
X51278290Y-28555337D01*
X51322793Y-28536607D01*
X51368231Y-28513042D01*
X51400594Y-28448905D01*
X51419100Y-28376228D01*
X51439385Y-28288609D01*
X51455640Y-28254767D01*
X51475428Y-28266046D01*
X51492790Y-28291904D01*
X51527499Y-28337477D01*
X51560643Y-28332798D01*
X51595265Y-28303754D01*
X51643823Y-28233954D01*
X51675917Y-28142650D01*
X51676104Y-28141665D01*
X51701627Y-28053970D01*
X51732726Y-28014932D01*
X51763104Y-28030628D01*
X51771997Y-28049112D01*
X51811512Y-28096820D01*
X51866965Y-28088021D01*
X51932348Y-28025796D01*
X51988609Y-27938074D01*
X52039074Y-27849708D01*
X52071627Y-27809958D01*
X52096501Y-27810520D01*
X52117219Y-27833688D01*
X52155262Y-27871494D01*
X52195703Y-27858380D01*
X52214600Y-27843551D01*
X52261827Y-27786398D01*
X52313542Y-27698106D01*
X52330646Y-27662187D01*
X52372461Y-27582136D01*
X52409924Y-27533768D01*
X52422685Y-27527250D01*
X52458198Y-27505591D01*
X52522782Y-27449355D01*
X52603581Y-27371653D01*
X52687736Y-27285595D01*
X52762389Y-27204292D01*
X52814682Y-27140854D01*
X52832000Y-27109898D01*
X52809766Y-27081745D01*
X52753339Y-27086524D01*
X52678140Y-27117530D01*
X52599585Y-27168056D01*
X52533094Y-27231397D01*
X52523179Y-27244214D01*
X52462074Y-27294298D01*
X52407654Y-27316964D01*
X52340117Y-27352235D01*
X52261217Y-27418076D01*
X52233258Y-27447592D01*
X52165499Y-27514290D01*
X52107313Y-27554084D01*
X52089537Y-27559000D01*
X52040119Y-27580602D01*
X51973453Y-27634423D01*
X51953732Y-27654250D01*
X51879880Y-27715169D01*
X51808491Y-27747778D01*
X51793576Y-27749500D01*
X51734834Y-27770196D01*
X51662571Y-27820168D01*
X51598306Y-27881240D01*
X51563557Y-27935237D01*
X51562000Y-27945090D01*
X51534757Y-27966368D01*
X51469688Y-27986979D01*
X51389125Y-28021746D01*
X51298841Y-28084304D01*
X51271250Y-28108782D01*
X51183913Y-28185998D01*
X51097014Y-28253348D01*
X51076367Y-28267334D01*
X51001569Y-28332488D01*
X50951649Y-28403281D01*
X50911064Y-28457228D01*
X50873344Y-28465953D01*
X50821418Y-28466229D01*
X50752167Y-28486202D01*
X50693516Y-28515504D01*
X50672843Y-28540408D01*
X50654742Y-28575163D01*
X50610316Y-28636866D01*
X50599559Y-28650510D01*
X50537484Y-28712161D01*
X50480572Y-28725287D01*
X50456842Y-28719808D01*
X50402411Y-28691798D01*
X50387250Y-28669375D01*
X50390502Y-28666286D01*
X49943319Y-28666286D01*
X49937551Y-28687935D01*
X49923860Y-28705332D01*
X49862171Y-28753473D01*
X49810013Y-28762302D01*
X49784479Y-28729834D01*
X49784000Y-28721569D01*
X49761468Y-28677925D01*
X49703431Y-28611962D01*
X49649063Y-28561371D01*
X49560123Y-28484500D01*
X49503566Y-28433644D01*
X49463782Y-28393229D01*
X49425165Y-28347686D01*
X49386390Y-28299306D01*
X49304238Y-28222520D01*
X49208582Y-28166674D01*
X49195586Y-28161907D01*
X49123541Y-28131269D01*
X49086731Y-28102201D01*
X49085500Y-28097626D01*
X49060181Y-28067623D01*
X48994999Y-28020017D01*
X48934688Y-27983015D01*
X48824438Y-27913867D01*
X48718326Y-27838218D01*
X48679583Y-27807051D01*
X48608679Y-27752006D01*
X48555366Y-27720575D01*
X48544357Y-27717750D01*
X48504404Y-27697449D01*
X48439996Y-27646297D01*
X48410524Y-27619222D01*
X48316556Y-27540370D01*
X48215357Y-27470948D01*
X48196500Y-27460139D01*
X48074037Y-27391063D01*
X47980473Y-27330411D01*
X47887596Y-27258852D01*
X47819490Y-27201812D01*
X47723600Y-27131275D01*
X47640856Y-27090131D01*
X47582934Y-27082462D01*
X47561500Y-27111613D01*
X47583072Y-27149911D01*
X47640770Y-27218723D01*
X47724068Y-27307819D01*
X47822439Y-27406966D01*
X47925357Y-27505932D01*
X48022296Y-27594485D01*
X48102729Y-27662394D01*
X48156130Y-27699426D01*
X48169923Y-27703019D01*
X48212010Y-27718387D01*
X48270589Y-27776166D01*
X48301742Y-27817388D01*
X48363842Y-27896922D01*
X48414723Y-27931049D01*
X48469759Y-27931582D01*
X48534817Y-27934268D01*
X48581708Y-27982529D01*
X48594071Y-28004845D01*
X48644342Y-28077011D01*
X48714091Y-28149658D01*
X48784158Y-28205106D01*
X48833454Y-28225750D01*
X48861064Y-28199585D01*
X48871978Y-28170187D01*
X48889177Y-28155892D01*
X48921647Y-28198776D01*
X48956001Y-28267324D01*
X49012055Y-28366778D01*
X49067796Y-28429953D01*
X49114388Y-28449498D01*
X49141805Y-28421962D01*
X49170844Y-28386160D01*
X49213363Y-28412325D01*
X49269269Y-28500394D01*
X49279054Y-28519437D01*
X49350376Y-28648584D01*
X49407798Y-28721634D01*
X49455945Y-28743230D01*
X49487962Y-28729113D01*
X49525419Y-28705063D01*
X49548790Y-28718629D01*
X49567171Y-28780039D01*
X49576797Y-28829000D01*
X49584571Y-28907230D01*
X49560558Y-28955510D01*
X49497390Y-28999174D01*
X49426454Y-29031035D01*
X49378900Y-29034450D01*
X49374076Y-29030924D01*
X49343613Y-28994683D01*
X49284335Y-28923887D01*
X49208122Y-28832728D01*
X49194770Y-28816746D01*
X49095758Y-28710645D01*
X48966968Y-28589601D01*
X48831051Y-28474503D01*
X48784269Y-28438192D01*
X48666633Y-28343952D01*
X48521024Y-28218871D01*
X48363872Y-28077500D01*
X48211609Y-27934390D01*
X48172688Y-27896576D01*
X48049642Y-27778996D01*
X47945713Y-27685422D01*
X47867944Y-27621761D01*
X47823376Y-27593919D01*
X47815500Y-27596951D01*
X47837000Y-27658999D01*
X47895955Y-27754578D01*
X47984054Y-27873202D01*
X48092983Y-28004385D01*
X48214430Y-28137643D01*
X48340081Y-28262489D01*
X48351766Y-28273375D01*
X48551174Y-28459589D01*
X48735087Y-28634392D01*
X48898402Y-28792700D01*
X49036015Y-28929431D01*
X49142823Y-29039502D01*
X49213724Y-29117831D01*
X49243614Y-29159334D01*
X49244250Y-29162292D01*
X49219653Y-29197941D01*
X49153976Y-29258165D01*
X49059397Y-29332949D01*
X48948089Y-29412280D01*
X48907626Y-29439141D01*
X48879443Y-29422897D01*
X48840174Y-29347193D01*
X48791243Y-29214825D01*
X48787602Y-29203840D01*
X48707807Y-29001007D01*
X48601264Y-28803051D01*
X48460774Y-28599134D01*
X48279139Y-28378418D01*
X48132788Y-28217812D01*
X47999340Y-28078156D01*
X47902515Y-27982920D01*
X47837599Y-27928316D01*
X47799880Y-27910559D01*
X47784647Y-27925863D01*
X47783750Y-27937411D01*
X47800707Y-27973045D01*
X47847194Y-28050451D01*
X47916642Y-28159161D01*
X48002479Y-28288707D01*
X48027917Y-28326348D01*
X48166987Y-28531635D01*
X48275024Y-28692595D01*
X48356840Y-28817313D01*
X48417251Y-28913876D01*
X48461070Y-28990369D01*
X48493110Y-29054879D01*
X48518187Y-29115493D01*
X48541113Y-29180295D01*
X48547294Y-29198761D01*
X48584646Y-29340970D01*
X48603059Y-29475485D01*
X48603236Y-29533438D01*
X48592236Y-29615451D01*
X48564327Y-29673170D01*
X48505311Y-29727352D01*
X48438975Y-29773562D01*
X48354511Y-29828865D01*
X48294036Y-29866315D01*
X48273651Y-29876750D01*
X48261013Y-29848072D01*
X48232833Y-29768598D01*
X48192423Y-29648168D01*
X48143099Y-29496621D01*
X48099835Y-29360812D01*
X48049581Y-29202644D01*
X47983438Y-28995995D01*
X47905236Y-28752744D01*
X47818803Y-28484771D01*
X47727969Y-28203956D01*
X47636563Y-27922177D01*
X47587424Y-27771068D01*
X47507053Y-27522638D01*
X47433951Y-27293760D01*
X47370245Y-27091318D01*
X47318060Y-26922191D01*
X47279520Y-26793262D01*
X47256752Y-26711412D01*
X47251572Y-26683595D01*
X47282049Y-26693488D01*
X47346355Y-26733342D01*
X47405432Y-26775809D01*
X47501342Y-26847425D01*
X47640621Y-26950297D01*
X47815154Y-27078509D01*
X48016827Y-27226146D01*
X48237525Y-27387291D01*
X48469133Y-27556030D01*
X48703537Y-27726446D01*
X48932623Y-27892625D01*
X49148275Y-28048649D01*
X49342380Y-28188605D01*
X49412843Y-28239245D01*
X49597187Y-28371932D01*
X49735516Y-28473044D01*
X49833561Y-28547807D01*
X49897056Y-28601450D01*
X49931731Y-28639200D01*
X49943319Y-28666286D01*
X50390502Y-28666286D01*
X50412318Y-28645569D01*
X50483966Y-28589114D01*
X50596866Y-28503931D01*
X50745687Y-28393943D01*
X50925100Y-28263072D01*
X51129775Y-28115241D01*
X51354381Y-27954372D01*
X51490563Y-27857437D01*
X51734842Y-27683770D01*
X51971444Y-27515229D01*
X52193479Y-27356745D01*
X52394058Y-27213251D01*
X52566291Y-27089678D01*
X52703288Y-26990956D01*
X52798160Y-26922018D01*
X52823059Y-26903672D01*
X52925698Y-26828425D01*
X53007579Y-26770207D01*
X53056555Y-26737570D01*
X53064755Y-26733500D01*
X53323672Y-26733500D01*
X53327465Y-26722625D01*
X53371397Y-26606746D01*
X53403699Y-26533550D01*
X53419375Y-26512155D01*
X53462260Y-26533449D01*
X53540364Y-26591785D01*
X53644503Y-26678813D01*
X53765495Y-26786182D01*
X53894156Y-26905540D01*
X54021301Y-27028536D01*
X54137747Y-27146819D01*
X54234310Y-27252039D01*
X54239127Y-27257587D01*
X54597201Y-27719499D01*
X54901017Y-28213918D01*
X55149873Y-28739236D01*
X55343069Y-29293848D01*
X55479904Y-29876147D01*
X55533177Y-30226000D01*
X55552989Y-30477865D01*
X55557196Y-30767060D01*
X55910034Y-30767060D01*
X55908892Y-30614544D01*
X55890682Y-30271667D01*
X55857478Y-29950139D01*
X55809913Y-29669127D01*
X55803176Y-29638625D01*
X55634353Y-29025611D01*
X55415975Y-28452102D01*
X55148259Y-27918386D01*
X54831420Y-27424746D01*
X54465675Y-26971471D01*
X54051238Y-26558844D01*
X53785937Y-26345822D01*
X53181250Y-26345822D01*
X53174976Y-26358781D01*
X53152914Y-26381335D01*
X53110206Y-26417122D01*
X53041994Y-26469778D01*
X52943418Y-26542940D01*
X52809621Y-26640247D01*
X52635744Y-26765334D01*
X52416929Y-26921840D01*
X52308125Y-26999480D01*
X51918919Y-27276899D01*
X51578181Y-27519351D01*
X51282837Y-27728956D01*
X51029812Y-27907835D01*
X50816029Y-28058107D01*
X50638415Y-28181893D01*
X50493894Y-28281311D01*
X50379390Y-28358483D01*
X50291828Y-28415529D01*
X50228133Y-28454567D01*
X50185230Y-28477719D01*
X50160043Y-28487104D01*
X50151072Y-28486478D01*
X50111088Y-28459038D01*
X50032786Y-28403740D01*
X49929322Y-28329909D01*
X49862364Y-28281835D01*
X49753178Y-28203207D01*
X49606368Y-28097394D01*
X49435788Y-27974387D01*
X49255295Y-27844177D01*
X49101375Y-27733094D01*
X48926894Y-27607558D01*
X48715414Y-27456062D01*
X48481832Y-27289238D01*
X48241047Y-27117717D01*
X48007956Y-26952132D01*
X47888349Y-26867383D01*
X47702782Y-26734948D01*
X47535418Y-26613404D01*
X47392970Y-26507798D01*
X47282149Y-26423174D01*
X47209668Y-26364578D01*
X47182241Y-26337054D01*
X47182173Y-26336625D01*
X47208888Y-26303417D01*
X47284070Y-26250002D01*
X47397952Y-26181492D01*
X47540769Y-26102999D01*
X47702752Y-26019635D01*
X47874136Y-25936513D01*
X48045153Y-25858743D01*
X48206037Y-25791439D01*
X48272445Y-25765959D01*
X48722665Y-25618587D01*
X49163371Y-25516246D01*
X49614543Y-25455439D01*
X50096159Y-25432666D01*
X50178109Y-25432319D01*
X50525711Y-25440241D01*
X50841307Y-25465300D01*
X51144683Y-25510756D01*
X51455623Y-25579869D01*
X51793915Y-25675900D01*
X51943000Y-25723124D01*
X52083384Y-25773607D01*
X52245529Y-25839873D01*
X52419775Y-25917064D01*
X52596464Y-26000322D01*
X52765933Y-26084788D01*
X52918525Y-26165606D01*
X53044579Y-26237918D01*
X53134435Y-26296865D01*
X53178433Y-26337589D01*
X53181250Y-26345822D01*
X53785937Y-26345822D01*
X53588327Y-26187153D01*
X53077156Y-25856683D01*
X52856079Y-25734440D01*
X52537150Y-25575530D01*
X52239323Y-25449095D01*
X51936665Y-25344948D01*
X51679917Y-25272466D01*
X51075983Y-25143508D01*
X50485364Y-25075585D01*
X49903531Y-25068792D01*
X49325956Y-25123222D01*
G37*
X49325956Y-25123222D02*
X48748112Y-25238970D01*
X48390823Y-25340590D01*
X48075936Y-25455628D01*
X47737140Y-25606754D01*
X47391456Y-25784602D01*
X47055905Y-25979809D01*
X46747510Y-26183010D01*
X46483293Y-26384843D01*
X46465905Y-26399517D01*
X46047983Y-26791887D01*
X45668568Y-27223176D01*
X45335165Y-27683737D01*
X45055278Y-28163927D01*
X44989076Y-28297329D01*
X44761225Y-28846237D01*
X44592889Y-29410657D01*
X44483725Y-29985683D01*
X44433392Y-30566407D01*
X44441549Y-31147924D01*
X44507854Y-31725327D01*
X44631966Y-32293708D01*
X44813545Y-32848160D01*
X45052247Y-33383778D01*
X45347732Y-33895654D01*
X45382170Y-33948021D01*
X45742145Y-34432694D01*
X46145583Y-34872612D01*
X46588907Y-35265675D01*
X47068542Y-35609785D01*
X47580911Y-35902843D01*
X48122439Y-36142749D01*
X48689548Y-36327405D01*
X49278663Y-36454712D01*
X49752250Y-36512940D01*
X49957945Y-36528560D01*
X50124557Y-36536662D01*
X50276066Y-36537184D01*
X50436452Y-36530064D01*
X50629692Y-36515237D01*
X50683931Y-36510498D01*
X51278124Y-36426614D01*
X51856200Y-36282872D01*
X52160231Y-36172967D01*
X50071891Y-36172967D01*
X49771002Y-36153203D01*
X49596637Y-36136778D01*
X49396033Y-36110369D01*
X49204691Y-36078832D01*
X49150768Y-36068360D01*
X48584465Y-35921915D01*
X48043393Y-35720071D01*
X47531170Y-35465872D01*
X47051415Y-35162362D01*
X46607748Y-34812585D01*
X46203789Y-34419588D01*
X45843155Y-33986412D01*
X45529467Y-33516104D01*
X45266344Y-33011707D01*
X45131893Y-32687732D01*
X45093637Y-32582139D01*
X45067859Y-32503213D01*
X45059511Y-32466259D01*
X45059939Y-32465354D01*
X45092453Y-32464437D01*
X45182935Y-32464165D01*
X45325857Y-32464501D01*
X45515692Y-32465413D01*
X45746912Y-32466865D01*
X46013989Y-32468822D01*
X46311394Y-32471250D01*
X46633601Y-32474114D01*
X46970453Y-32477334D01*
X48871780Y-32496125D01*
X48959314Y-32766000D01*
X48987668Y-32853591D01*
X49033000Y-32993841D01*
X49092797Y-33178972D01*
X49164549Y-33401206D01*
X49245744Y-33652765D01*
X49333873Y-33925872D01*
X49426424Y-34212749D01*
X49482065Y-34385250D01*
X49575428Y-34674257D01*
X49665457Y-34952073D01*
X49749723Y-35211260D01*
X49825793Y-35444377D01*
X49891238Y-35643985D01*
X49943625Y-35802643D01*
X49980525Y-35912912D01*
X49994587Y-35953796D01*
X50071891Y-36172967D01*
X52160231Y-36172967D01*
X52413711Y-36081336D01*
X52946210Y-35824067D01*
X53449248Y-35513129D01*
X53918377Y-35150583D01*
X54221206Y-34870195D01*
X54631910Y-34419885D01*
X54984984Y-33944115D01*
X55281404Y-33440936D01*
X55522146Y-32908396D01*
X55652915Y-32512060D01*
X55276750Y-32512060D01*
X55263581Y-32567532D01*
X55227662Y-32667344D01*
X55174378Y-32798905D01*
X55109112Y-32949628D01*
X55037249Y-33106923D01*
X54964171Y-33258202D01*
X54923731Y-33337500D01*
X54646901Y-33800355D01*
X54316469Y-34235942D01*
X53938363Y-34639098D01*
X53518510Y-35004659D01*
X53062836Y-35327464D01*
X52577268Y-35602350D01*
X52070000Y-35823308D01*
X51706480Y-35945320D01*
X51339247Y-36043183D01*
X50984268Y-36113454D01*
X50657504Y-36152696D01*
X50509432Y-36159610D01*
X50298238Y-36163250D01*
X50498953Y-35552062D01*
X50555510Y-35379644D01*
X50628064Y-35158144D01*
X50712924Y-34898850D01*
X50806397Y-34613050D01*
X50904792Y-34312033D01*
X51004416Y-34007086D01*
X51101356Y-33710179D01*
X51490285Y-32518573D01*
X51212750Y-32518573D01*
X51202787Y-32559464D01*
X51173175Y-32659290D01*
X51124337Y-32816738D01*
X51056693Y-33030497D01*
X50970663Y-33299256D01*
X50866669Y-33621702D01*
X50745130Y-33996524D01*
X50606468Y-34422411D01*
X50451102Y-34898052D01*
X50377336Y-35123437D01*
X50316772Y-35305714D01*
X50262035Y-35465433D01*
X50216390Y-35593471D01*
X50183099Y-35680708D01*
X50165428Y-35718021D01*
X50164292Y-35718750D01*
X50146080Y-35691031D01*
X50115026Y-35618021D01*
X50077546Y-35514939D01*
X50073986Y-35504437D01*
X50036942Y-35392953D01*
X49986412Y-35238599D01*
X49924636Y-35048397D01*
X49853857Y-34829369D01*
X49776315Y-34588536D01*
X49694253Y-34332919D01*
X49609910Y-34069540D01*
X49525529Y-33805421D01*
X49443351Y-33547583D01*
X49365618Y-33303048D01*
X49294570Y-33078837D01*
X49232449Y-32881971D01*
X49181497Y-32719473D01*
X49143954Y-32598364D01*
X49122063Y-32525665D01*
X49117250Y-32507274D01*
X49142625Y-32482493D01*
X49159387Y-32480250D01*
X49190170Y-32510974D01*
X49220622Y-32599111D01*
X49239522Y-32686469D01*
X49269848Y-32818674D01*
X49315014Y-32978263D01*
X49366008Y-33133768D01*
X49373598Y-33154782D01*
X49423967Y-33298026D01*
X49470675Y-33440922D01*
X49505094Y-33556855D01*
X49510040Y-33575625D01*
X49565233Y-33740360D01*
X49637286Y-33850775D01*
X49734469Y-33915465D01*
X49863375Y-33942891D01*
X49948257Y-33944999D01*
X49974626Y-33929414D01*
X49943622Y-33891247D01*
X49885811Y-33846602D01*
X49770223Y-33726596D01*
X49702669Y-33576246D01*
X49688928Y-33469436D01*
X49679130Y-33423104D01*
X49652783Y-33331302D01*
X49614223Y-33208527D01*
X49579718Y-33104311D01*
X49531179Y-32952421D01*
X49489001Y-32805223D01*
X49458995Y-32683773D01*
X49449113Y-32631062D01*
X49427540Y-32480250D01*
X49542270Y-32480250D01*
X49618852Y-32485540D01*
X49651295Y-32510962D01*
X49658639Y-32567562D01*
X49672427Y-32647042D01*
X49706448Y-32761133D01*
X49752762Y-32887533D01*
X49803434Y-33003942D01*
X49835633Y-33064844D01*
X49885087Y-33107179D01*
X49920442Y-33106237D01*
X49947065Y-33087886D01*
X49953842Y-33050087D01*
X49941400Y-32976409D01*
X49927621Y-32918769D01*
X49898775Y-32791336D01*
X49873921Y-32662751D01*
X49866070Y-32614070D01*
X49846393Y-32478016D01*
X50172384Y-32487070D01*
X50498375Y-32496125D01*
X50488771Y-32647671D01*
X50472115Y-32773913D01*
X50442564Y-32900459D01*
X50433208Y-32929475D01*
X50399761Y-33031163D01*
X50390843Y-33087204D01*
X50407135Y-33110802D01*
X50442813Y-33115217D01*
X50494352Y-33086975D01*
X50553107Y-33012631D01*
X50610870Y-32907681D01*
X50659432Y-32787621D01*
X50690582Y-32667948D01*
X50694704Y-32639756D01*
X50713595Y-32480250D01*
X50836173Y-32480250D01*
X50918959Y-32486848D01*
X50954192Y-32511231D01*
X50958750Y-32536450D01*
X50947751Y-32617105D01*
X50918634Y-32737587D01*
X50877224Y-32878909D01*
X50829343Y-33022083D01*
X50780816Y-33148121D01*
X50751484Y-33212258D01*
X50699152Y-33345969D01*
X50673903Y-33475595D01*
X50673000Y-33499384D01*
X50649356Y-33641385D01*
X50585887Y-33767187D01*
X50493795Y-33856672D01*
X50465615Y-33871933D01*
X50411744Y-33913120D01*
X50410131Y-33952211D01*
X50460023Y-33972192D01*
X50470076Y-33972500D01*
X50572593Y-33943905D01*
X50673228Y-33868639D01*
X50758598Y-33762483D01*
X50815318Y-33641214D01*
X50831053Y-33546938D01*
X50844580Y-33485741D01*
X50878665Y-33392280D01*
X50910014Y-33321067D01*
X50953848Y-33216426D01*
X51002775Y-33080967D01*
X51051693Y-32931343D01*
X51095500Y-32784207D01*
X51129092Y-32656215D01*
X51147369Y-32564021D01*
X51149250Y-32540198D01*
X51163248Y-32490565D01*
X51181000Y-32480250D01*
X51210740Y-32505186D01*
X51212750Y-32518573D01*
X51490285Y-32518573D01*
X51503044Y-32479484D01*
X53389897Y-32480754D01*
X53792594Y-32481522D01*
X54153527Y-32483226D01*
X54469705Y-32485815D01*
X54738135Y-32489239D01*
X54955826Y-32493450D01*
X55119786Y-32498398D01*
X55227023Y-32504032D01*
X55274545Y-32510303D01*
X55276750Y-32512060D01*
X55652915Y-32512060D01*
X55708186Y-32344545D01*
X55726246Y-32263038D01*
X54911625Y-32263038D01*
X54886762Y-32268601D01*
X54805450Y-32273292D01*
X54674734Y-32277135D01*
X54501659Y-32280155D01*
X54293271Y-32282377D01*
X54056614Y-32283828D01*
X53798733Y-32284531D01*
X53526673Y-32284512D01*
X53247480Y-32283796D01*
X52968197Y-32282408D01*
X52695871Y-32280374D01*
X52437546Y-32277719D01*
X52200266Y-32274468D01*
X51991078Y-32270645D01*
X51817026Y-32266277D01*
X51685155Y-32261388D01*
X51602510Y-32256003D01*
X51576291Y-32251123D01*
X51578562Y-32216586D01*
X51597600Y-32140659D01*
X51601851Y-32126529D01*
X51339750Y-32126529D01*
X51322100Y-32203007D01*
X51279533Y-32251674D01*
X51255862Y-32258000D01*
X51227095Y-32245601D01*
X51242051Y-32199099D01*
X51243554Y-32196268D01*
X51284041Y-32137921D01*
X51320986Y-32109428D01*
X51339479Y-32121600D01*
X51339750Y-32126529D01*
X51601851Y-32126529D01*
X51627650Y-32040779D01*
X51662956Y-31934381D01*
X51697763Y-31838900D01*
X51726315Y-31771773D01*
X51741713Y-31750000D01*
X51768244Y-31771647D01*
X51821003Y-31826533D01*
X51852010Y-31861125D01*
X51924471Y-31927406D01*
X51994688Y-31966240D01*
X52048059Y-31972401D01*
X52069981Y-31940663D01*
X52070000Y-31939137D01*
X52052054Y-31898449D01*
X52005125Y-31824358D01*
X51943000Y-31737815D01*
X51860100Y-31614287D01*
X51821561Y-31516120D01*
X51822760Y-31428273D01*
X51835272Y-31387471D01*
X51852516Y-31356013D01*
X51880922Y-31342708D01*
X51931434Y-31349481D01*
X52014990Y-31378254D01*
X52142532Y-31430951D01*
X52184305Y-31448833D01*
X52489042Y-31552039D01*
X52705778Y-31593228D01*
X52922717Y-31634706D01*
X53150564Y-31702275D01*
X53237375Y-31734879D01*
X53358860Y-31780990D01*
X53458487Y-31813458D01*
X53521593Y-31827754D01*
X53534771Y-31826735D01*
X53560717Y-31787349D01*
X53533098Y-31730281D01*
X53461655Y-31660637D01*
X53326403Y-31557367D01*
X53189979Y-31481157D01*
X53033030Y-31423582D01*
X52836201Y-31376218D01*
X52785516Y-31366310D01*
X52558842Y-31319690D01*
X52382123Y-31274013D01*
X52242034Y-31224918D01*
X52125251Y-31168044D01*
X52063019Y-31129822D01*
X51990085Y-31075475D01*
X51963012Y-31031948D01*
X51970941Y-30981509D01*
X51971406Y-30980244D01*
X51992784Y-30934009D01*
X52022174Y-30915908D01*
X52074342Y-30926032D01*
X52164057Y-30964473D01*
X52200780Y-30981673D01*
X52296905Y-31020422D01*
X52432334Y-31066677D01*
X52584650Y-31113013D01*
X52661155Y-31134162D01*
X52857305Y-31190023D01*
X53019215Y-31247206D01*
X53161460Y-31314013D01*
X53298616Y-31398744D01*
X53445261Y-31509698D01*
X53615969Y-31655177D01*
X53686847Y-31718250D01*
X53809396Y-31823226D01*
X53937122Y-31924709D01*
X54048381Y-32005738D01*
X54080970Y-32027095D01*
X54175423Y-32089223D01*
X54214399Y-32121921D01*
X54199025Y-32124538D01*
X54130429Y-32096422D01*
X54038500Y-32051625D01*
X53938268Y-32006779D01*
X53851408Y-31978001D01*
X53815219Y-31972250D01*
X53729850Y-31956958D01*
X53688858Y-31940290D01*
X53633587Y-31927170D01*
X53598299Y-31963441D01*
X53571789Y-31999664D01*
X53540932Y-31992389D01*
X53503629Y-31960789D01*
X53421378Y-31919579D01*
X53372238Y-31924470D01*
X53306123Y-31923881D01*
X53236719Y-31872401D01*
X53228604Y-31863832D01*
X53156137Y-31803493D01*
X53095341Y-31783663D01*
X53059120Y-31806577D01*
X53054250Y-31833656D01*
X53043970Y-31856316D01*
X53009529Y-31827547D01*
X52988446Y-31801906D01*
X52920341Y-31739272D01*
X52856770Y-31718658D01*
X52812303Y-31741130D01*
X52800250Y-31788129D01*
X52823499Y-31846037D01*
X52884010Y-31927929D01*
X52967929Y-32020115D01*
X53061401Y-32108903D01*
X53150574Y-32180603D01*
X53221593Y-32221523D01*
X53243583Y-32226250D01*
X53299249Y-32211547D01*
X53298667Y-32172235D01*
X53260625Y-32131000D01*
X53215209Y-32081368D01*
X53220425Y-32059759D01*
X53266959Y-32073258D01*
X53305214Y-32097088D01*
X53381685Y-32141675D01*
X53444753Y-32162538D01*
X53449206Y-32162750D01*
X53512874Y-32179441D01*
X53578997Y-32213865D01*
X53644524Y-32242093D01*
X53703865Y-32246525D01*
X53739687Y-32230310D01*
X53734655Y-32196596D01*
X53726310Y-32187109D01*
X53689205Y-32138610D01*
X53699656Y-32122954D01*
X53748953Y-32143545D01*
X53781482Y-32165538D01*
X53856743Y-32205356D01*
X53913235Y-32208028D01*
X53936769Y-32175638D01*
X53930536Y-32143663D01*
X53923879Y-32107804D01*
X53949218Y-32105684D01*
X54014365Y-32138732D01*
X54062499Y-32167770D01*
X54172290Y-32215637D01*
X54319734Y-32242583D01*
X54399622Y-32248781D01*
X54553861Y-32250445D01*
X54654392Y-32236155D01*
X54698574Y-32206833D01*
X54687155Y-32173333D01*
X54408917Y-32173333D01*
X54404559Y-32192208D01*
X54387750Y-32194500D01*
X54361617Y-32182883D01*
X54366584Y-32173333D01*
X54404264Y-32169533D01*
X54408917Y-32173333D01*
X54687155Y-32173333D01*
X54683769Y-32163401D01*
X54673500Y-32153105D01*
X54616932Y-32117512D01*
X54525348Y-32075087D01*
X54467125Y-32052564D01*
X54355314Y-32008861D01*
X54255480Y-31959511D01*
X54156983Y-31896783D01*
X54049185Y-31812948D01*
X53921446Y-31700274D01*
X53763127Y-31551031D01*
X53721000Y-31510461D01*
X53543743Y-31342825D01*
X53397006Y-31214439D01*
X53268582Y-31117579D01*
X53146265Y-31044519D01*
X53017851Y-30987532D01*
X52871132Y-30938893D01*
X52775974Y-30912301D01*
X52637726Y-30871276D01*
X52488899Y-30820616D01*
X52345012Y-30766354D01*
X52340436Y-30764432D01*
X51778842Y-30764432D01*
X51758160Y-30818503D01*
X51709079Y-30870453D01*
X51658203Y-30942489D01*
X51602655Y-31062975D01*
X51551275Y-31210250D01*
X51487236Y-31387977D01*
X51405182Y-31569621D01*
X51313097Y-31741013D01*
X51218963Y-31887981D01*
X51130763Y-31996354D01*
X51086590Y-32035151D01*
X51010217Y-32114084D01*
X50990500Y-32180786D01*
X50983864Y-32229289D01*
X50952435Y-32251724D01*
X50878939Y-32257864D01*
X50854004Y-32258000D01*
X50766053Y-32253356D01*
X50718232Y-32230005D01*
X50687334Y-32173818D01*
X50678969Y-32151424D01*
X50624393Y-32044485D01*
X50556237Y-31973153D01*
X50486549Y-31948519D01*
X50463578Y-31953150D01*
X50431393Y-31978538D01*
X50422176Y-32032088D01*
X50430038Y-32115751D01*
X50449536Y-32258000D01*
X49903934Y-32258000D01*
X49922817Y-32154812D01*
X49928049Y-32047503D01*
X49902235Y-31986906D01*
X49855196Y-31971128D01*
X49796750Y-31998279D01*
X49736717Y-32066466D01*
X49684918Y-32173797D01*
X49675614Y-32202437D01*
X49638191Y-32244234D01*
X49553039Y-32257966D01*
X49546872Y-32258000D01*
X49470734Y-32251692D01*
X49469698Y-32250812D01*
X49129658Y-32250812D01*
X49104093Y-32253908D01*
X49097842Y-32252791D01*
X49049276Y-32218236D01*
X49048190Y-32216539D01*
X48768000Y-32216539D01*
X48757550Y-32225922D01*
X48723239Y-32233848D01*
X48660631Y-32240430D01*
X48565288Y-32245774D01*
X48432773Y-32249992D01*
X48258647Y-32253191D01*
X48038474Y-32255482D01*
X47767815Y-32256974D01*
X47442234Y-32257777D01*
X47085250Y-32258000D01*
X46765098Y-32257564D01*
X46464946Y-32256313D01*
X46190626Y-32254328D01*
X45947969Y-32251693D01*
X45742806Y-32248490D01*
X45580969Y-32244802D01*
X45468289Y-32240711D01*
X45410597Y-32236299D01*
X45404129Y-32234187D01*
X45429305Y-32209216D01*
X45498461Y-32153781D01*
X45603622Y-32073925D01*
X45736815Y-31975696D01*
X45890064Y-31865139D01*
X45904192Y-31855060D01*
X46091431Y-31721392D01*
X46311927Y-31563675D01*
X46547423Y-31394987D01*
X46779661Y-31228406D01*
X46990140Y-31077185D01*
X47162969Y-30952943D01*
X47321801Y-30838882D01*
X47458248Y-30741016D01*
X47563923Y-30665357D01*
X47630439Y-30617920D01*
X47645909Y-30607000D01*
X47703977Y-30566041D01*
X47795731Y-30500853D01*
X47903233Y-30424184D01*
X47924522Y-30408968D01*
X48028352Y-30335705D01*
X48092481Y-30295751D01*
X48128644Y-30285174D01*
X48148572Y-30300044D01*
X48161451Y-30329593D01*
X48200065Y-30440858D01*
X48214075Y-30509398D01*
X48205199Y-30550276D01*
X48188718Y-30568533D01*
X48147587Y-30592431D01*
X48058858Y-30637668D01*
X47932717Y-30699258D01*
X47779353Y-30772216D01*
X47635111Y-30839484D01*
X47402443Y-30948978D01*
X47215926Y-31042476D01*
X47062916Y-31127978D01*
X46930771Y-31213481D01*
X46806848Y-31306983D01*
X46678505Y-31416481D01*
X46577594Y-31508480D01*
X46297851Y-31744734D01*
X46021189Y-31929431D01*
X45821851Y-32033239D01*
X45732194Y-32081256D01*
X45672145Y-32125555D01*
X45656500Y-32149511D01*
X45684479Y-32179480D01*
X45753875Y-32204480D01*
X45775563Y-32208752D01*
X45910576Y-32208939D01*
X46082165Y-32169205D01*
X46295597Y-32088317D01*
X46302061Y-32085519D01*
X46378086Y-32054023D01*
X46409572Y-32049863D01*
X46410045Y-32074673D01*
X46403109Y-32097728D01*
X46399486Y-32148710D01*
X46441892Y-32162745D01*
X46443347Y-32162750D01*
X46502597Y-32144104D01*
X46588151Y-32097471D01*
X46678641Y-32036810D01*
X46752697Y-31976078D01*
X46783635Y-31940484D01*
X46795438Y-31897037D01*
X46760135Y-31889068D01*
X46684218Y-31918006D01*
X46683389Y-31918429D01*
X46602716Y-31946656D01*
X46541948Y-31931623D01*
X46538962Y-31929753D01*
X46489838Y-31914991D01*
X46417556Y-31927763D01*
X46319010Y-31965008D01*
X46217191Y-32004078D01*
X46155919Y-32020067D01*
X46140491Y-32013652D01*
X46176204Y-31985511D01*
X46232987Y-31954010D01*
X46305890Y-31913361D01*
X46386688Y-31861076D01*
X46485194Y-31790040D01*
X46611221Y-31693139D01*
X46774581Y-31563256D01*
X46799695Y-31543077D01*
X47028530Y-31382319D01*
X47241592Y-31280396D01*
X47244195Y-31279483D01*
X47400637Y-31221246D01*
X47582241Y-31147924D01*
X47771296Y-31067227D01*
X47950092Y-30986869D01*
X48100918Y-30914561D01*
X48188431Y-30868324D01*
X48274060Y-30824705D01*
X48320132Y-30816373D01*
X48336448Y-30834247D01*
X48354736Y-30892305D01*
X48381558Y-30976529D01*
X48384204Y-30984800D01*
X48407059Y-31058840D01*
X48418460Y-31100948D01*
X48418750Y-31103217D01*
X48393288Y-31122526D01*
X48329022Y-31159050D01*
X48293357Y-31177680D01*
X48164527Y-31225905D01*
X47978209Y-31267993D01*
X47732148Y-31304391D01*
X47561500Y-31323039D01*
X47400472Y-31356816D01*
X47244309Y-31418832D01*
X47230811Y-31426034D01*
X47119488Y-31496923D01*
X47047834Y-31560919D01*
X47016968Y-31610822D01*
X47028007Y-31639433D01*
X47082071Y-31639553D01*
X47180277Y-31603983D01*
X47205010Y-31592104D01*
X47299389Y-31552419D01*
X47400809Y-31528073D01*
X47530302Y-31515184D01*
X47644254Y-31511002D01*
X47926129Y-31491983D01*
X48159851Y-31449257D01*
X48340284Y-31383863D01*
X48378902Y-31362633D01*
X48481929Y-31300519D01*
X48513840Y-31384451D01*
X48536650Y-31454527D01*
X48539264Y-31512242D01*
X48517125Y-31576518D01*
X48465676Y-31666274D01*
X48433813Y-31716778D01*
X48376919Y-31809730D01*
X48337085Y-31881775D01*
X48323500Y-31915216D01*
X48344887Y-31942717D01*
X48397610Y-31935412D01*
X48464516Y-31899493D01*
X48528358Y-31841263D01*
X48582299Y-31782326D01*
X48617030Y-31753999D01*
X48621890Y-31753950D01*
X48639511Y-31793159D01*
X48668133Y-31873749D01*
X48701523Y-31975984D01*
X48733447Y-32080131D01*
X48757671Y-32166452D01*
X48767962Y-32215214D01*
X48768000Y-32216539D01*
X49048190Y-32216539D01*
X49004351Y-32148085D01*
X49000421Y-32138937D01*
X48976432Y-32063663D01*
X48984083Y-32039949D01*
X49018840Y-32067162D01*
X49076174Y-32144670D01*
X49079644Y-32149996D01*
X49122212Y-32220154D01*
X49129658Y-32250812D01*
X49469698Y-32250812D01*
X49439428Y-32225117D01*
X49434506Y-32186562D01*
X49409286Y-32120954D01*
X49329459Y-32055755D01*
X49307839Y-32042931D01*
X49211069Y-31962183D01*
X49104148Y-31828200D01*
X48992406Y-31649333D01*
X48881173Y-31433930D01*
X48796696Y-31242278D01*
X48745274Y-31125860D01*
X48696631Y-31030850D01*
X48659622Y-30974196D01*
X48653494Y-30968220D01*
X48616896Y-30918305D01*
X48575651Y-30832249D01*
X48557409Y-30783666D01*
X48528847Y-30692817D01*
X48523647Y-30638293D01*
X48543185Y-30596844D01*
X48570335Y-30565320D01*
X48656249Y-30444006D01*
X48737243Y-30280056D01*
X48804198Y-30094198D01*
X48835224Y-29970808D01*
X48609250Y-29970808D01*
X48598132Y-30024713D01*
X48570086Y-30107971D01*
X48533073Y-30201315D01*
X48495057Y-30285474D01*
X48464000Y-30341178D01*
X48451325Y-30353000D01*
X48424108Y-30326264D01*
X48393007Y-30261086D01*
X48390106Y-30253012D01*
X48362246Y-30158208D01*
X48367280Y-30097929D01*
X48412682Y-30048510D01*
X48454759Y-30019625D01*
X48069017Y-30019625D01*
X48044494Y-30053163D01*
X47981239Y-30104723D01*
X47928524Y-30140366D01*
X47847571Y-30194115D01*
X47731135Y-30274774D01*
X47594752Y-30371445D01*
X47453956Y-30473230D01*
X47453258Y-30473741D01*
X47309698Y-30578166D01*
X47167989Y-30680397D01*
X47044728Y-30768509D01*
X46958433Y-30829250D01*
X46915074Y-30859340D01*
X46872899Y-30888830D01*
X46826637Y-30921531D01*
X46771015Y-30961257D01*
X46700760Y-31011822D01*
X46610601Y-31077040D01*
X46495266Y-31160723D01*
X46349481Y-31266685D01*
X46167975Y-31398740D01*
X45945476Y-31560701D01*
X45688250Y-31747979D01*
X45509541Y-31877223D01*
X45346853Y-31993215D01*
X45207461Y-32090901D01*
X45098641Y-32165231D01*
X45027667Y-32211150D01*
X45002740Y-32224066D01*
X44977303Y-32197100D01*
X44948706Y-32125401D01*
X44931266Y-32059562D01*
X44869792Y-31718269D01*
X44826847Y-31344924D01*
X44803211Y-30958614D01*
X44799661Y-30578429D01*
X44816977Y-30223456D01*
X44846137Y-29972000D01*
X44965593Y-29399291D01*
X45143335Y-28851630D01*
X45379082Y-28329525D01*
X45672552Y-27833488D01*
X46023462Y-27364028D01*
X46431532Y-26921656D01*
X46636975Y-26728648D01*
X46741038Y-26637699D01*
X46829308Y-26565450D01*
X46890330Y-26520998D01*
X46910532Y-26511292D01*
X46929128Y-26540187D01*
X46963102Y-26620960D01*
X47009210Y-26744779D01*
X47064210Y-26902813D01*
X47124858Y-27086231D01*
X47146641Y-27154229D01*
X47207475Y-27344656D01*
X47283911Y-27582289D01*
X47371704Y-27854017D01*
X47466604Y-28146727D01*
X47564365Y-28447309D01*
X47660738Y-28742651D01*
X47709777Y-28892500D01*
X47792037Y-29144399D01*
X47867681Y-29377609D01*
X47934489Y-29585172D01*
X47990245Y-29760128D01*
X48032730Y-29895518D01*
X48059726Y-29984382D01*
X48069017Y-30019625D01*
X48454759Y-30019625D01*
X48466323Y-30011687D01*
X48549124Y-29960604D01*
X48592354Y-29943148D01*
X48608007Y-29955887D01*
X48609250Y-29970808D01*
X48835224Y-29970808D01*
X48839670Y-29953130D01*
X48862453Y-29846505D01*
X48887162Y-29772947D01*
X48925732Y-29715030D01*
X48990097Y-29655332D01*
X49092192Y-29576429D01*
X49103578Y-29567836D01*
X49207137Y-29492632D01*
X49293871Y-29435023D01*
X49349855Y-29404053D01*
X49360221Y-29401149D01*
X49386521Y-29428949D01*
X49422061Y-29502902D01*
X49459701Y-29607810D01*
X49464322Y-29622750D01*
X49504204Y-29742443D01*
X49537890Y-29811434D01*
X49572096Y-29841194D01*
X49594414Y-29845000D01*
X49634203Y-29834925D01*
X49652596Y-29793877D01*
X49657000Y-29707780D01*
X49645903Y-29590321D01*
X49618087Y-29460498D01*
X49605560Y-29419591D01*
X49554119Y-29268620D01*
X49661122Y-29177100D01*
X49740280Y-29112675D01*
X49786055Y-29090625D01*
X49811847Y-29110389D01*
X49830701Y-29169994D01*
X49873277Y-29261763D01*
X49937845Y-29303388D01*
X49951711Y-29304763D01*
X49985877Y-29277697D01*
X50006721Y-29209261D01*
X50010108Y-29120920D01*
X49999431Y-29057100D01*
X49985181Y-28977146D01*
X50003263Y-28927906D01*
X50027802Y-28905054D01*
X50115499Y-28841986D01*
X50176382Y-28819281D01*
X50229682Y-28833575D01*
X50271114Y-28862480D01*
X50320263Y-28909181D01*
X50340135Y-28961595D01*
X50338019Y-29044453D01*
X50334400Y-29077150D01*
X50328712Y-29182150D01*
X50344999Y-29244744D01*
X50366377Y-29269351D01*
X50425362Y-29295594D01*
X50469464Y-29261996D01*
X50498455Y-29177885D01*
X50519334Y-29111454D01*
X50540745Y-29083016D01*
X50541153Y-29083000D01*
X50578353Y-29099413D01*
X50647270Y-29140932D01*
X50684395Y-29165483D01*
X50747451Y-29210436D01*
X50780097Y-29249270D01*
X50784476Y-29298937D01*
X50762729Y-29376389D01*
X50724106Y-29479875D01*
X50687615Y-29605319D01*
X50675941Y-29714967D01*
X50689389Y-29793575D01*
X50717246Y-29823434D01*
X50771424Y-29813117D01*
X50837632Y-29756780D01*
X50904184Y-29667309D01*
X50959394Y-29557592D01*
X50960212Y-29555511D01*
X51009350Y-29429835D01*
X51219151Y-29581358D01*
X51428953Y-29732880D01*
X51440106Y-29971502D01*
X51464689Y-30171863D01*
X51523659Y-30348110D01*
X51625661Y-30522152D01*
X51692624Y-30611568D01*
X51757384Y-30701540D01*
X51778842Y-30764432D01*
X52340436Y-30764432D01*
X52221584Y-30714522D01*
X52134136Y-30671152D01*
X52105307Y-30651624D01*
X52105112Y-30616584D01*
X52120011Y-30543588D01*
X52143952Y-30454557D01*
X52170886Y-30371412D01*
X52194765Y-30316074D01*
X52199940Y-30308703D01*
X52232950Y-30316657D01*
X52307648Y-30357501D01*
X52415154Y-30425720D01*
X52546588Y-30515796D01*
X52631822Y-30577003D01*
X52802750Y-30701849D01*
X52991367Y-30839781D01*
X53190912Y-30985837D01*
X53394619Y-31135054D01*
X53595726Y-31282472D01*
X53787470Y-31423128D01*
X53963087Y-31552061D01*
X54115814Y-31664310D01*
X54238888Y-31754912D01*
X54325544Y-31818906D01*
X54369021Y-31851329D01*
X54371875Y-31853538D01*
X54410244Y-31882616D01*
X54486469Y-31939400D01*
X54587240Y-32013994D01*
X54641750Y-32054199D01*
X54749900Y-32134902D01*
X54839958Y-32204009D01*
X54898538Y-32251161D01*
X54911625Y-32263038D01*
X55726246Y-32263038D01*
X55840498Y-31747433D01*
X55867235Y-31579598D01*
X55897801Y-31287676D01*
X55911475Y-30959603D01*
X55910034Y-30767060D01*
X55557196Y-30767060D01*
X55547025Y-31076394D01*
X55523698Y-31388677D01*
X55488441Y-31686719D01*
X55442477Y-31953330D01*
X55396925Y-32138937D01*
X55372654Y-32214394D01*
X55355342Y-32255479D01*
X55352713Y-32258000D01*
X55325459Y-32240118D01*
X55255480Y-32190477D01*
X55151099Y-32115085D01*
X55020639Y-32019949D01*
X54889426Y-31923605D01*
X54759464Y-31828246D01*
X54586945Y-31702202D01*
X54380793Y-31551963D01*
X54149933Y-31384021D01*
X53903286Y-31204866D01*
X53649777Y-31020990D01*
X53398328Y-30838883D01*
X53376803Y-30823308D01*
X53148178Y-30657300D01*
X52935874Y-30502002D01*
X52745371Y-30361507D01*
X52582149Y-30239908D01*
X52458311Y-30146306D01*
X51966066Y-30146306D01*
X51952545Y-30214311D01*
X51942543Y-30246027D01*
X51906397Y-30353527D01*
X51879837Y-30404863D01*
X51853072Y-30404344D01*
X51816314Y-30356275D01*
X51789627Y-30313312D01*
X51745631Y-30216436D01*
X51711108Y-30097078D01*
X51703561Y-30056000D01*
X51691896Y-29965634D01*
X51694756Y-29925601D01*
X51715927Y-29923649D01*
X51740461Y-29936510D01*
X51805527Y-29980510D01*
X51884027Y-30041257D01*
X51891150Y-30047161D01*
X51948059Y-30100103D01*
X51966066Y-30146306D01*
X52458311Y-30146306D01*
X52451686Y-30141299D01*
X52359463Y-30069771D01*
X52310959Y-30029418D01*
X52304897Y-30022640D01*
X52306451Y-29995570D01*
X52320021Y-29933866D01*
X52346549Y-29834396D01*
X52386977Y-29694028D01*
X52442245Y-29509633D01*
X52513295Y-29278078D01*
X52601069Y-28996232D01*
X52706508Y-28660964D01*
X52830553Y-28269142D01*
X52859454Y-28178125D01*
X52934003Y-27943354D01*
X53016724Y-27682686D01*
X53100113Y-27419779D01*
X53176665Y-27178290D01*
X53219358Y-27043523D01*
X53275565Y-26871460D01*
X53323672Y-26733500D01*
X53064755Y-26733500D01*
X53059547Y-26761800D01*
X53036909Y-26839796D01*
X53000049Y-26957132D01*
X52952177Y-27103453D01*
X52924543Y-27185937D01*
X52822401Y-27492184D01*
X52707820Y-27842060D01*
X52586356Y-28218297D01*
X52463568Y-28603627D01*
X52345014Y-28980783D01*
X52293516Y-29146500D01*
X52222597Y-29375412D01*
X52167871Y-29550573D01*
X52126749Y-29678891D01*
X52096641Y-29767273D01*
X52074959Y-29822628D01*
X52059114Y-29851863D01*
X52046517Y-29861886D01*
X52034578Y-29859605D01*
X52027680Y-29855797D01*
X51981621Y-29825984D01*
X51905095Y-29773642D01*
X51855688Y-29739043D01*
X51779855Y-29678243D01*
X51736631Y-29617561D01*
X51724389Y-29543193D01*
X51741500Y-29441332D01*
X51786335Y-29298172D01*
X51799314Y-29261022D01*
X51831968Y-29173599D01*
X51867621Y-29092535D01*
X51912093Y-29008285D01*
X51971201Y-28911306D01*
X52050763Y-28792052D01*
X52156598Y-28640979D01*
X52294523Y-28448542D01*
X52294915Y-28448000D01*
X52393119Y-28304795D01*
X52475610Y-28171501D01*
X52540641Y-28053594D01*
X52586467Y-27956555D01*
X52611342Y-27885859D01*
X52613522Y-27846987D01*
X52591260Y-27845416D01*
X52542813Y-27886624D01*
X52466433Y-27976089D01*
X52430274Y-28023144D01*
X52346637Y-28129992D01*
X52242197Y-28257295D01*
X52138796Y-28378459D01*
X52133500Y-28384500D01*
X51916353Y-28647576D01*
X51737234Y-28897740D01*
X51600425Y-29128240D01*
X51510206Y-29332321D01*
X51489075Y-29401363D01*
X51476347Y-29435691D01*
X51453924Y-29443071D01*
X51408933Y-29419756D01*
X51328495Y-29361996D01*
X51312237Y-29349876D01*
X51153019Y-29231008D01*
X51254322Y-29089320D01*
X51306324Y-29025742D01*
X51395700Y-28926374D01*
X51514377Y-28799770D01*
X51654278Y-28654486D01*
X51807329Y-28499076D01*
X51879673Y-28426793D01*
X52092499Y-28213080D01*
X52260786Y-28038958D01*
X52387099Y-27901434D01*
X52474004Y-27797513D01*
X52524067Y-27724203D01*
X52539853Y-27678511D01*
X52534087Y-27663253D01*
X52503481Y-27674144D01*
X52439877Y-27721423D01*
X52354752Y-27796154D01*
X52315195Y-27833720D01*
X52207696Y-27932966D01*
X52068951Y-28053818D01*
X51918401Y-28179634D01*
X51800125Y-28274565D01*
X51641373Y-28405291D01*
X51467042Y-28558749D01*
X51302176Y-28712470D01*
X51209072Y-28804843D01*
X50935518Y-29086067D01*
X50836009Y-29002336D01*
X50765020Y-28922843D01*
X50736553Y-28846760D01*
X50736500Y-28843926D01*
X50748067Y-28772395D01*
X50774142Y-28754428D01*
X50801791Y-28793248D01*
X50810414Y-28825506D01*
X50842277Y-28898574D01*
X50892099Y-28939577D01*
X50942620Y-28938142D01*
X50963308Y-28917387D01*
X50983868Y-28864730D01*
X51009060Y-28773678D01*
X51024471Y-28706030D01*
X51045818Y-28611379D01*
X51061889Y-28570858D01*
X51078785Y-28576126D01*
X51096750Y-28607218D01*
X51143907Y-28668723D01*
X51189513Y-28666939D01*
X51227659Y-28612380D01*
X51278290Y-28555337D01*
X51322793Y-28536607D01*
X51368231Y-28513042D01*
X51400594Y-28448905D01*
X51419100Y-28376228D01*
X51439385Y-28288609D01*
X51455640Y-28254767D01*
X51475428Y-28266046D01*
X51492790Y-28291904D01*
X51527499Y-28337477D01*
X51560643Y-28332798D01*
X51595265Y-28303754D01*
X51643823Y-28233954D01*
X51675917Y-28142650D01*
X51676104Y-28141665D01*
X51701627Y-28053970D01*
X51732726Y-28014932D01*
X51763104Y-28030628D01*
X51771997Y-28049112D01*
X51811512Y-28096820D01*
X51866965Y-28088021D01*
X51932348Y-28025796D01*
X51988609Y-27938074D01*
X52039074Y-27849708D01*
X52071627Y-27809958D01*
X52096501Y-27810520D01*
X52117219Y-27833688D01*
X52155262Y-27871494D01*
X52195703Y-27858380D01*
X52214600Y-27843551D01*
X52261827Y-27786398D01*
X52313542Y-27698106D01*
X52330646Y-27662187D01*
X52372461Y-27582136D01*
X52409924Y-27533768D01*
X52422685Y-27527250D01*
X52458198Y-27505591D01*
X52522782Y-27449355D01*
X52603581Y-27371653D01*
X52687736Y-27285595D01*
X52762389Y-27204292D01*
X52814682Y-27140854D01*
X52832000Y-27109898D01*
X52809766Y-27081745D01*
X52753339Y-27086524D01*
X52678140Y-27117530D01*
X52599585Y-27168056D01*
X52533094Y-27231397D01*
X52523179Y-27244214D01*
X52462074Y-27294298D01*
X52407654Y-27316964D01*
X52340117Y-27352235D01*
X52261217Y-27418076D01*
X52233258Y-27447592D01*
X52165499Y-27514290D01*
X52107313Y-27554084D01*
X52089537Y-27559000D01*
X52040119Y-27580602D01*
X51973453Y-27634423D01*
X51953732Y-27654250D01*
X51879880Y-27715169D01*
X51808491Y-27747778D01*
X51793576Y-27749500D01*
X51734834Y-27770196D01*
X51662571Y-27820168D01*
X51598306Y-27881240D01*
X51563557Y-27935237D01*
X51562000Y-27945090D01*
X51534757Y-27966368D01*
X51469688Y-27986979D01*
X51389125Y-28021746D01*
X51298841Y-28084304D01*
X51271250Y-28108782D01*
X51183913Y-28185998D01*
X51097014Y-28253348D01*
X51076367Y-28267334D01*
X51001569Y-28332488D01*
X50951649Y-28403281D01*
X50911064Y-28457228D01*
X50873344Y-28465953D01*
X50821418Y-28466229D01*
X50752167Y-28486202D01*
X50693516Y-28515504D01*
X50672843Y-28540408D01*
X50654742Y-28575163D01*
X50610316Y-28636866D01*
X50599559Y-28650510D01*
X50537484Y-28712161D01*
X50480572Y-28725287D01*
X50456842Y-28719808D01*
X50402411Y-28691798D01*
X50387250Y-28669375D01*
X50390502Y-28666286D01*
X49943319Y-28666286D01*
X49937551Y-28687935D01*
X49923860Y-28705332D01*
X49862171Y-28753473D01*
X49810013Y-28762302D01*
X49784479Y-28729834D01*
X49784000Y-28721569D01*
X49761468Y-28677925D01*
X49703431Y-28611962D01*
X49649063Y-28561371D01*
X49560123Y-28484500D01*
X49503566Y-28433644D01*
X49463782Y-28393229D01*
X49425165Y-28347686D01*
X49386390Y-28299306D01*
X49304238Y-28222520D01*
X49208582Y-28166674D01*
X49195586Y-28161907D01*
X49123541Y-28131269D01*
X49086731Y-28102201D01*
X49085500Y-28097626D01*
X49060181Y-28067623D01*
X48994999Y-28020017D01*
X48934688Y-27983015D01*
X48824438Y-27913867D01*
X48718326Y-27838218D01*
X48679583Y-27807051D01*
X48608679Y-27752006D01*
X48555366Y-27720575D01*
X48544357Y-27717750D01*
X48504404Y-27697449D01*
X48439996Y-27646297D01*
X48410524Y-27619222D01*
X48316556Y-27540370D01*
X48215357Y-27470948D01*
X48196500Y-27460139D01*
X48074037Y-27391063D01*
X47980473Y-27330411D01*
X47887596Y-27258852D01*
X47819490Y-27201812D01*
X47723600Y-27131275D01*
X47640856Y-27090131D01*
X47582934Y-27082462D01*
X47561500Y-27111613D01*
X47583072Y-27149911D01*
X47640770Y-27218723D01*
X47724068Y-27307819D01*
X47822439Y-27406966D01*
X47925357Y-27505932D01*
X48022296Y-27594485D01*
X48102729Y-27662394D01*
X48156130Y-27699426D01*
X48169923Y-27703019D01*
X48212010Y-27718387D01*
X48270589Y-27776166D01*
X48301742Y-27817388D01*
X48363842Y-27896922D01*
X48414723Y-27931049D01*
X48469759Y-27931582D01*
X48534817Y-27934268D01*
X48581708Y-27982529D01*
X48594071Y-28004845D01*
X48644342Y-28077011D01*
X48714091Y-28149658D01*
X48784158Y-28205106D01*
X48833454Y-28225750D01*
X48861064Y-28199585D01*
X48871978Y-28170187D01*
X48889177Y-28155892D01*
X48921647Y-28198776D01*
X48956001Y-28267324D01*
X49012055Y-28366778D01*
X49067796Y-28429953D01*
X49114388Y-28449498D01*
X49141805Y-28421962D01*
X49170844Y-28386160D01*
X49213363Y-28412325D01*
X49269269Y-28500394D01*
X49279054Y-28519437D01*
X49350376Y-28648584D01*
X49407798Y-28721634D01*
X49455945Y-28743230D01*
X49487962Y-28729113D01*
X49525419Y-28705063D01*
X49548790Y-28718629D01*
X49567171Y-28780039D01*
X49576797Y-28829000D01*
X49584571Y-28907230D01*
X49560558Y-28955510D01*
X49497390Y-28999174D01*
X49426454Y-29031035D01*
X49378900Y-29034450D01*
X49374076Y-29030924D01*
X49343613Y-28994683D01*
X49284335Y-28923887D01*
X49208122Y-28832728D01*
X49194770Y-28816746D01*
X49095758Y-28710645D01*
X48966968Y-28589601D01*
X48831051Y-28474503D01*
X48784269Y-28438192D01*
X48666633Y-28343952D01*
X48521024Y-28218871D01*
X48363872Y-28077500D01*
X48211609Y-27934390D01*
X48172688Y-27896576D01*
X48049642Y-27778996D01*
X47945713Y-27685422D01*
X47867944Y-27621761D01*
X47823376Y-27593919D01*
X47815500Y-27596951D01*
X47837000Y-27658999D01*
X47895955Y-27754578D01*
X47984054Y-27873202D01*
X48092983Y-28004385D01*
X48214430Y-28137643D01*
X48340081Y-28262489D01*
X48351766Y-28273375D01*
X48551174Y-28459589D01*
X48735087Y-28634392D01*
X48898402Y-28792700D01*
X49036015Y-28929431D01*
X49142823Y-29039502D01*
X49213724Y-29117831D01*
X49243614Y-29159334D01*
X49244250Y-29162292D01*
X49219653Y-29197941D01*
X49153976Y-29258165D01*
X49059397Y-29332949D01*
X48948089Y-29412280D01*
X48907626Y-29439141D01*
X48879443Y-29422897D01*
X48840174Y-29347193D01*
X48791243Y-29214825D01*
X48787602Y-29203840D01*
X48707807Y-29001007D01*
X48601264Y-28803051D01*
X48460774Y-28599134D01*
X48279139Y-28378418D01*
X48132788Y-28217812D01*
X47999340Y-28078156D01*
X47902515Y-27982920D01*
X47837599Y-27928316D01*
X47799880Y-27910559D01*
X47784647Y-27925863D01*
X47783750Y-27937411D01*
X47800707Y-27973045D01*
X47847194Y-28050451D01*
X47916642Y-28159161D01*
X48002479Y-28288707D01*
X48027917Y-28326348D01*
X48166987Y-28531635D01*
X48275024Y-28692595D01*
X48356840Y-28817313D01*
X48417251Y-28913876D01*
X48461070Y-28990369D01*
X48493110Y-29054879D01*
X48518187Y-29115493D01*
X48541113Y-29180295D01*
X48547294Y-29198761D01*
X48584646Y-29340970D01*
X48603059Y-29475485D01*
X48603236Y-29533438D01*
X48592236Y-29615451D01*
X48564327Y-29673170D01*
X48505311Y-29727352D01*
X48438975Y-29773562D01*
X48354511Y-29828865D01*
X48294036Y-29866315D01*
X48273651Y-29876750D01*
X48261013Y-29848072D01*
X48232833Y-29768598D01*
X48192423Y-29648168D01*
X48143099Y-29496621D01*
X48099835Y-29360812D01*
X48049581Y-29202644D01*
X47983438Y-28995995D01*
X47905236Y-28752744D01*
X47818803Y-28484771D01*
X47727969Y-28203956D01*
X47636563Y-27922177D01*
X47587424Y-27771068D01*
X47507053Y-27522638D01*
X47433951Y-27293760D01*
X47370245Y-27091318D01*
X47318060Y-26922191D01*
X47279520Y-26793262D01*
X47256752Y-26711412D01*
X47251572Y-26683595D01*
X47282049Y-26693488D01*
X47346355Y-26733342D01*
X47405432Y-26775809D01*
X47501342Y-26847425D01*
X47640621Y-26950297D01*
X47815154Y-27078509D01*
X48016827Y-27226146D01*
X48237525Y-27387291D01*
X48469133Y-27556030D01*
X48703537Y-27726446D01*
X48932623Y-27892625D01*
X49148275Y-28048649D01*
X49342380Y-28188605D01*
X49412843Y-28239245D01*
X49597187Y-28371932D01*
X49735516Y-28473044D01*
X49833561Y-28547807D01*
X49897056Y-28601450D01*
X49931731Y-28639200D01*
X49943319Y-28666286D01*
X50390502Y-28666286D01*
X50412318Y-28645569D01*
X50483966Y-28589114D01*
X50596866Y-28503931D01*
X50745687Y-28393943D01*
X50925100Y-28263072D01*
X51129775Y-28115241D01*
X51354381Y-27954372D01*
X51490563Y-27857437D01*
X51734842Y-27683770D01*
X51971444Y-27515229D01*
X52193479Y-27356745D01*
X52394058Y-27213251D01*
X52566291Y-27089678D01*
X52703288Y-26990956D01*
X52798160Y-26922018D01*
X52823059Y-26903672D01*
X52925698Y-26828425D01*
X53007579Y-26770207D01*
X53056555Y-26737570D01*
X53064755Y-26733500D01*
X53323672Y-26733500D01*
X53327465Y-26722625D01*
X53371397Y-26606746D01*
X53403699Y-26533550D01*
X53419375Y-26512155D01*
X53462260Y-26533449D01*
X53540364Y-26591785D01*
X53644503Y-26678813D01*
X53765495Y-26786182D01*
X53894156Y-26905540D01*
X54021301Y-27028536D01*
X54137747Y-27146819D01*
X54234310Y-27252039D01*
X54239127Y-27257587D01*
X54597201Y-27719499D01*
X54901017Y-28213918D01*
X55149873Y-28739236D01*
X55343069Y-29293848D01*
X55479904Y-29876147D01*
X55533177Y-30226000D01*
X55552989Y-30477865D01*
X55557196Y-30767060D01*
X55910034Y-30767060D01*
X55908892Y-30614544D01*
X55890682Y-30271667D01*
X55857478Y-29950139D01*
X55809913Y-29669127D01*
X55803176Y-29638625D01*
X55634353Y-29025611D01*
X55415975Y-28452102D01*
X55148259Y-27918386D01*
X54831420Y-27424746D01*
X54465675Y-26971471D01*
X54051238Y-26558844D01*
X53785937Y-26345822D01*
X53181250Y-26345822D01*
X53174976Y-26358781D01*
X53152914Y-26381335D01*
X53110206Y-26417122D01*
X53041994Y-26469778D01*
X52943418Y-26542940D01*
X52809621Y-26640247D01*
X52635744Y-26765334D01*
X52416929Y-26921840D01*
X52308125Y-26999480D01*
X51918919Y-27276899D01*
X51578181Y-27519351D01*
X51282837Y-27728956D01*
X51029812Y-27907835D01*
X50816029Y-28058107D01*
X50638415Y-28181893D01*
X50493894Y-28281311D01*
X50379390Y-28358483D01*
X50291828Y-28415529D01*
X50228133Y-28454567D01*
X50185230Y-28477719D01*
X50160043Y-28487104D01*
X50151072Y-28486478D01*
X50111088Y-28459038D01*
X50032786Y-28403740D01*
X49929322Y-28329909D01*
X49862364Y-28281835D01*
X49753178Y-28203207D01*
X49606368Y-28097394D01*
X49435788Y-27974387D01*
X49255295Y-27844177D01*
X49101375Y-27733094D01*
X48926894Y-27607558D01*
X48715414Y-27456062D01*
X48481832Y-27289238D01*
X48241047Y-27117717D01*
X48007956Y-26952132D01*
X47888349Y-26867383D01*
X47702782Y-26734948D01*
X47535418Y-26613404D01*
X47392970Y-26507798D01*
X47282149Y-26423174D01*
X47209668Y-26364578D01*
X47182241Y-26337054D01*
X47182173Y-26336625D01*
X47208888Y-26303417D01*
X47284070Y-26250002D01*
X47397952Y-26181492D01*
X47540769Y-26102999D01*
X47702752Y-26019635D01*
X47874136Y-25936513D01*
X48045153Y-25858743D01*
X48206037Y-25791439D01*
X48272445Y-25765959D01*
X48722665Y-25618587D01*
X49163371Y-25516246D01*
X49614543Y-25455439D01*
X50096159Y-25432666D01*
X50178109Y-25432319D01*
X50525711Y-25440241D01*
X50841307Y-25465300D01*
X51144683Y-25510756D01*
X51455623Y-25579869D01*
X51793915Y-25675900D01*
X51943000Y-25723124D01*
X52083384Y-25773607D01*
X52245529Y-25839873D01*
X52419775Y-25917064D01*
X52596464Y-26000322D01*
X52765933Y-26084788D01*
X52918525Y-26165606D01*
X53044579Y-26237918D01*
X53134435Y-26296865D01*
X53178433Y-26337589D01*
X53181250Y-26345822D01*
X53785937Y-26345822D01*
X53588327Y-26187153D01*
X53077156Y-25856683D01*
X52856079Y-25734440D01*
X52537150Y-25575530D01*
X52239323Y-25449095D01*
X51936665Y-25344948D01*
X51679917Y-25272466D01*
X51075983Y-25143508D01*
X50485364Y-25075585D01*
X49903531Y-25068792D01*
X49325956Y-25123222D01*
G36*
X56427688Y-32374972D02*
G01*
X56232410Y-32382503D01*
X56090044Y-32394184D01*
X55992245Y-32418959D01*
X55930672Y-32465772D01*
X55896980Y-32543568D01*
X55882827Y-32661289D01*
X55879870Y-32827881D01*
X55880000Y-32962104D01*
X55882288Y-33129112D01*
X55888567Y-33276444D01*
X55897962Y-33390657D01*
X55909596Y-33458307D01*
X55912868Y-33466587D01*
X55960506Y-33515826D01*
X56014849Y-33525326D01*
X56052013Y-33491386D01*
X56053045Y-33488312D01*
X56059901Y-33440928D01*
X56068233Y-33346162D01*
X56076745Y-33220071D01*
X56081182Y-33140263D01*
X56089982Y-33004456D01*
X56100674Y-32891782D01*
X56111601Y-32817876D01*
X56117383Y-32798951D01*
X56157302Y-32783942D01*
X56248490Y-32772807D01*
X56378773Y-32766750D01*
X56450778Y-32766000D01*
X56590139Y-32764119D01*
X56708845Y-32759066D01*
X56790312Y-32751718D01*
X56814029Y-32746728D01*
X56844562Y-32716901D01*
X56860231Y-32648779D01*
X56864250Y-32543012D01*
X56864251Y-32358568D01*
X56427688Y-32374972D01*
G37*
X56427688Y-32374972D02*
X56232410Y-32382503D01*
X56090044Y-32394184D01*
X55992245Y-32418959D01*
X55930672Y-32465772D01*
X55896980Y-32543568D01*
X55882827Y-32661289D01*
X55879870Y-32827881D01*
X55880000Y-32962104D01*
X55882288Y-33129112D01*
X55888567Y-33276444D01*
X55897962Y-33390657D01*
X55909596Y-33458307D01*
X55912868Y-33466587D01*
X55960506Y-33515826D01*
X56014849Y-33525326D01*
X56052013Y-33491386D01*
X56053045Y-33488312D01*
X56059901Y-33440928D01*
X56068233Y-33346162D01*
X56076745Y-33220071D01*
X56081182Y-33140263D01*
X56089982Y-33004456D01*
X56100674Y-32891782D01*
X56111601Y-32817876D01*
X56117383Y-32798951D01*
X56157302Y-32783942D01*
X56248490Y-32772807D01*
X56378773Y-32766750D01*
X56450778Y-32766000D01*
X56590139Y-32764119D01*
X56708845Y-32759066D01*
X56790312Y-32751718D01*
X56814029Y-32746728D01*
X56844562Y-32716901D01*
X56860231Y-32648779D01*
X56864250Y-32543012D01*
X56864251Y-32358568D01*
X56427688Y-32374972D01*
G36*
X44211875Y-31934340D02*
G01*
X44038709Y-31960260D01*
X43874550Y-32007309D01*
X43739748Y-32068646D01*
X43675630Y-32114658D01*
X43635720Y-32154783D01*
X43610779Y-32195403D01*
X43597690Y-32251541D01*
X43593339Y-32338219D01*
X43594611Y-32470461D01*
X43595238Y-32502327D01*
X43596618Y-32647744D01*
X43592583Y-32741616D01*
X43581473Y-32795785D01*
X43561625Y-32822094D01*
X43549543Y-32827950D01*
X43523292Y-32844853D01*
X43522409Y-32878572D01*
X43549446Y-32943704D01*
X43580437Y-33004514D01*
X43633036Y-33099707D01*
X43679473Y-33174611D01*
X43700413Y-33202415D01*
X43749589Y-33222139D01*
X43848221Y-33238652D01*
X43982306Y-33251064D01*
X44137843Y-33258483D01*
X44300830Y-33260019D01*
X44457266Y-33254783D01*
X44489688Y-33252613D01*
X44587722Y-33243364D01*
X44653988Y-33233317D01*
X44672250Y-33226491D01*
X44657395Y-33194915D01*
X44618329Y-33123757D01*
X44563298Y-33028009D01*
X44559605Y-33021701D01*
X44446959Y-32829500D01*
X44085228Y-32829500D01*
X43916703Y-32826525D01*
X43791839Y-32818060D01*
X43718341Y-32804787D01*
X43702482Y-32795495D01*
X43694078Y-32745382D01*
X43697722Y-32659403D01*
X43702585Y-32620664D01*
X43740439Y-32505135D01*
X43817137Y-32430477D01*
X43939203Y-32392325D01*
X44054688Y-32385000D01*
X44195724Y-32369661D01*
X44316190Y-32328323D01*
X44400454Y-32268000D01*
X44429982Y-32216568D01*
X44428282Y-32143499D01*
X44400878Y-32052357D01*
X44393442Y-32036129D01*
X44352049Y-31964290D01*
X44305966Y-31935003D01*
X44228247Y-31933159D01*
X44211875Y-31934340D01*
G37*
X44211875Y-31934340D02*
X44038709Y-31960260D01*
X43874550Y-32007309D01*
X43739748Y-32068646D01*
X43675630Y-32114658D01*
X43635720Y-32154783D01*
X43610779Y-32195403D01*
X43597690Y-32251541D01*
X43593339Y-32338219D01*
X43594611Y-32470461D01*
X43595238Y-32502327D01*
X43596618Y-32647744D01*
X43592583Y-32741616D01*
X43581473Y-32795785D01*
X43561625Y-32822094D01*
X43549543Y-32827950D01*
X43523292Y-32844853D01*
X43522409Y-32878572D01*
X43549446Y-32943704D01*
X43580437Y-33004514D01*
X43633036Y-33099707D01*
X43679473Y-33174611D01*
X43700413Y-33202415D01*
X43749589Y-33222139D01*
X43848221Y-33238652D01*
X43982306Y-33251064D01*
X44137843Y-33258483D01*
X44300830Y-33260019D01*
X44457266Y-33254783D01*
X44489688Y-33252613D01*
X44587722Y-33243364D01*
X44653988Y-33233317D01*
X44672250Y-33226491D01*
X44657395Y-33194915D01*
X44618329Y-33123757D01*
X44563298Y-33028009D01*
X44559605Y-33021701D01*
X44446959Y-32829500D01*
X44085228Y-32829500D01*
X43916703Y-32826525D01*
X43791839Y-32818060D01*
X43718341Y-32804787D01*
X43702482Y-32795495D01*
X43694078Y-32745382D01*
X43697722Y-32659403D01*
X43702585Y-32620664D01*
X43740439Y-32505135D01*
X43817137Y-32430477D01*
X43939203Y-32392325D01*
X44054688Y-32385000D01*
X44195724Y-32369661D01*
X44316190Y-32328323D01*
X44400454Y-32268000D01*
X44429982Y-32216568D01*
X44428282Y-32143499D01*
X44400878Y-32052357D01*
X44393442Y-32036129D01*
X44352049Y-31964290D01*
X44305966Y-31935003D01*
X44228247Y-31933159D01*
X44211875Y-31934340D01*
G36*
X46646619Y-24877692D02*
G01*
X46615750Y-24886226D01*
X46502719Y-24911402D01*
X46391207Y-24923549D01*
X46379017Y-24923749D01*
X46285743Y-24935675D01*
X46228997Y-24980022D01*
X46196201Y-25069648D01*
X46187151Y-25119883D01*
X46179686Y-25252312D01*
X46207456Y-25336979D01*
X46272773Y-25380417D01*
X46279985Y-25382382D01*
X46340491Y-25407296D01*
X46370081Y-25451329D01*
X46370398Y-25526027D01*
X46343085Y-25642936D01*
X46325472Y-25701906D01*
X46271014Y-25935019D01*
X46264105Y-26129103D01*
X46279762Y-26217562D01*
X46307838Y-26278827D01*
X46342430Y-26277191D01*
X46383605Y-26212581D01*
X46431431Y-26084922D01*
X46446285Y-26036996D01*
X46491826Y-25858107D01*
X46509985Y-25706915D01*
X46507759Y-25592655D01*
X46501297Y-25486571D01*
X46505093Y-25428986D01*
X46524568Y-25405083D01*
X46565143Y-25400047D01*
X46578241Y-25400000D01*
X46677882Y-25372005D01*
X46747413Y-25289248D01*
X46785507Y-25153566D01*
X46790397Y-25105820D01*
X46793068Y-24975762D01*
X46774099Y-24899548D01*
X46727334Y-24869437D01*
X46646619Y-24877692D01*
G37*
X46646619Y-24877692D02*
X46615750Y-24886226D01*
X46502719Y-24911402D01*
X46391207Y-24923549D01*
X46379017Y-24923749D01*
X46285743Y-24935675D01*
X46228997Y-24980022D01*
X46196201Y-25069648D01*
X46187151Y-25119883D01*
X46179686Y-25252312D01*
X46207456Y-25336979D01*
X46272773Y-25380417D01*
X46279985Y-25382382D01*
X46340491Y-25407296D01*
X46370081Y-25451329D01*
X46370398Y-25526027D01*
X46343085Y-25642936D01*
X46325472Y-25701906D01*
X46271014Y-25935019D01*
X46264105Y-26129103D01*
X46279762Y-26217562D01*
X46307838Y-26278827D01*
X46342430Y-26277191D01*
X46383605Y-26212581D01*
X46431431Y-26084922D01*
X46446285Y-26036996D01*
X46491826Y-25858107D01*
X46509985Y-25706915D01*
X46507759Y-25592655D01*
X46501297Y-25486571D01*
X46505093Y-25428986D01*
X46524568Y-25405083D01*
X46565143Y-25400047D01*
X46578241Y-25400000D01*
X46677882Y-25372005D01*
X46747413Y-25289248D01*
X46785507Y-25153566D01*
X46790397Y-25105820D01*
X46793068Y-24975762D01*
X46774099Y-24899548D01*
X46727334Y-24869437D01*
X46646619Y-24877692D01*
G36*
X54017618Y-25022948D02*
G01*
X53912153Y-25046805D01*
X53804588Y-25078425D01*
X53713946Y-25112706D01*
X53659245Y-25144545D01*
X53653715Y-25151037D01*
X53629602Y-25210496D01*
X53636885Y-25279763D01*
X53677825Y-25380047D01*
X53678188Y-25380807D01*
X53706102Y-25447442D01*
X53714723Y-25505687D01*
X53704051Y-25579348D01*
X53678188Y-25677655D01*
X53636633Y-25863834D01*
X53633037Y-26004962D01*
X53671832Y-26106344D01*
X53757453Y-26173289D01*
X53894332Y-26211102D01*
X54086904Y-26225092D01*
X54135845Y-26225500D01*
X54238326Y-26220916D01*
X54312702Y-26209056D01*
X54338301Y-26196702D01*
X54337247Y-26153776D01*
X54316348Y-26071843D01*
X54288143Y-25990327D01*
X54220188Y-25812750D01*
X53885488Y-25812750D01*
X53886456Y-25677812D01*
X53884404Y-25581988D01*
X53878103Y-25508876D01*
X53875650Y-25496003D01*
X53892225Y-25454953D01*
X53943250Y-25438964D01*
X54033547Y-25419268D01*
X54113467Y-25393209D01*
X54167403Y-25367267D01*
X54191779Y-25331785D01*
X54194716Y-25266341D01*
X54189386Y-25202317D01*
X54175248Y-25105996D01*
X54156161Y-25036485D01*
X54146169Y-25018932D01*
X54101964Y-25011956D01*
X54017618Y-25022948D01*
G37*
X54017618Y-25022948D02*
X53912153Y-25046805D01*
X53804588Y-25078425D01*
X53713946Y-25112706D01*
X53659245Y-25144545D01*
X53653715Y-25151037D01*
X53629602Y-25210496D01*
X53636885Y-25279763D01*
X53677825Y-25380047D01*
X53678188Y-25380807D01*
X53706102Y-25447442D01*
X53714723Y-25505687D01*
X53704051Y-25579348D01*
X53678188Y-25677655D01*
X53636633Y-25863834D01*
X53633037Y-26004962D01*
X53671832Y-26106344D01*
X53757453Y-26173289D01*
X53894332Y-26211102D01*
X54086904Y-26225092D01*
X54135845Y-26225500D01*
X54238326Y-26220916D01*
X54312702Y-26209056D01*
X54338301Y-26196702D01*
X54337247Y-26153776D01*
X54316348Y-26071843D01*
X54288143Y-25990327D01*
X54220188Y-25812750D01*
X53885488Y-25812750D01*
X53886456Y-25677812D01*
X53884404Y-25581988D01*
X53878103Y-25508876D01*
X53875650Y-25496003D01*
X53892225Y-25454953D01*
X53943250Y-25438964D01*
X54033547Y-25419268D01*
X54113467Y-25393209D01*
X54167403Y-25367267D01*
X54191779Y-25331785D01*
X54194716Y-25266341D01*
X54189386Y-25202317D01*
X54175248Y-25105996D01*
X54156161Y-25036485D01*
X54146169Y-25018932D01*
X54101964Y-25011956D01*
X54017618Y-25022948D01*
G36*
X50113303Y-34399002D02*
G01*
X50090112Y-34478010D01*
X50089890Y-34585323D01*
X50103548Y-34718625D01*
X50046962Y-34578372D01*
X50005141Y-34492460D01*
X49963905Y-34435206D01*
X49948203Y-34424085D01*
X49926227Y-34443350D01*
X49916607Y-34511633D01*
X49917698Y-34616016D01*
X49927856Y-34743580D01*
X49945439Y-34881406D01*
X49968802Y-35016575D01*
X49996302Y-35136168D01*
X50026295Y-35227266D01*
X50056665Y-35276565D01*
X50091200Y-35294052D01*
X50101370Y-35257649D01*
X50101500Y-35247173D01*
X50109382Y-35201928D01*
X50145349Y-35198718D01*
X50181823Y-35211110D01*
X50243831Y-35225503D01*
X50276681Y-35197599D01*
X50287982Y-35170636D01*
X50360900Y-34967967D01*
X50413609Y-34814973D01*
X50448835Y-34702116D01*
X50469306Y-34619858D01*
X50477748Y-34558662D01*
X50476955Y-34509674D01*
X50453748Y-34425946D01*
X50413632Y-34388514D01*
X50370585Y-34401325D01*
X50338584Y-34468329D01*
X50338108Y-34470452D01*
X50311487Y-34573432D01*
X50290618Y-34613445D01*
X50275244Y-34590738D01*
X50267693Y-34538479D01*
X50247544Y-34449694D01*
X50212679Y-34385893D01*
X50207417Y-34380927D01*
X50154305Y-34363335D01*
X50113303Y-34399002D01*
G37*
X50113303Y-34399002D02*
X50090112Y-34478010D01*
X50089890Y-34585323D01*
X50103548Y-34718625D01*
X50046962Y-34578372D01*
X50005141Y-34492460D01*
X49963905Y-34435206D01*
X49948203Y-34424085D01*
X49926227Y-34443350D01*
X49916607Y-34511633D01*
X49917698Y-34616016D01*
X49927856Y-34743580D01*
X49945439Y-34881406D01*
X49968802Y-35016575D01*
X49996302Y-35136168D01*
X50026295Y-35227266D01*
X50056665Y-35276565D01*
X50091200Y-35294052D01*
X50101370Y-35257649D01*
X50101500Y-35247173D01*
X50109382Y-35201928D01*
X50145349Y-35198718D01*
X50181823Y-35211110D01*
X50243831Y-35225503D01*
X50276681Y-35197599D01*
X50287982Y-35170636D01*
X50360900Y-34967967D01*
X50413609Y-34814973D01*
X50448835Y-34702116D01*
X50469306Y-34619858D01*
X50477748Y-34558662D01*
X50476955Y-34509674D01*
X50453748Y-34425946D01*
X50413632Y-34388514D01*
X50370585Y-34401325D01*
X50338584Y-34468329D01*
X50338108Y-34470452D01*
X50311487Y-34573432D01*
X50290618Y-34613445D01*
X50275244Y-34590738D01*
X50267693Y-34538479D01*
X50247544Y-34449694D01*
X50212679Y-34385893D01*
X50207417Y-34380927D01*
X50154305Y-34363335D01*
X50113303Y-34399002D01*
G36*
X49713755Y-33997691D02*
G01*
X49700417Y-34019641D01*
X49695288Y-34073889D01*
X49731546Y-34123678D01*
X49817763Y-34179133D01*
X49849553Y-34195797D01*
X50037969Y-34260026D01*
X50240380Y-34274924D01*
X50366741Y-34256473D01*
X50468338Y-34221395D01*
X50556971Y-34173862D01*
X50625887Y-34121669D01*
X50668331Y-34072611D01*
X50677550Y-34034483D01*
X50646788Y-34015082D01*
X50569813Y-34022087D01*
X50452925Y-34039172D01*
X50305787Y-34048326D01*
X50148124Y-34049724D01*
X49999661Y-34043544D01*
X49880122Y-34029961D01*
X49822293Y-34015409D01*
X49749492Y-33991768D01*
X49713755Y-33997691D01*
G37*
X49713755Y-33997691D02*
X49700417Y-34019641D01*
X49695288Y-34073889D01*
X49731546Y-34123678D01*
X49817763Y-34179133D01*
X49849553Y-34195797D01*
X50037969Y-34260026D01*
X50240380Y-34274924D01*
X50366741Y-34256473D01*
X50468338Y-34221395D01*
X50556971Y-34173862D01*
X50625887Y-34121669D01*
X50668331Y-34072611D01*
X50677550Y-34034483D01*
X50646788Y-34015082D01*
X50569813Y-34022087D01*
X50452925Y-34039172D01*
X50305787Y-34048326D01*
X50148124Y-34049724D01*
X49999661Y-34043544D01*
X49880122Y-34029961D01*
X49822293Y-34015409D01*
X49749492Y-33991768D01*
X49713755Y-33997691D01*
G36*
X50526342Y-33490399D02*
G01*
X50458688Y-33575572D01*
X50401001Y-33683391D01*
X50393127Y-33751829D01*
X50435065Y-33780886D01*
X50452371Y-33782000D01*
X50514445Y-33753384D01*
X50563496Y-33671894D01*
X50600162Y-33558197D01*
X50602554Y-33486704D01*
X50576127Y-33462433D01*
X50526342Y-33490399D01*
G37*
X50526342Y-33490399D02*
X50458688Y-33575572D01*
X50401001Y-33683391D01*
X50393127Y-33751829D01*
X50435065Y-33780886D01*
X50452371Y-33782000D01*
X50514445Y-33753384D01*
X50563496Y-33671894D01*
X50600162Y-33558197D01*
X50602554Y-33486704D01*
X50576127Y-33462433D01*
X50526342Y-33490399D01*
G36*
X49793589Y-33428094D02*
G01*
X49785629Y-33494421D01*
X49790920Y-33577550D01*
X49808510Y-33655048D01*
X49828198Y-33694687D01*
X49876281Y-33730653D01*
X49938492Y-33749523D01*
X49989821Y-33746916D01*
X50006250Y-33725870D01*
X49989806Y-33686856D01*
X49948397Y-33617267D01*
X49926875Y-33584679D01*
X49878401Y-33506338D01*
X49850316Y-33447388D01*
X49847500Y-33434434D01*
X49824345Y-33402252D01*
X49815750Y-33401000D01*
X49793589Y-33428094D01*
G37*
X49793589Y-33428094D02*
X49785629Y-33494421D01*
X49790920Y-33577550D01*
X49808510Y-33655048D01*
X49828198Y-33694687D01*
X49876281Y-33730653D01*
X49938492Y-33749523D01*
X49989821Y-33746916D01*
X50006250Y-33725870D01*
X49989806Y-33686856D01*
X49948397Y-33617267D01*
X49926875Y-33584679D01*
X49878401Y-33506338D01*
X49850316Y-33447388D01*
X49847500Y-33434434D01*
X49824345Y-33402252D01*
X49815750Y-33401000D01*
X49793589Y-33428094D01*
G36*
X51885158Y-31458267D02*
G01*
X51879500Y-31493953D01*
X51901013Y-31566150D01*
X51958024Y-31665622D01*
X52039243Y-31776716D01*
X52133380Y-31883775D01*
X52216165Y-31960769D01*
X52339711Y-32047715D01*
X52461753Y-32109020D01*
X52567387Y-32138729D01*
X52641710Y-32130887D01*
X52641819Y-32130829D01*
X52708623Y-32125938D01*
X52769022Y-32148601D01*
X52844473Y-32178759D01*
X52920473Y-32192582D01*
X52975266Y-32187890D01*
X52989344Y-32170687D01*
X52969758Y-32137151D01*
X52918503Y-32067388D01*
X52844828Y-31973733D01*
X52804803Y-31924625D01*
X52697749Y-31805561D01*
X52609851Y-31729399D01*
X52545638Y-31698541D01*
X52509642Y-31715393D01*
X52504224Y-31765071D01*
X52496507Y-31788400D01*
X52462251Y-31765043D01*
X52397031Y-31691982D01*
X52396960Y-31691896D01*
X52308757Y-31601187D01*
X52238579Y-31565098D01*
X52216736Y-31564650D01*
X52145771Y-31547546D01*
X52066606Y-31490094D01*
X52063826Y-31487333D01*
X51987669Y-31432104D01*
X51923725Y-31422573D01*
X51885158Y-31458267D01*
G37*
X51885158Y-31458267D02*
X51879500Y-31493953D01*
X51901013Y-31566150D01*
X51958024Y-31665622D01*
X52039243Y-31776716D01*
X52133380Y-31883775D01*
X52216165Y-31960769D01*
X52339711Y-32047715D01*
X52461753Y-32109020D01*
X52567387Y-32138729D01*
X52641710Y-32130887D01*
X52641819Y-32130829D01*
X52708623Y-32125938D01*
X52769022Y-32148601D01*
X52844473Y-32178759D01*
X52920473Y-32192582D01*
X52975266Y-32187890D01*
X52989344Y-32170687D01*
X52969758Y-32137151D01*
X52918503Y-32067388D01*
X52844828Y-31973733D01*
X52804803Y-31924625D01*
X52697749Y-31805561D01*
X52609851Y-31729399D01*
X52545638Y-31698541D01*
X52509642Y-31715393D01*
X52504224Y-31765071D01*
X52496507Y-31788400D01*
X52462251Y-31765043D01*
X52397031Y-31691982D01*
X52396960Y-31691896D01*
X52308757Y-31601187D01*
X52238579Y-31565098D01*
X52216736Y-31564650D01*
X52145771Y-31547546D01*
X52066606Y-31490094D01*
X52063826Y-31487333D01*
X51987669Y-31432104D01*
X51923725Y-31422573D01*
X51885158Y-31458267D01*
G36*
X50573586Y-31811717D02*
G01*
X50559429Y-31854141D01*
X50603670Y-31909380D01*
X50646859Y-31939431D01*
X50746928Y-31991003D01*
X50811254Y-31998452D01*
X50849229Y-31962324D01*
X50853917Y-31951429D01*
X50846815Y-31893120D01*
X50796371Y-31836719D01*
X50721420Y-31797031D01*
X50646167Y-31788106D01*
X50573586Y-31811717D01*
G37*
X50573586Y-31811717D02*
X50559429Y-31854141D01*
X50603670Y-31909380D01*
X50646859Y-31939431D01*
X50746928Y-31991003D01*
X50811254Y-31998452D01*
X50849229Y-31962324D01*
X50853917Y-31951429D01*
X50846815Y-31893120D01*
X50796371Y-31836719D01*
X50721420Y-31797031D01*
X50646167Y-31788106D01*
X50573586Y-31811717D01*
G36*
X48989622Y-30671986D02*
G01*
X48994282Y-30734880D01*
X49025922Y-30825576D01*
X49085500Y-30935261D01*
X49148488Y-31040227D01*
X49174444Y-31103887D01*
X49164058Y-31136020D01*
X49118017Y-31146405D01*
X49100379Y-31146750D01*
X49033968Y-31155609D01*
X49003788Y-31185235D01*
X49011729Y-31240200D01*
X49059685Y-31325073D01*
X49149549Y-31444427D01*
X49283212Y-31602834D01*
X49294618Y-31615915D01*
X49376537Y-31693403D01*
X49460189Y-31728730D01*
X49516868Y-31735742D01*
X49598175Y-31741361D01*
X49646460Y-31745881D01*
X49650833Y-31746687D01*
X49636222Y-31766928D01*
X49587741Y-31812506D01*
X49576030Y-31822693D01*
X49522926Y-31875991D01*
X49517168Y-31910856D01*
X49534572Y-31930065D01*
X49585885Y-31946274D01*
X49664029Y-31922923D01*
X49680813Y-31915111D01*
X49749155Y-31871675D01*
X49783159Y-31829358D01*
X49784000Y-31823614D01*
X49803684Y-31785704D01*
X49843974Y-31792072D01*
X49863375Y-31813500D01*
X49909314Y-31842714D01*
X49928749Y-31845250D01*
X49963535Y-31819536D01*
X49971387Y-31751242D01*
X49955589Y-31653633D01*
X49919426Y-31539978D01*
X49913939Y-31527979D01*
X49704468Y-31527979D01*
X49704049Y-31528682D01*
X49652926Y-31558803D01*
X49576255Y-31544671D01*
X49489710Y-31490334D01*
X49464058Y-31466692D01*
X49394991Y-31376136D01*
X49369558Y-31296584D01*
X49383028Y-31238818D01*
X49430666Y-31213622D01*
X49507741Y-31231778D01*
X49554867Y-31259802D01*
X49617052Y-31320066D01*
X49670574Y-31399016D01*
X49703642Y-31475403D01*
X49704468Y-31527979D01*
X49913939Y-31527979D01*
X49866182Y-31423544D01*
X49799142Y-31317598D01*
X49797637Y-31315618D01*
X49736999Y-31250717D01*
X49640424Y-31163300D01*
X49523888Y-31067414D01*
X49456948Y-31016064D01*
X49337479Y-30923352D01*
X49230075Y-30833580D01*
X49150171Y-30759949D01*
X49122887Y-30730313D01*
X49055388Y-30661682D01*
X49010478Y-30644913D01*
X48989622Y-30671986D01*
G37*
X48989622Y-30671986D02*
X48994282Y-30734880D01*
X49025922Y-30825576D01*
X49085500Y-30935261D01*
X49148488Y-31040227D01*
X49174444Y-31103887D01*
X49164058Y-31136020D01*
X49118017Y-31146405D01*
X49100379Y-31146750D01*
X49033968Y-31155609D01*
X49003788Y-31185235D01*
X49011729Y-31240200D01*
X49059685Y-31325073D01*
X49149549Y-31444427D01*
X49283212Y-31602834D01*
X49294618Y-31615915D01*
X49376537Y-31693403D01*
X49460189Y-31728730D01*
X49516868Y-31735742D01*
X49598175Y-31741361D01*
X49646460Y-31745881D01*
X49650833Y-31746687D01*
X49636222Y-31766928D01*
X49587741Y-31812506D01*
X49576030Y-31822693D01*
X49522926Y-31875991D01*
X49517168Y-31910856D01*
X49534572Y-31930065D01*
X49585885Y-31946274D01*
X49664029Y-31922923D01*
X49680813Y-31915111D01*
X49749155Y-31871675D01*
X49783159Y-31829358D01*
X49784000Y-31823614D01*
X49803684Y-31785704D01*
X49843974Y-31792072D01*
X49863375Y-31813500D01*
X49909314Y-31842714D01*
X49928749Y-31845250D01*
X49963535Y-31819536D01*
X49971387Y-31751242D01*
X49955589Y-31653633D01*
X49919426Y-31539978D01*
X49913939Y-31527979D01*
X49704468Y-31527979D01*
X49704049Y-31528682D01*
X49652926Y-31558803D01*
X49576255Y-31544671D01*
X49489710Y-31490334D01*
X49464058Y-31466692D01*
X49394991Y-31376136D01*
X49369558Y-31296584D01*
X49383028Y-31238818D01*
X49430666Y-31213622D01*
X49507741Y-31231778D01*
X49554867Y-31259802D01*
X49617052Y-31320066D01*
X49670574Y-31399016D01*
X49703642Y-31475403D01*
X49704468Y-31527979D01*
X49913939Y-31527979D01*
X49866182Y-31423544D01*
X49799142Y-31317598D01*
X49797637Y-31315618D01*
X49736999Y-31250717D01*
X49640424Y-31163300D01*
X49523888Y-31067414D01*
X49456948Y-31016064D01*
X49337479Y-30923352D01*
X49230075Y-30833580D01*
X49150171Y-30759949D01*
X49122887Y-30730313D01*
X49055388Y-30661682D01*
X49010478Y-30644913D01*
X48989622Y-30671986D01*
G36*
X51126353Y-30726559D02*
G01*
X51092530Y-30766693D01*
X51044870Y-30817767D01*
X50962160Y-30884712D01*
X50882140Y-30939976D01*
X50767445Y-31023580D01*
X50656001Y-31121141D01*
X50600000Y-31179658D01*
X50539490Y-31266841D01*
X50473677Y-31387132D01*
X50411031Y-31521526D01*
X50360022Y-31651018D01*
X50329121Y-31756604D01*
X50323750Y-31799441D01*
X50348035Y-31835770D01*
X50412906Y-31836564D01*
X50506390Y-31801922D01*
X50514250Y-31797883D01*
X50592873Y-31765889D01*
X50700735Y-31732632D01*
X50752375Y-31719600D01*
X50907506Y-31660502D01*
X51012203Y-31585256D01*
X51083819Y-31500365D01*
X51147798Y-31397502D01*
X51196784Y-31292917D01*
X51201723Y-31276218D01*
X50887250Y-31276218D01*
X50872115Y-31340570D01*
X50828791Y-31409737D01*
X50764032Y-31471644D01*
X50684597Y-31514221D01*
X50629344Y-31525737D01*
X50615910Y-31500261D01*
X50620134Y-31435409D01*
X50621784Y-31426645D01*
X50663258Y-31314735D01*
X50729629Y-31237778D01*
X50805918Y-31210250D01*
X50867436Y-31228754D01*
X50887250Y-31276218D01*
X51201723Y-31276218D01*
X51223424Y-31202859D01*
X51220363Y-31143576D01*
X51215278Y-31136577D01*
X51171265Y-31120752D01*
X51142900Y-31140400D01*
X51079302Y-31173849D01*
X51047124Y-31178500D01*
X51020547Y-31171027D01*
X51023246Y-31141490D01*
X51058773Y-31079210D01*
X51101099Y-31016187D01*
X51167495Y-30903735D01*
X51204938Y-30806552D01*
X51210847Y-30735952D01*
X51182640Y-30703247D01*
X51172763Y-30702250D01*
X51126353Y-30726559D01*
G37*
X51126353Y-30726559D02*
X51092530Y-30766693D01*
X51044870Y-30817767D01*
X50962160Y-30884712D01*
X50882140Y-30939976D01*
X50767445Y-31023580D01*
X50656001Y-31121141D01*
X50600000Y-31179658D01*
X50539490Y-31266841D01*
X50473677Y-31387132D01*
X50411031Y-31521526D01*
X50360022Y-31651018D01*
X50329121Y-31756604D01*
X50323750Y-31799441D01*
X50348035Y-31835770D01*
X50412906Y-31836564D01*
X50506390Y-31801922D01*
X50514250Y-31797883D01*
X50592873Y-31765889D01*
X50700735Y-31732632D01*
X50752375Y-31719600D01*
X50907506Y-31660502D01*
X51012203Y-31585256D01*
X51083819Y-31500365D01*
X51147798Y-31397502D01*
X51196784Y-31292917D01*
X51201723Y-31276218D01*
X50887250Y-31276218D01*
X50872115Y-31340570D01*
X50828791Y-31409737D01*
X50764032Y-31471644D01*
X50684597Y-31514221D01*
X50629344Y-31525737D01*
X50615910Y-31500261D01*
X50620134Y-31435409D01*
X50621784Y-31426645D01*
X50663258Y-31314735D01*
X50729629Y-31237778D01*
X50805918Y-31210250D01*
X50867436Y-31228754D01*
X50887250Y-31276218D01*
X51201723Y-31276218D01*
X51223424Y-31202859D01*
X51220363Y-31143576D01*
X51215278Y-31136577D01*
X51171265Y-31120752D01*
X51142900Y-31140400D01*
X51079302Y-31173849D01*
X51047124Y-31178500D01*
X51020547Y-31171027D01*
X51023246Y-31141490D01*
X51058773Y-31079210D01*
X51101099Y-31016187D01*
X51167495Y-30903735D01*
X51204938Y-30806552D01*
X51210847Y-30735952D01*
X51182640Y-30703247D01*
X51172763Y-30702250D01*
X51126353Y-30726559D01*
G36*
X51102030Y-29602326D02*
G01*
X51065818Y-29646496D01*
X51054000Y-29717003D01*
X51044380Y-29787003D01*
X51008104Y-29812028D01*
X50989504Y-29813250D01*
X50928782Y-29837241D01*
X50907114Y-29868812D01*
X50788563Y-30168447D01*
X50637917Y-30424907D01*
X50602369Y-30473547D01*
X50471818Y-30657403D01*
X50382374Y-30812645D01*
X50327369Y-30952489D01*
X50302966Y-31067273D01*
X50296817Y-31165864D01*
X50312987Y-31205313D01*
X50350705Y-31185626D01*
X50409197Y-31106814D01*
X50434126Y-31065789D01*
X50494461Y-30974898D01*
X50581991Y-30857697D01*
X50681105Y-30734778D01*
X50716933Y-30692726D01*
X50924700Y-30438588D01*
X51079686Y-30216022D01*
X51183027Y-30023056D01*
X51235860Y-29857714D01*
X51243803Y-29777450D01*
X51227213Y-29676661D01*
X51182365Y-29612794D01*
X51118743Y-29597559D01*
X51102030Y-29602326D01*
G37*
X51102030Y-29602326D02*
X51065818Y-29646496D01*
X51054000Y-29717003D01*
X51044380Y-29787003D01*
X51008104Y-29812028D01*
X50989504Y-29813250D01*
X50928782Y-29837241D01*
X50907114Y-29868812D01*
X50788563Y-30168447D01*
X50637917Y-30424907D01*
X50602369Y-30473547D01*
X50471818Y-30657403D01*
X50382374Y-30812645D01*
X50327369Y-30952489D01*
X50302966Y-31067273D01*
X50296817Y-31165864D01*
X50312987Y-31205313D01*
X50350705Y-31185626D01*
X50409197Y-31106814D01*
X50434126Y-31065789D01*
X50494461Y-30974898D01*
X50581991Y-30857697D01*
X50681105Y-30734778D01*
X50716933Y-30692726D01*
X50924700Y-30438588D01*
X51079686Y-30216022D01*
X51183027Y-30023056D01*
X51235860Y-29857714D01*
X51243803Y-29777450D01*
X51227213Y-29676661D01*
X51182365Y-29612794D01*
X51118743Y-29597559D01*
X51102030Y-29602326D01*
G36*
X49060013Y-29677767D02*
G01*
X49037175Y-29758672D01*
X49031297Y-29861889D01*
X49044963Y-29973912D01*
X49067269Y-30049624D01*
X49130048Y-30181840D01*
X49218582Y-30308114D01*
X49342270Y-30439489D01*
X49510511Y-30587006D01*
X49556478Y-30624364D01*
X49680932Y-30728466D01*
X49765834Y-30812127D01*
X49824167Y-30890571D01*
X49868913Y-30979027D01*
X49878519Y-31002071D01*
X49930873Y-31109160D01*
X49978146Y-31167117D01*
X50014836Y-31173179D01*
X50035439Y-31124580D01*
X50038000Y-31082194D01*
X50009198Y-30940776D01*
X49923380Y-30774660D01*
X49781428Y-30585226D01*
X49587793Y-30377388D01*
X49412674Y-30192039D01*
X49289142Y-30032663D01*
X49213650Y-29893728D01*
X49182651Y-29769702D01*
X49181448Y-29743686D01*
X49169287Y-29672650D01*
X49146234Y-29636915D01*
X49097228Y-29632679D01*
X49060013Y-29677767D01*
G37*
X49060013Y-29677767D02*
X49037175Y-29758672D01*
X49031297Y-29861889D01*
X49044963Y-29973912D01*
X49067269Y-30049624D01*
X49130048Y-30181840D01*
X49218582Y-30308114D01*
X49342270Y-30439489D01*
X49510511Y-30587006D01*
X49556478Y-30624364D01*
X49680932Y-30728466D01*
X49765834Y-30812127D01*
X49824167Y-30890571D01*
X49868913Y-30979027D01*
X49878519Y-31002071D01*
X49930873Y-31109160D01*
X49978146Y-31167117D01*
X50014836Y-31173179D01*
X50035439Y-31124580D01*
X50038000Y-31082194D01*
X50009198Y-30940776D01*
X49923380Y-30774660D01*
X49781428Y-30585226D01*
X49587793Y-30377388D01*
X49412674Y-30192039D01*
X49289142Y-30032663D01*
X49213650Y-29893728D01*
X49182651Y-29769702D01*
X49181448Y-29743686D01*
X49169287Y-29672650D01*
X49146234Y-29636915D01*
X49097228Y-29632679D01*
X49060013Y-29677767D01*
G36*
X50370285Y-29951071D02*
G01*
X50319786Y-29995185D01*
X50264814Y-30060328D01*
X50219304Y-30129693D01*
X50197189Y-30186467D01*
X50196750Y-30192877D01*
X50183093Y-30257657D01*
X50150306Y-30266073D01*
X50110661Y-30216949D01*
X50103692Y-30201783D01*
X50059119Y-30117180D01*
X50005599Y-30042357D01*
X49955747Y-29992360D01*
X49922177Y-29982232D01*
X49920659Y-29983508D01*
X49916163Y-30023320D01*
X49926507Y-30103758D01*
X49940744Y-30170568D01*
X49970740Y-30296984D01*
X50004894Y-30445701D01*
X50026202Y-30541042D01*
X50054579Y-30652954D01*
X50084112Y-30742705D01*
X50106049Y-30787105D01*
X50169100Y-30826634D01*
X50230678Y-30806452D01*
X50256835Y-30772132D01*
X50275998Y-30711447D01*
X50295173Y-30610895D01*
X50308188Y-30510194D01*
X50327818Y-30366775D01*
X50356001Y-30217564D01*
X50375866Y-30135274D01*
X50398259Y-30038424D01*
X50406590Y-29967939D01*
X50402381Y-29944796D01*
X50370285Y-29951071D01*
G37*
X50370285Y-29951071D02*
X50319786Y-29995185D01*
X50264814Y-30060328D01*
X50219304Y-30129693D01*
X50197189Y-30186467D01*
X50196750Y-30192877D01*
X50183093Y-30257657D01*
X50150306Y-30266073D01*
X50110661Y-30216949D01*
X50103692Y-30201783D01*
X50059119Y-30117180D01*
X50005599Y-30042357D01*
X49955747Y-29992360D01*
X49922177Y-29982232D01*
X49920659Y-29983508D01*
X49916163Y-30023320D01*
X49926507Y-30103758D01*
X49940744Y-30170568D01*
X49970740Y-30296984D01*
X50004894Y-30445701D01*
X50026202Y-30541042D01*
X50054579Y-30652954D01*
X50084112Y-30742705D01*
X50106049Y-30787105D01*
X50169100Y-30826634D01*
X50230678Y-30806452D01*
X50256835Y-30772132D01*
X50275998Y-30711447D01*
X50295173Y-30610895D01*
X50308188Y-30510194D01*
X50327818Y-30366775D01*
X50356001Y-30217564D01*
X50375866Y-30135274D01*
X50398259Y-30038424D01*
X50406590Y-29967939D01*
X50402381Y-29944796D01*
X50370285Y-29951071D01*
G36*
X47329290Y-31789510D02*
G01*
X47262041Y-31829227D01*
X47239720Y-31849530D01*
X47189904Y-31893214D01*
X47161437Y-31892085D01*
X47142893Y-31865405D01*
X47105951Y-31821588D01*
X47087166Y-31813500D01*
X47041106Y-31832599D01*
X46965890Y-31881780D01*
X46876665Y-31948864D01*
X46788584Y-32021675D01*
X46716793Y-32088035D01*
X46676444Y-32135768D01*
X46672500Y-32146809D01*
X46690570Y-32189260D01*
X46743406Y-32180635D01*
X46828948Y-32121588D01*
X46872705Y-32083223D01*
X46952681Y-32015857D01*
X47008087Y-31980058D01*
X47031893Y-31977517D01*
X47017070Y-32009931D01*
X46976324Y-32058253D01*
X46926820Y-32122686D01*
X46925916Y-32160692D01*
X46935351Y-32168891D01*
X46969536Y-32187314D01*
X47002832Y-32187871D01*
X47052352Y-32165378D01*
X47135208Y-32114651D01*
X47154289Y-32102562D01*
X47277238Y-32010861D01*
X47362924Y-31918562D01*
X47401538Y-31836726D01*
X47402750Y-31822310D01*
X47381655Y-31786293D01*
X47329290Y-31789510D01*
G37*
X47329290Y-31789510D02*
X47262041Y-31829227D01*
X47239720Y-31849530D01*
X47189904Y-31893214D01*
X47161437Y-31892085D01*
X47142893Y-31865405D01*
X47105951Y-31821588D01*
X47087166Y-31813500D01*
X47041106Y-31832599D01*
X46965890Y-31881780D01*
X46876665Y-31948864D01*
X46788584Y-32021675D01*
X46716793Y-32088035D01*
X46676444Y-32135768D01*
X46672500Y-32146809D01*
X46690570Y-32189260D01*
X46743406Y-32180635D01*
X46828948Y-32121588D01*
X46872705Y-32083223D01*
X46952681Y-32015857D01*
X47008087Y-31980058D01*
X47031893Y-31977517D01*
X47017070Y-32009931D01*
X46976324Y-32058253D01*
X46926820Y-32122686D01*
X46925916Y-32160692D01*
X46935351Y-32168891D01*
X46969536Y-32187314D01*
X47002832Y-32187871D01*
X47052352Y-32165378D01*
X47135208Y-32114651D01*
X47154289Y-32102562D01*
X47277238Y-32010861D01*
X47362924Y-31918562D01*
X47401538Y-31836726D01*
X47402750Y-31822310D01*
X47381655Y-31786293D01*
X47329290Y-31789510D01*
G36*
X48300509Y-31550383D02*
G01*
X48216385Y-31623960D01*
X48166395Y-31678562D01*
X48094792Y-31755731D01*
X48057795Y-31783275D01*
X48052805Y-31763029D01*
X48054106Y-31757937D01*
X48051689Y-31701356D01*
X48014728Y-31685275D01*
X47960922Y-31714097D01*
X47945221Y-31730847D01*
X47886254Y-31761679D01*
X47852008Y-31760443D01*
X47807419Y-31769619D01*
X47750164Y-31822808D01*
X47673166Y-31926643D01*
X47670613Y-31930408D01*
X47606972Y-32025554D01*
X47558490Y-32100074D01*
X47535300Y-32138380D01*
X47535042Y-32138937D01*
X47544224Y-32161643D01*
X47589029Y-32161151D01*
X47647768Y-32141601D01*
X47698085Y-32107808D01*
X47750254Y-32071366D01*
X47803731Y-32084877D01*
X47816492Y-32092501D01*
X47887917Y-32111216D01*
X47973972Y-32083021D01*
X48080161Y-32004956D01*
X48201125Y-31885742D01*
X48320769Y-31748365D01*
X48389563Y-31646047D01*
X48408501Y-31577176D01*
X48402470Y-31558843D01*
X48361068Y-31529422D01*
X48300509Y-31550383D01*
G37*
X48300509Y-31550383D02*
X48216385Y-31623960D01*
X48166395Y-31678562D01*
X48094792Y-31755731D01*
X48057795Y-31783275D01*
X48052805Y-31763029D01*
X48054106Y-31757937D01*
X48051689Y-31701356D01*
X48014728Y-31685275D01*
X47960922Y-31714097D01*
X47945221Y-31730847D01*
X47886254Y-31761679D01*
X47852008Y-31760443D01*
X47807419Y-31769619D01*
X47750164Y-31822808D01*
X47673166Y-31926643D01*
X47670613Y-31930408D01*
X47606972Y-32025554D01*
X47558490Y-32100074D01*
X47535300Y-32138380D01*
X47535042Y-32138937D01*
X47544224Y-32161643D01*
X47589029Y-32161151D01*
X47647768Y-32141601D01*
X47698085Y-32107808D01*
X47750254Y-32071366D01*
X47803731Y-32084877D01*
X47816492Y-32092501D01*
X47887917Y-32111216D01*
X47973972Y-32083021D01*
X48080161Y-32004956D01*
X48201125Y-31885742D01*
X48320769Y-31748365D01*
X48389563Y-31646047D01*
X48408501Y-31577176D01*
X48402470Y-31558843D01*
X48361068Y-31529422D01*
X48300509Y-31550383D01*
G36*
X47578742Y-31741985D02*
G01*
X47521670Y-31803283D01*
X47451967Y-31887287D01*
X47381234Y-31979135D01*
X47321072Y-32063970D01*
X47283082Y-32126931D01*
X47275750Y-32148396D01*
X47301471Y-32161384D01*
X47320433Y-32162750D01*
X47362933Y-32140516D01*
X47431390Y-32082231D01*
X47510933Y-32000566D01*
X47598048Y-31891329D01*
X47646649Y-31803127D01*
X47654180Y-31743126D01*
X47618086Y-31718493D01*
X47611580Y-31718250D01*
X47578742Y-31741985D01*
G37*
X47578742Y-31741985D02*
X47521670Y-31803283D01*
X47451967Y-31887287D01*
X47381234Y-31979135D01*
X47321072Y-32063970D01*
X47283082Y-32126931D01*
X47275750Y-32148396D01*
X47301471Y-32161384D01*
X47320433Y-32162750D01*
X47362933Y-32140516D01*
X47431390Y-32082231D01*
X47510933Y-32000566D01*
X47598048Y-31891329D01*
X47646649Y-31803127D01*
X47654180Y-31743126D01*
X47618086Y-31718493D01*
X47611580Y-31718250D01*
X47578742Y-31741985D01*
%TO.C,U3*%
D11*
X36956904Y-100777380D02*
X36956904Y-101586904D01*
X36909285Y-101682142D01*
X36861666Y-101729761D01*
X36766428Y-101777380D01*
X36575952Y-101777380D01*
X36480714Y-101729761D01*
X36433095Y-101682142D01*
X36385476Y-101586904D01*
X36385476Y-100777380D01*
X36004523Y-100777380D02*
X35385476Y-100777380D01*
X35718809Y-101158333D01*
X35575952Y-101158333D01*
X35480714Y-101205952D01*
X35433095Y-101253571D01*
X35385476Y-101348809D01*
X35385476Y-101586904D01*
X35433095Y-101682142D01*
X35480714Y-101729761D01*
X35575952Y-101777380D01*
X35861666Y-101777380D01*
X35956904Y-101729761D01*
X36004523Y-101682142D01*
%TO.C,U1*%
X31241904Y-104002380D02*
X31241904Y-104811904D01*
X31194285Y-104907142D01*
X31146666Y-104954761D01*
X31051428Y-105002380D01*
X30860952Y-105002380D01*
X30765714Y-104954761D01*
X30718095Y-104907142D01*
X30670476Y-104811904D01*
X30670476Y-104002380D01*
X29670476Y-105002380D02*
X30241904Y-105002380D01*
X29956190Y-105002380D02*
X29956190Y-104002380D01*
X30051428Y-104145238D01*
X30146666Y-104240476D01*
X30241904Y-104288095D01*
%TO.C,RV10*%
X20121428Y-114557380D02*
X20454761Y-114081190D01*
X20692857Y-114557380D02*
X20692857Y-113557380D01*
X20311904Y-113557380D01*
X20216666Y-113605000D01*
X20169047Y-113652619D01*
X20121428Y-113747857D01*
X20121428Y-113890714D01*
X20169047Y-113985952D01*
X20216666Y-114033571D01*
X20311904Y-114081190D01*
X20692857Y-114081190D01*
X19835714Y-113557380D02*
X19502380Y-114557380D01*
X19169047Y-113557380D01*
X18311904Y-114557380D02*
X18883333Y-114557380D01*
X18597619Y-114557380D02*
X18597619Y-113557380D01*
X18692857Y-113700238D01*
X18788095Y-113795476D01*
X18883333Y-113843095D01*
X17692857Y-113557380D02*
X17597619Y-113557380D01*
X17502380Y-113605000D01*
X17454761Y-113652619D01*
X17407142Y-113747857D01*
X17359523Y-113938333D01*
X17359523Y-114176428D01*
X17407142Y-114366904D01*
X17454761Y-114462142D01*
X17502380Y-114509761D01*
X17597619Y-114557380D01*
X17692857Y-114557380D01*
X17788095Y-114509761D01*
X17835714Y-114462142D01*
X17883333Y-114366904D01*
X17930952Y-114176428D01*
X17930952Y-113938333D01*
X17883333Y-113747857D01*
X17835714Y-113652619D01*
X17788095Y-113605000D01*
X17692857Y-113557380D01*
%TO.C,R5*%
X74461666Y-23397380D02*
X74795000Y-22921190D01*
X75033095Y-23397380D02*
X75033095Y-22397380D01*
X74652142Y-22397380D01*
X74556904Y-22445000D01*
X74509285Y-22492619D01*
X74461666Y-22587857D01*
X74461666Y-22730714D01*
X74509285Y-22825952D01*
X74556904Y-22873571D01*
X74652142Y-22921190D01*
X75033095Y-22921190D01*
X73556904Y-22397380D02*
X74033095Y-22397380D01*
X74080714Y-22873571D01*
X74033095Y-22825952D01*
X73937857Y-22778333D01*
X73699761Y-22778333D01*
X73604523Y-22825952D01*
X73556904Y-22873571D01*
X73509285Y-22968809D01*
X73509285Y-23206904D01*
X73556904Y-23302142D01*
X73604523Y-23349761D01*
X73699761Y-23397380D01*
X73937857Y-23397380D01*
X74033095Y-23349761D01*
X74080714Y-23302142D01*
%TO.C,R4*%
X36361666Y-74832380D02*
X36695000Y-74356190D01*
X36933095Y-74832380D02*
X36933095Y-73832380D01*
X36552142Y-73832380D01*
X36456904Y-73880000D01*
X36409285Y-73927619D01*
X36361666Y-74022857D01*
X36361666Y-74165714D01*
X36409285Y-74260952D01*
X36456904Y-74308571D01*
X36552142Y-74356190D01*
X36933095Y-74356190D01*
X35504523Y-74165714D02*
X35504523Y-74832380D01*
X35742619Y-73784761D02*
X35980714Y-74499047D01*
X35361666Y-74499047D01*
%TO.C,R3*%
X36361666Y-57687380D02*
X36695000Y-57211190D01*
X36933095Y-57687380D02*
X36933095Y-56687380D01*
X36552142Y-56687380D01*
X36456904Y-56735000D01*
X36409285Y-56782619D01*
X36361666Y-56877857D01*
X36361666Y-57020714D01*
X36409285Y-57115952D01*
X36456904Y-57163571D01*
X36552142Y-57211190D01*
X36933095Y-57211190D01*
X36028333Y-56687380D02*
X35409285Y-56687380D01*
X35742619Y-57068333D01*
X35599761Y-57068333D01*
X35504523Y-57115952D01*
X35456904Y-57163571D01*
X35409285Y-57258809D01*
X35409285Y-57496904D01*
X35456904Y-57592142D01*
X35504523Y-57639761D01*
X35599761Y-57687380D01*
X35885476Y-57687380D01*
X35980714Y-57639761D01*
X36028333Y-57592142D01*
%TO.C,R2*%
X36361666Y-40542380D02*
X36695000Y-40066190D01*
X36933095Y-40542380D02*
X36933095Y-39542380D01*
X36552142Y-39542380D01*
X36456904Y-39590000D01*
X36409285Y-39637619D01*
X36361666Y-39732857D01*
X36361666Y-39875714D01*
X36409285Y-39970952D01*
X36456904Y-40018571D01*
X36552142Y-40066190D01*
X36933095Y-40066190D01*
X35980714Y-39637619D02*
X35933095Y-39590000D01*
X35837857Y-39542380D01*
X35599761Y-39542380D01*
X35504523Y-39590000D01*
X35456904Y-39637619D01*
X35409285Y-39732857D01*
X35409285Y-39828095D01*
X35456904Y-39970952D01*
X36028333Y-40542380D01*
X35409285Y-40542380D01*
%TO.C,R1*%
X36361666Y-23397380D02*
X36695000Y-22921190D01*
X36933095Y-23397380D02*
X36933095Y-22397380D01*
X36552142Y-22397380D01*
X36456904Y-22445000D01*
X36409285Y-22492619D01*
X36361666Y-22587857D01*
X36361666Y-22730714D01*
X36409285Y-22825952D01*
X36456904Y-22873571D01*
X36552142Y-22921190D01*
X36933095Y-22921190D01*
X35409285Y-23397380D02*
X35980714Y-23397380D01*
X35695000Y-23397380D02*
X35695000Y-22397380D01*
X35790238Y-22540238D01*
X35885476Y-22635476D01*
X35980714Y-22683095D01*
%TO.C,L1*%
X58586666Y-96967380D02*
X59062857Y-96967380D01*
X59062857Y-95967380D01*
X57729523Y-96967380D02*
X58300952Y-96967380D01*
X58015238Y-96967380D02*
X58015238Y-95967380D01*
X58110476Y-96110238D01*
X58205714Y-96205476D01*
X58300952Y-96253095D01*
%TO.C,J1*%
X50498333Y-59567380D02*
X50498333Y-60281666D01*
X50545952Y-60424523D01*
X50641190Y-60519761D01*
X50784047Y-60567380D01*
X50879285Y-60567380D01*
X49498333Y-60567380D02*
X50069761Y-60567380D01*
X49784047Y-60567380D02*
X49784047Y-59567380D01*
X49879285Y-59710238D01*
X49974523Y-59805476D01*
X50069761Y-59853095D01*
%TO.C,C7*%
X36996666Y-112697142D02*
X37044285Y-112744761D01*
X37187142Y-112792380D01*
X37282380Y-112792380D01*
X37425238Y-112744761D01*
X37520476Y-112649523D01*
X37568095Y-112554285D01*
X37615714Y-112363809D01*
X37615714Y-112220952D01*
X37568095Y-112030476D01*
X37520476Y-111935238D01*
X37425238Y-111840000D01*
X37282380Y-111792380D01*
X37187142Y-111792380D01*
X37044285Y-111840000D01*
X36996666Y-111887619D01*
X36663333Y-111792380D02*
X35996666Y-111792380D01*
X36425238Y-112792380D01*
%TO.C,C5*%
X31527142Y-98893333D02*
X31574761Y-98845714D01*
X31622380Y-98702857D01*
X31622380Y-98607619D01*
X31574761Y-98464761D01*
X31479523Y-98369523D01*
X31384285Y-98321904D01*
X31193809Y-98274285D01*
X31050952Y-98274285D01*
X30860476Y-98321904D01*
X30765238Y-98369523D01*
X30670000Y-98464761D01*
X30622380Y-98607619D01*
X30622380Y-98702857D01*
X30670000Y-98845714D01*
X30717619Y-98893333D01*
X30622380Y-99798095D02*
X30622380Y-99321904D01*
X31098571Y-99274285D01*
X31050952Y-99321904D01*
X31003333Y-99417142D01*
X31003333Y-99655238D01*
X31050952Y-99750476D01*
X31098571Y-99798095D01*
X31193809Y-99845714D01*
X31431904Y-99845714D01*
X31527142Y-99798095D01*
X31574761Y-99750476D01*
X31622380Y-99655238D01*
X31622380Y-99417142D01*
X31574761Y-99321904D01*
X31527142Y-99274285D01*
%TO.C,C4*%
X42322142Y-81748333D02*
X42369761Y-81700714D01*
X42417380Y-81557857D01*
X42417380Y-81462619D01*
X42369761Y-81319761D01*
X42274523Y-81224523D01*
X42179285Y-81176904D01*
X41988809Y-81129285D01*
X41845952Y-81129285D01*
X41655476Y-81176904D01*
X41560238Y-81224523D01*
X41465000Y-81319761D01*
X41417380Y-81462619D01*
X41417380Y-81557857D01*
X41465000Y-81700714D01*
X41512619Y-81748333D01*
X41750714Y-82605476D02*
X42417380Y-82605476D01*
X41369761Y-82367380D02*
X42084047Y-82129285D01*
X42084047Y-82748333D01*
%TO.C,C3*%
X23907142Y-107783333D02*
X23954761Y-107735714D01*
X24002380Y-107592857D01*
X24002380Y-107497619D01*
X23954761Y-107354761D01*
X23859523Y-107259523D01*
X23764285Y-107211904D01*
X23573809Y-107164285D01*
X23430952Y-107164285D01*
X23240476Y-107211904D01*
X23145238Y-107259523D01*
X23050000Y-107354761D01*
X23002380Y-107497619D01*
X23002380Y-107592857D01*
X23050000Y-107735714D01*
X23097619Y-107783333D01*
X23002380Y-108116666D02*
X23002380Y-108735714D01*
X23383333Y-108402380D01*
X23383333Y-108545238D01*
X23430952Y-108640476D01*
X23478571Y-108688095D01*
X23573809Y-108735714D01*
X23811904Y-108735714D01*
X23907142Y-108688095D01*
X23954761Y-108640476D01*
X24002380Y-108545238D01*
X24002380Y-108259523D01*
X23954761Y-108164285D01*
X23907142Y-108116666D01*
%TO.C,C2*%
X59221666Y-98782142D02*
X59269285Y-98829761D01*
X59412142Y-98877380D01*
X59507380Y-98877380D01*
X59650238Y-98829761D01*
X59745476Y-98734523D01*
X59793095Y-98639285D01*
X59840714Y-98448809D01*
X59840714Y-98305952D01*
X59793095Y-98115476D01*
X59745476Y-98020238D01*
X59650238Y-97925000D01*
X59507380Y-97877380D01*
X59412142Y-97877380D01*
X59269285Y-97925000D01*
X59221666Y-97972619D01*
X58840714Y-97972619D02*
X58793095Y-97925000D01*
X58697857Y-97877380D01*
X58459761Y-97877380D01*
X58364523Y-97925000D01*
X58316904Y-97972619D01*
X58269285Y-98067857D01*
X58269285Y-98163095D01*
X58316904Y-98305952D01*
X58888333Y-98877380D01*
X58269285Y-98877380D01*
%TO.C,C1*%
X49061666Y-98782142D02*
X49109285Y-98829761D01*
X49252142Y-98877380D01*
X49347380Y-98877380D01*
X49490238Y-98829761D01*
X49585476Y-98734523D01*
X49633095Y-98639285D01*
X49680714Y-98448809D01*
X49680714Y-98305952D01*
X49633095Y-98115476D01*
X49585476Y-98020238D01*
X49490238Y-97925000D01*
X49347380Y-97877380D01*
X49252142Y-97877380D01*
X49109285Y-97925000D01*
X49061666Y-97972619D01*
X48109285Y-98877380D02*
X48680714Y-98877380D01*
X48395000Y-98877380D02*
X48395000Y-97877380D01*
X48490238Y-98020238D01*
X48585476Y-98115476D01*
X48680714Y-98163095D01*
%TO.C,R6*%
X74461666Y-40542380D02*
X74795000Y-40066190D01*
X75033095Y-40542380D02*
X75033095Y-39542380D01*
X74652142Y-39542380D01*
X74556904Y-39590000D01*
X74509285Y-39637619D01*
X74461666Y-39732857D01*
X74461666Y-39875714D01*
X74509285Y-39970952D01*
X74556904Y-40018571D01*
X74652142Y-40066190D01*
X75033095Y-40066190D01*
X73604523Y-39542380D02*
X73795000Y-39542380D01*
X73890238Y-39590000D01*
X73937857Y-39637619D01*
X74033095Y-39780476D01*
X74080714Y-39970952D01*
X74080714Y-40351904D01*
X74033095Y-40447142D01*
X73985476Y-40494761D01*
X73890238Y-40542380D01*
X73699761Y-40542380D01*
X73604523Y-40494761D01*
X73556904Y-40447142D01*
X73509285Y-40351904D01*
X73509285Y-40113809D01*
X73556904Y-40018571D01*
X73604523Y-39970952D01*
X73699761Y-39923333D01*
X73890238Y-39923333D01*
X73985476Y-39970952D01*
X74033095Y-40018571D01*
X74080714Y-40113809D01*
%TO.C,R7*%
X74461666Y-57687380D02*
X74795000Y-57211190D01*
X75033095Y-57687380D02*
X75033095Y-56687380D01*
X74652142Y-56687380D01*
X74556904Y-56735000D01*
X74509285Y-56782619D01*
X74461666Y-56877857D01*
X74461666Y-57020714D01*
X74509285Y-57115952D01*
X74556904Y-57163571D01*
X74652142Y-57211190D01*
X75033095Y-57211190D01*
X74128333Y-56687380D02*
X73461666Y-56687380D01*
X73890238Y-57687380D01*
%TO.C,R8*%
X74461666Y-74832380D02*
X74795000Y-74356190D01*
X75033095Y-74832380D02*
X75033095Y-73832380D01*
X74652142Y-73832380D01*
X74556904Y-73880000D01*
X74509285Y-73927619D01*
X74461666Y-74022857D01*
X74461666Y-74165714D01*
X74509285Y-74260952D01*
X74556904Y-74308571D01*
X74652142Y-74356190D01*
X75033095Y-74356190D01*
X73890238Y-74260952D02*
X73985476Y-74213333D01*
X74033095Y-74165714D01*
X74080714Y-74070476D01*
X74080714Y-74022857D01*
X74033095Y-73927619D01*
X73985476Y-73880000D01*
X73890238Y-73832380D01*
X73699761Y-73832380D01*
X73604523Y-73880000D01*
X73556904Y-73927619D01*
X73509285Y-74022857D01*
X73509285Y-74070476D01*
X73556904Y-74165714D01*
X73604523Y-74213333D01*
X73699761Y-74260952D01*
X73890238Y-74260952D01*
X73985476Y-74308571D01*
X74033095Y-74356190D01*
X74080714Y-74451428D01*
X74080714Y-74641904D01*
X74033095Y-74737142D01*
X73985476Y-74784761D01*
X73890238Y-74832380D01*
X73699761Y-74832380D01*
X73604523Y-74784761D01*
X73556904Y-74737142D01*
X73509285Y-74641904D01*
X73509285Y-74451428D01*
X73556904Y-74356190D01*
X73604523Y-74308571D01*
X73699761Y-74260952D01*
%TO.C,R9*%
X20052380Y-98258333D02*
X19576190Y-97925000D01*
X20052380Y-97686904D02*
X19052380Y-97686904D01*
X19052380Y-98067857D01*
X19100000Y-98163095D01*
X19147619Y-98210714D01*
X19242857Y-98258333D01*
X19385714Y-98258333D01*
X19480952Y-98210714D01*
X19528571Y-98163095D01*
X19576190Y-98067857D01*
X19576190Y-97686904D01*
X20052380Y-98734523D02*
X20052380Y-98925000D01*
X20004761Y-99020238D01*
X19957142Y-99067857D01*
X19814285Y-99163095D01*
X19623809Y-99210714D01*
X19242857Y-99210714D01*
X19147619Y-99163095D01*
X19100000Y-99115476D01*
X19052380Y-99020238D01*
X19052380Y-98829761D01*
X19100000Y-98734523D01*
X19147619Y-98686904D01*
X19242857Y-98639285D01*
X19480952Y-98639285D01*
X19576190Y-98686904D01*
X19623809Y-98734523D01*
X19671428Y-98829761D01*
X19671428Y-99020238D01*
X19623809Y-99115476D01*
X19576190Y-99163095D01*
X19480952Y-99210714D01*
%TO.C,R10*%
X25302380Y-95242142D02*
X24826190Y-94908809D01*
X25302380Y-94670714D02*
X24302380Y-94670714D01*
X24302380Y-95051666D01*
X24350000Y-95146904D01*
X24397619Y-95194523D01*
X24492857Y-95242142D01*
X24635714Y-95242142D01*
X24730952Y-95194523D01*
X24778571Y-95146904D01*
X24826190Y-95051666D01*
X24826190Y-94670714D01*
X25302380Y-96194523D02*
X25302380Y-95623095D01*
X25302380Y-95908809D02*
X24302380Y-95908809D01*
X24445238Y-95813571D01*
X24540476Y-95718333D01*
X24588095Y-95623095D01*
X24302380Y-96813571D02*
X24302380Y-96908809D01*
X24350000Y-97004047D01*
X24397619Y-97051666D01*
X24492857Y-97099285D01*
X24683333Y-97146904D01*
X24921428Y-97146904D01*
X25111904Y-97099285D01*
X25207142Y-97051666D01*
X25254761Y-97004047D01*
X25302380Y-96908809D01*
X25302380Y-96813571D01*
X25254761Y-96718333D01*
X25207142Y-96670714D01*
X25111904Y-96623095D01*
X24921428Y-96575476D01*
X24683333Y-96575476D01*
X24492857Y-96623095D01*
X24397619Y-96670714D01*
X24350000Y-96718333D01*
X24302380Y-96813571D01*
%TO.C,R11*%
X19692857Y-116572380D02*
X20026190Y-116096190D01*
X20264285Y-116572380D02*
X20264285Y-115572380D01*
X19883333Y-115572380D01*
X19788095Y-115620000D01*
X19740476Y-115667619D01*
X19692857Y-115762857D01*
X19692857Y-115905714D01*
X19740476Y-116000952D01*
X19788095Y-116048571D01*
X19883333Y-116096190D01*
X20264285Y-116096190D01*
X18740476Y-116572380D02*
X19311904Y-116572380D01*
X19026190Y-116572380D02*
X19026190Y-115572380D01*
X19121428Y-115715238D01*
X19216666Y-115810476D01*
X19311904Y-115858095D01*
X17788095Y-116572380D02*
X18359523Y-116572380D01*
X18073809Y-116572380D02*
X18073809Y-115572380D01*
X18169047Y-115715238D01*
X18264285Y-115810476D01*
X18359523Y-115858095D01*
%TO.C,R12*%
X74197380Y-85717142D02*
X73721190Y-85383809D01*
X74197380Y-85145714D02*
X73197380Y-85145714D01*
X73197380Y-85526666D01*
X73245000Y-85621904D01*
X73292619Y-85669523D01*
X73387857Y-85717142D01*
X73530714Y-85717142D01*
X73625952Y-85669523D01*
X73673571Y-85621904D01*
X73721190Y-85526666D01*
X73721190Y-85145714D01*
X74197380Y-86669523D02*
X74197380Y-86098095D01*
X74197380Y-86383809D02*
X73197380Y-86383809D01*
X73340238Y-86288571D01*
X73435476Y-86193333D01*
X73483095Y-86098095D01*
X73292619Y-87050476D02*
X73245000Y-87098095D01*
X73197380Y-87193333D01*
X73197380Y-87431428D01*
X73245000Y-87526666D01*
X73292619Y-87574285D01*
X73387857Y-87621904D01*
X73483095Y-87621904D01*
X73625952Y-87574285D01*
X74197380Y-87002857D01*
X74197380Y-87621904D01*
%TO.C,J2*%
X50498333Y-61297380D02*
X50498333Y-62011666D01*
X50545952Y-62154523D01*
X50641190Y-62249761D01*
X50784047Y-62297380D01*
X50879285Y-62297380D01*
X50069761Y-61392619D02*
X50022142Y-61345000D01*
X49926904Y-61297380D01*
X49688809Y-61297380D01*
X49593571Y-61345000D01*
X49545952Y-61392619D01*
X49498333Y-61487857D01*
X49498333Y-61583095D01*
X49545952Y-61725952D01*
X50117380Y-62297380D01*
X49498333Y-62297380D01*
%TO.C,Y1*%
X54451190Y-108551190D02*
X54451190Y-109027380D01*
X54784523Y-108027380D02*
X54451190Y-108551190D01*
X54117857Y-108027380D01*
X53260714Y-109027380D02*
X53832142Y-109027380D01*
X53546428Y-109027380D02*
X53546428Y-108027380D01*
X53641666Y-108170238D01*
X53736904Y-108265476D01*
X53832142Y-108313095D01*
%TO.C,C8*%
X36996666Y-102012142D02*
X37044285Y-102059761D01*
X37187142Y-102107380D01*
X37282380Y-102107380D01*
X37425238Y-102059761D01*
X37520476Y-101964523D01*
X37568095Y-101869285D01*
X37615714Y-101678809D01*
X37615714Y-101535952D01*
X37568095Y-101345476D01*
X37520476Y-101250238D01*
X37425238Y-101155000D01*
X37282380Y-101107380D01*
X37187142Y-101107380D01*
X37044285Y-101155000D01*
X36996666Y-101202619D01*
X36425238Y-101535952D02*
X36520476Y-101488333D01*
X36568095Y-101440714D01*
X36615714Y-101345476D01*
X36615714Y-101297857D01*
X36568095Y-101202619D01*
X36520476Y-101155000D01*
X36425238Y-101107380D01*
X36234761Y-101107380D01*
X36139523Y-101155000D01*
X36091904Y-101202619D01*
X36044285Y-101297857D01*
X36044285Y-101345476D01*
X36091904Y-101440714D01*
X36139523Y-101488333D01*
X36234761Y-101535952D01*
X36425238Y-101535952D01*
X36520476Y-101583571D01*
X36568095Y-101631190D01*
X36615714Y-101726428D01*
X36615714Y-101916904D01*
X36568095Y-102012142D01*
X36520476Y-102059761D01*
X36425238Y-102107380D01*
X36234761Y-102107380D01*
X36139523Y-102059761D01*
X36091904Y-102012142D01*
X36044285Y-101916904D01*
X36044285Y-101726428D01*
X36091904Y-101631190D01*
X36139523Y-101583571D01*
X36234761Y-101535952D01*
%TO.C,U2*%
X56358919Y-83783576D02*
X55786499Y-84355996D01*
X55685484Y-84389668D01*
X55618140Y-84389668D01*
X55517125Y-84355996D01*
X55382438Y-84221309D01*
X55348766Y-84120294D01*
X55348766Y-84052950D01*
X55382438Y-83951935D01*
X55954858Y-83379515D01*
X55584468Y-83143813D02*
X55584468Y-83076470D01*
X55550797Y-82975454D01*
X55382438Y-82807096D01*
X55281423Y-82773424D01*
X55214079Y-82773424D01*
X55113064Y-82807096D01*
X55045720Y-82874439D01*
X54978377Y-83009126D01*
X54978377Y-83817248D01*
X54540644Y-83379515D01*
%TD*%
M02*
