M48
; DRILL file {KiCad 5.1.9} date Mon Mar 22 22:06:11 2021
; FORMAT={-:-/ absolute / inch / decimal}
; #@! TF.CreationDate,2021-03-22T22:06:11+01:00
; #@! TF.GenerationSoftware,Kicad,Pcbnew,5.1.9
FMAT,2
INCH
T1C0.0157
T2C0.0197
T3C0.0354
T4C0.0394
T5C0.0472
T6C0.0787
T7C0.1024
%
G90
G05
T1
X0.925Y-4.2
X1.4Y-4.275
X1.625Y-3.175
X1.64Y-3.29
X1.6415Y-3.4335
X1.6693Y-3.4057
X1.6972Y-3.3778
X1.725Y-3.35
X1.8Y-3.175
X1.825Y-1.95
X1.8451Y-3.7958
X1.875Y-3.53
X1.875Y-3.8215
X1.895Y-3.57
X1.915Y-3.53
X1.935Y-3.57
X1.955Y-3.53
X1.975Y-3.57
X1.975Y-3.8215
X1.995Y-3.53
X2.015Y-3.57
X2.035Y-3.53
X2.0417Y-3.1645
X2.055Y-3.57
X2.0745Y-3.1863
X2.075Y-3.53
X2.1072Y-3.2082
X2.14Y-3.23
X2.2071Y-3.3086
X2.23Y-3.23
X2.2358Y-3.3355
X2.2621Y-3.3648
X2.2702Y-3.2298
X2.3115Y-3.2593
X2.32Y-3.2199
X2.327Y-3.856
X2.36Y-3.65
X2.3713Y-3.189
X2.4582Y-3.3518
X2.46Y-3.65
X2.49Y-3.858
X2.4998Y-3.3498
X2.55Y-3.35
X2.78Y-3.47
X2.86Y-1.05
X2.86Y-1.72
X2.86Y-2.39
X2.86Y-3.07
T3
X1.575Y-0.975
X1.575Y-1.65
X1.575Y-2.325
X1.575Y-3.0
X1.675Y-0.975
X1.675Y-1.65
X1.675Y-2.325
X1.675Y-3.0
X3.075Y-0.975
X3.075Y-1.65
X3.075Y-2.325
X3.075Y-3.0
X3.175Y-0.975
X3.175Y-1.65
X3.175Y-2.325
X3.175Y-3.0
T4
X0.875Y-3.7
X0.875Y-3.8
X0.875Y-3.9
X0.875Y-4.0
X0.9031Y-1.25
X0.9031Y-1.925
X0.9031Y-2.6
X0.9031Y-3.275
X1.0016Y-1.25
X1.0016Y-1.925
X1.0016Y-2.6
X1.0016Y-3.275
X1.1Y-1.25
X1.1Y-1.925
X1.1Y-2.6
X1.1Y-3.275
X1.925Y-1.575
X1.925Y-1.675
X1.925Y-1.775
X1.925Y-1.875
X1.925Y-1.975
X1.925Y-2.075
X1.925Y-2.175
X1.925Y-2.275
X1.925Y-2.675
X1.925Y-2.775
X1.925Y-2.875
X2.025Y-1.575
X2.025Y-1.675
X2.025Y-1.775
X2.025Y-1.875
X2.025Y-1.975
X2.025Y-2.075
X2.025Y-2.175
X2.025Y-2.275
X2.025Y-2.675
X2.025Y-2.775
X2.025Y-2.875
X2.4031Y-1.25
X2.4031Y-1.925
X2.4031Y-2.6
X2.4031Y-3.275
X2.5016Y-1.25
X2.5016Y-1.925
X2.5016Y-2.6
X2.5016Y-3.275
X2.6Y-1.25
X2.6Y-1.925
X2.6Y-2.6
X2.6Y-3.275
T5
X2.7766Y-3.5744
X2.7766Y-4.1453
X2.875Y-4.1453
X2.9734Y-3.5744
X2.9734Y-4.1453
T6
X0.8283Y-0.9744
X0.8283Y-1.6494
X0.8283Y-2.3244
X0.8283Y-2.9994
X1.1748Y-0.9744
X1.1748Y-1.6494
X1.1748Y-2.3244
X1.1748Y-2.9994
X2.3283Y-0.9744
X2.3283Y-1.6494
X2.3283Y-2.3244
X2.3283Y-2.9994
X2.6748Y-0.9744
X2.6748Y-1.6494
X2.6748Y-2.3244
X2.6748Y-2.9994
T7
X2.6545Y-3.85
X3.0955Y-3.85
T2
G00X1.0976Y-4.425
M15
G01X1.1724Y-4.425
M16
G05
G00X1.6576Y-4.425
M15
G01X1.7324Y-4.425
M16
G05
G00X2.2176Y-4.425
M15
G01X2.2924Y-4.425
M16
G05
G00X2.7776Y-4.425
M15
G01X2.8524Y-4.425
M16
G05
T4
G00X1.035Y-4.5014
M15
G01X1.035Y-4.5486
M16
G05
G00X1.235Y-4.5014
M15
G01X1.235Y-4.5486
M16
G05
G00X1.595Y-4.5014
M15
G01X1.595Y-4.5486
M16
G05
G00X1.795Y-4.5014
M15
G01X1.795Y-4.5486
M16
G05
G00X2.155Y-4.5014
M15
G01X2.155Y-4.5486
M16
G05
G00X2.355Y-4.5014
M15
G01X2.355Y-4.5486
M16
G05
G00X2.715Y-4.5014
M15
G01X2.715Y-4.5486
M16
G05
G00X2.915Y-4.5014
M15
G01X2.915Y-4.5486
M16
G05
T0
M30
