%TF.GenerationSoftware,KiCad,Pcbnew,5.1.9*%
%TF.CreationDate,2021-03-22T22:06:03+01:00*%
%TF.ProjectId,control_voltage_eurorack_module,636f6e74-726f-46c5-9f76-6f6c74616765,rev?*%
%TF.SameCoordinates,Original*%
%TF.FileFunction,Paste,Bot*%
%TF.FilePolarity,Positive*%
%FSLAX46Y46*%
G04 Gerber Fmt 4.6, Leading zero omitted, Abs format (unit mm)*
G04 Created by KiCad (PCBNEW 5.1.9) date 2021-03-22 22:06:03*
%MOMM*%
%LPD*%
G01*
G04 APERTURE LIST*
%ADD10R,1.060000X0.650000*%
%ADD11R,1.300000X2.000000*%
%ADD12R,2.000000X2.000000*%
%ADD13R,7.175000X5.600000*%
%ADD14C,0.100000*%
G04 APERTURE END LIST*
D10*
%TO.C,U3*%
X37295000Y-98425000D03*
X37295000Y-99375000D03*
X37295000Y-97475000D03*
X35095000Y-97475000D03*
X35095000Y-98425000D03*
X35095000Y-99375000D03*
%TD*%
%TO.C,U1*%
G36*
G01*
X28780000Y-105895000D02*
X28780000Y-106195000D01*
G75*
G02*
X28630000Y-106345000I-150000J0D01*
G01*
X27180000Y-106345000D01*
G75*
G02*
X27030000Y-106195000I0J150000D01*
G01*
X27030000Y-105895000D01*
G75*
G02*
X27180000Y-105745000I150000J0D01*
G01*
X28630000Y-105745000D01*
G75*
G02*
X28780000Y-105895000I0J-150000D01*
G01*
G37*
G36*
G01*
X28780000Y-107165000D02*
X28780000Y-107465000D01*
G75*
G02*
X28630000Y-107615000I-150000J0D01*
G01*
X27180000Y-107615000D01*
G75*
G02*
X27030000Y-107465000I0J150000D01*
G01*
X27030000Y-107165000D01*
G75*
G02*
X27180000Y-107015000I150000J0D01*
G01*
X28630000Y-107015000D01*
G75*
G02*
X28780000Y-107165000I0J-150000D01*
G01*
G37*
G36*
G01*
X28780000Y-108435000D02*
X28780000Y-108735000D01*
G75*
G02*
X28630000Y-108885000I-150000J0D01*
G01*
X27180000Y-108885000D01*
G75*
G02*
X27030000Y-108735000I0J150000D01*
G01*
X27030000Y-108435000D01*
G75*
G02*
X27180000Y-108285000I150000J0D01*
G01*
X28630000Y-108285000D01*
G75*
G02*
X28780000Y-108435000I0J-150000D01*
G01*
G37*
G36*
G01*
X28780000Y-109705000D02*
X28780000Y-110005000D01*
G75*
G02*
X28630000Y-110155000I-150000J0D01*
G01*
X27180000Y-110155000D01*
G75*
G02*
X27030000Y-110005000I0J150000D01*
G01*
X27030000Y-109705000D01*
G75*
G02*
X27180000Y-109555000I150000J0D01*
G01*
X28630000Y-109555000D01*
G75*
G02*
X28780000Y-109705000I0J-150000D01*
G01*
G37*
G36*
G01*
X33930000Y-109705000D02*
X33930000Y-110005000D01*
G75*
G02*
X33780000Y-110155000I-150000J0D01*
G01*
X32330000Y-110155000D01*
G75*
G02*
X32180000Y-110005000I0J150000D01*
G01*
X32180000Y-109705000D01*
G75*
G02*
X32330000Y-109555000I150000J0D01*
G01*
X33780000Y-109555000D01*
G75*
G02*
X33930000Y-109705000I0J-150000D01*
G01*
G37*
G36*
G01*
X33930000Y-108435000D02*
X33930000Y-108735000D01*
G75*
G02*
X33780000Y-108885000I-150000J0D01*
G01*
X32330000Y-108885000D01*
G75*
G02*
X32180000Y-108735000I0J150000D01*
G01*
X32180000Y-108435000D01*
G75*
G02*
X32330000Y-108285000I150000J0D01*
G01*
X33780000Y-108285000D01*
G75*
G02*
X33930000Y-108435000I0J-150000D01*
G01*
G37*
G36*
G01*
X33930000Y-107165000D02*
X33930000Y-107465000D01*
G75*
G02*
X33780000Y-107615000I-150000J0D01*
G01*
X32330000Y-107615000D01*
G75*
G02*
X32180000Y-107465000I0J150000D01*
G01*
X32180000Y-107165000D01*
G75*
G02*
X32330000Y-107015000I150000J0D01*
G01*
X33780000Y-107015000D01*
G75*
G02*
X33930000Y-107165000I0J-150000D01*
G01*
G37*
G36*
G01*
X33930000Y-105895000D02*
X33930000Y-106195000D01*
G75*
G02*
X33780000Y-106345000I-150000J0D01*
G01*
X32330000Y-106345000D01*
G75*
G02*
X32180000Y-106195000I0J150000D01*
G01*
X32180000Y-105895000D01*
G75*
G02*
X32330000Y-105745000I150000J0D01*
G01*
X33780000Y-105745000D01*
G75*
G02*
X33930000Y-105895000I0J-150000D01*
G01*
G37*
%TD*%
D11*
%TO.C,RV10*%
X17900000Y-111855000D03*
D12*
X19050000Y-107855000D03*
D11*
X20200000Y-111855000D03*
%TD*%
%TO.C,R5*%
G36*
G01*
X73395000Y-24140000D02*
X73395000Y-25390000D01*
G75*
G02*
X73145000Y-25640000I-250000J0D01*
G01*
X72345000Y-25640000D01*
G75*
G02*
X72095000Y-25390000I0J250000D01*
G01*
X72095000Y-24140000D01*
G75*
G02*
X72345000Y-23890000I250000J0D01*
G01*
X73145000Y-23890000D01*
G75*
G02*
X73395000Y-24140000I0J-250000D01*
G01*
G37*
G36*
G01*
X76495000Y-24140000D02*
X76495000Y-25390000D01*
G75*
G02*
X76245000Y-25640000I-250000J0D01*
G01*
X75445000Y-25640000D01*
G75*
G02*
X75195000Y-25390000I0J250000D01*
G01*
X75195000Y-24140000D01*
G75*
G02*
X75445000Y-23890000I250000J0D01*
G01*
X76245000Y-23890000D01*
G75*
G02*
X76495000Y-24140000I0J-250000D01*
G01*
G37*
%TD*%
%TO.C,R4*%
G36*
G01*
X35295000Y-75575000D02*
X35295000Y-76825000D01*
G75*
G02*
X35045000Y-77075000I-250000J0D01*
G01*
X34245000Y-77075000D01*
G75*
G02*
X33995000Y-76825000I0J250000D01*
G01*
X33995000Y-75575000D01*
G75*
G02*
X34245000Y-75325000I250000J0D01*
G01*
X35045000Y-75325000D01*
G75*
G02*
X35295000Y-75575000I0J-250000D01*
G01*
G37*
G36*
G01*
X38395000Y-75575000D02*
X38395000Y-76825000D01*
G75*
G02*
X38145000Y-77075000I-250000J0D01*
G01*
X37345000Y-77075000D01*
G75*
G02*
X37095000Y-76825000I0J250000D01*
G01*
X37095000Y-75575000D01*
G75*
G02*
X37345000Y-75325000I250000J0D01*
G01*
X38145000Y-75325000D01*
G75*
G02*
X38395000Y-75575000I0J-250000D01*
G01*
G37*
%TD*%
%TO.C,R3*%
G36*
G01*
X35295000Y-58430000D02*
X35295000Y-59680000D01*
G75*
G02*
X35045000Y-59930000I-250000J0D01*
G01*
X34245000Y-59930000D01*
G75*
G02*
X33995000Y-59680000I0J250000D01*
G01*
X33995000Y-58430000D01*
G75*
G02*
X34245000Y-58180000I250000J0D01*
G01*
X35045000Y-58180000D01*
G75*
G02*
X35295000Y-58430000I0J-250000D01*
G01*
G37*
G36*
G01*
X38395000Y-58430000D02*
X38395000Y-59680000D01*
G75*
G02*
X38145000Y-59930000I-250000J0D01*
G01*
X37345000Y-59930000D01*
G75*
G02*
X37095000Y-59680000I0J250000D01*
G01*
X37095000Y-58430000D01*
G75*
G02*
X37345000Y-58180000I250000J0D01*
G01*
X38145000Y-58180000D01*
G75*
G02*
X38395000Y-58430000I0J-250000D01*
G01*
G37*
%TD*%
%TO.C,R2*%
G36*
G01*
X35295000Y-41285000D02*
X35295000Y-42535000D01*
G75*
G02*
X35045000Y-42785000I-250000J0D01*
G01*
X34245000Y-42785000D01*
G75*
G02*
X33995000Y-42535000I0J250000D01*
G01*
X33995000Y-41285000D01*
G75*
G02*
X34245000Y-41035000I250000J0D01*
G01*
X35045000Y-41035000D01*
G75*
G02*
X35295000Y-41285000I0J-250000D01*
G01*
G37*
G36*
G01*
X38395000Y-41285000D02*
X38395000Y-42535000D01*
G75*
G02*
X38145000Y-42785000I-250000J0D01*
G01*
X37345000Y-42785000D01*
G75*
G02*
X37095000Y-42535000I0J250000D01*
G01*
X37095000Y-41285000D01*
G75*
G02*
X37345000Y-41035000I250000J0D01*
G01*
X38145000Y-41035000D01*
G75*
G02*
X38395000Y-41285000I0J-250000D01*
G01*
G37*
%TD*%
%TO.C,R1*%
G36*
G01*
X35295000Y-24140000D02*
X35295000Y-25390000D01*
G75*
G02*
X35045000Y-25640000I-250000J0D01*
G01*
X34245000Y-25640000D01*
G75*
G02*
X33995000Y-25390000I0J250000D01*
G01*
X33995000Y-24140000D01*
G75*
G02*
X34245000Y-23890000I250000J0D01*
G01*
X35045000Y-23890000D01*
G75*
G02*
X35295000Y-24140000I0J-250000D01*
G01*
G37*
G36*
G01*
X38395000Y-24140000D02*
X38395000Y-25390000D01*
G75*
G02*
X38145000Y-25640000I-250000J0D01*
G01*
X37345000Y-25640000D01*
G75*
G02*
X37095000Y-25390000I0J250000D01*
G01*
X37095000Y-24140000D01*
G75*
G02*
X37345000Y-23890000I250000J0D01*
G01*
X38145000Y-23890000D01*
G75*
G02*
X38395000Y-24140000I0J-250000D01*
G01*
G37*
%TD*%
%TO.C,L1*%
G36*
G01*
X59470000Y-95315000D02*
X59470000Y-93915000D01*
G75*
G02*
X59720000Y-93665000I250000J0D01*
G01*
X60445000Y-93665000D01*
G75*
G02*
X60695000Y-93915000I0J-250000D01*
G01*
X60695000Y-95315000D01*
G75*
G02*
X60445000Y-95565000I-250000J0D01*
G01*
X59720000Y-95565000D01*
G75*
G02*
X59470000Y-95315000I0J250000D01*
G01*
G37*
G36*
G01*
X56145000Y-95315000D02*
X56145000Y-93915000D01*
G75*
G02*
X56395000Y-93665000I250000J0D01*
G01*
X57120000Y-93665000D01*
G75*
G02*
X57370000Y-93915000I0J-250000D01*
G01*
X57370000Y-95315000D01*
G75*
G02*
X57120000Y-95565000I-250000J0D01*
G01*
X56395000Y-95565000D01*
G75*
G02*
X56145000Y-95315000I0J250000D01*
G01*
G37*
%TD*%
%TO.C,C7*%
G36*
G01*
X37730000Y-111140001D02*
X37730000Y-109839999D01*
G75*
G02*
X37979999Y-109590000I249999J0D01*
G01*
X38805001Y-109590000D01*
G75*
G02*
X39055000Y-109839999I0J-249999D01*
G01*
X39055000Y-111140001D01*
G75*
G02*
X38805001Y-111390000I-249999J0D01*
G01*
X37979999Y-111390000D01*
G75*
G02*
X37730000Y-111140001I0J249999D01*
G01*
G37*
G36*
G01*
X34605000Y-111140001D02*
X34605000Y-109839999D01*
G75*
G02*
X34854999Y-109590000I249999J0D01*
G01*
X35680001Y-109590000D01*
G75*
G02*
X35930000Y-109839999I0J-249999D01*
G01*
X35930000Y-111140001D01*
G75*
G02*
X35680001Y-111390000I-249999J0D01*
G01*
X34854999Y-111390000D01*
G75*
G02*
X34605000Y-111140001I0J249999D01*
G01*
G37*
%TD*%
%TO.C,C5*%
G36*
G01*
X32369999Y-99960000D02*
X33670001Y-99960000D01*
G75*
G02*
X33920000Y-100209999I0J-249999D01*
G01*
X33920000Y-101035001D01*
G75*
G02*
X33670001Y-101285000I-249999J0D01*
G01*
X32369999Y-101285000D01*
G75*
G02*
X32120000Y-101035001I0J249999D01*
G01*
X32120000Y-100209999D01*
G75*
G02*
X32369999Y-99960000I249999J0D01*
G01*
G37*
G36*
G01*
X32369999Y-96835000D02*
X33670001Y-96835000D01*
G75*
G02*
X33920000Y-97084999I0J-249999D01*
G01*
X33920000Y-97910001D01*
G75*
G02*
X33670001Y-98160000I-249999J0D01*
G01*
X32369999Y-98160000D01*
G75*
G02*
X32120000Y-97910001I0J249999D01*
G01*
X32120000Y-97084999D01*
G75*
G02*
X32369999Y-96835000I249999J0D01*
G01*
G37*
%TD*%
%TO.C,C4*%
G36*
G01*
X43164999Y-82815000D02*
X44465001Y-82815000D01*
G75*
G02*
X44715000Y-83064999I0J-249999D01*
G01*
X44715000Y-83890001D01*
G75*
G02*
X44465001Y-84140000I-249999J0D01*
G01*
X43164999Y-84140000D01*
G75*
G02*
X42915000Y-83890001I0J249999D01*
G01*
X42915000Y-83064999D01*
G75*
G02*
X43164999Y-82815000I249999J0D01*
G01*
G37*
G36*
G01*
X43164999Y-79690000D02*
X44465001Y-79690000D01*
G75*
G02*
X44715000Y-79939999I0J-249999D01*
G01*
X44715000Y-80765001D01*
G75*
G02*
X44465001Y-81015000I-249999J0D01*
G01*
X43164999Y-81015000D01*
G75*
G02*
X42915000Y-80765001I0J249999D01*
G01*
X42915000Y-79939999D01*
G75*
G02*
X43164999Y-79690000I249999J0D01*
G01*
G37*
%TD*%
%TO.C,C3*%
G36*
G01*
X24749999Y-108850000D02*
X26050001Y-108850000D01*
G75*
G02*
X26300000Y-109099999I0J-249999D01*
G01*
X26300000Y-109925001D01*
G75*
G02*
X26050001Y-110175000I-249999J0D01*
G01*
X24749999Y-110175000D01*
G75*
G02*
X24500000Y-109925001I0J249999D01*
G01*
X24500000Y-109099999D01*
G75*
G02*
X24749999Y-108850000I249999J0D01*
G01*
G37*
G36*
G01*
X24749999Y-105725000D02*
X26050001Y-105725000D01*
G75*
G02*
X26300000Y-105974999I0J-249999D01*
G01*
X26300000Y-106800001D01*
G75*
G02*
X26050001Y-107050000I-249999J0D01*
G01*
X24749999Y-107050000D01*
G75*
G02*
X24500000Y-106800001I0J249999D01*
G01*
X24500000Y-105974999D01*
G75*
G02*
X24749999Y-105725000I249999J0D01*
G01*
G37*
%TD*%
%TO.C,C2*%
G36*
G01*
X59955000Y-100980001D02*
X59955000Y-99679999D01*
G75*
G02*
X60204999Y-99430000I249999J0D01*
G01*
X61030001Y-99430000D01*
G75*
G02*
X61280000Y-99679999I0J-249999D01*
G01*
X61280000Y-100980001D01*
G75*
G02*
X61030001Y-101230000I-249999J0D01*
G01*
X60204999Y-101230000D01*
G75*
G02*
X59955000Y-100980001I0J249999D01*
G01*
G37*
G36*
G01*
X56830000Y-100980001D02*
X56830000Y-99679999D01*
G75*
G02*
X57079999Y-99430000I249999J0D01*
G01*
X57905001Y-99430000D01*
G75*
G02*
X58155000Y-99679999I0J-249999D01*
G01*
X58155000Y-100980001D01*
G75*
G02*
X57905001Y-101230000I-249999J0D01*
G01*
X57079999Y-101230000D01*
G75*
G02*
X56830000Y-100980001I0J249999D01*
G01*
G37*
%TD*%
%TO.C,C1*%
G36*
G01*
X47995000Y-99679999D02*
X47995000Y-100980001D01*
G75*
G02*
X47745001Y-101230000I-249999J0D01*
G01*
X46919999Y-101230000D01*
G75*
G02*
X46670000Y-100980001I0J249999D01*
G01*
X46670000Y-99679999D01*
G75*
G02*
X46919999Y-99430000I249999J0D01*
G01*
X47745001Y-99430000D01*
G75*
G02*
X47995000Y-99679999I0J-249999D01*
G01*
G37*
G36*
G01*
X51120000Y-99679999D02*
X51120000Y-100980001D01*
G75*
G02*
X50870001Y-101230000I-249999J0D01*
G01*
X50044999Y-101230000D01*
G75*
G02*
X49795000Y-100980001I0J249999D01*
G01*
X49795000Y-99679999D01*
G75*
G02*
X50044999Y-99430000I249999J0D01*
G01*
X50870001Y-99430000D01*
G75*
G02*
X51120000Y-99679999I0J-249999D01*
G01*
G37*
%TD*%
%TO.C,R6*%
G36*
G01*
X73395000Y-41285000D02*
X73395000Y-42535000D01*
G75*
G02*
X73145000Y-42785000I-250000J0D01*
G01*
X72345000Y-42785000D01*
G75*
G02*
X72095000Y-42535000I0J250000D01*
G01*
X72095000Y-41285000D01*
G75*
G02*
X72345000Y-41035000I250000J0D01*
G01*
X73145000Y-41035000D01*
G75*
G02*
X73395000Y-41285000I0J-250000D01*
G01*
G37*
G36*
G01*
X76495000Y-41285000D02*
X76495000Y-42535000D01*
G75*
G02*
X76245000Y-42785000I-250000J0D01*
G01*
X75445000Y-42785000D01*
G75*
G02*
X75195000Y-42535000I0J250000D01*
G01*
X75195000Y-41285000D01*
G75*
G02*
X75445000Y-41035000I250000J0D01*
G01*
X76245000Y-41035000D01*
G75*
G02*
X76495000Y-41285000I0J-250000D01*
G01*
G37*
%TD*%
%TO.C,R7*%
G36*
G01*
X73395000Y-58430000D02*
X73395000Y-59680000D01*
G75*
G02*
X73145000Y-59930000I-250000J0D01*
G01*
X72345000Y-59930000D01*
G75*
G02*
X72095000Y-59680000I0J250000D01*
G01*
X72095000Y-58430000D01*
G75*
G02*
X72345000Y-58180000I250000J0D01*
G01*
X73145000Y-58180000D01*
G75*
G02*
X73395000Y-58430000I0J-250000D01*
G01*
G37*
G36*
G01*
X76495000Y-58430000D02*
X76495000Y-59680000D01*
G75*
G02*
X76245000Y-59930000I-250000J0D01*
G01*
X75445000Y-59930000D01*
G75*
G02*
X75195000Y-59680000I0J250000D01*
G01*
X75195000Y-58430000D01*
G75*
G02*
X75445000Y-58180000I250000J0D01*
G01*
X76245000Y-58180000D01*
G75*
G02*
X76495000Y-58430000I0J-250000D01*
G01*
G37*
%TD*%
%TO.C,R8*%
G36*
G01*
X73395000Y-75575000D02*
X73395000Y-76825000D01*
G75*
G02*
X73145000Y-77075000I-250000J0D01*
G01*
X72345000Y-77075000D01*
G75*
G02*
X72095000Y-76825000I0J250000D01*
G01*
X72095000Y-75575000D01*
G75*
G02*
X72345000Y-75325000I250000J0D01*
G01*
X73145000Y-75325000D01*
G75*
G02*
X73395000Y-75575000I0J-250000D01*
G01*
G37*
G36*
G01*
X76495000Y-75575000D02*
X76495000Y-76825000D01*
G75*
G02*
X76245000Y-77075000I-250000J0D01*
G01*
X75445000Y-77075000D01*
G75*
G02*
X75195000Y-76825000I0J250000D01*
G01*
X75195000Y-75575000D01*
G75*
G02*
X75445000Y-75325000I250000J0D01*
G01*
X76245000Y-75325000D01*
G75*
G02*
X76495000Y-75575000I0J-250000D01*
G01*
G37*
%TD*%
%TO.C,R9*%
G36*
G01*
X18405000Y-97525000D02*
X17155000Y-97525000D01*
G75*
G02*
X16905000Y-97275000I0J250000D01*
G01*
X16905000Y-96475000D01*
G75*
G02*
X17155000Y-96225000I250000J0D01*
G01*
X18405000Y-96225000D01*
G75*
G02*
X18655000Y-96475000I0J-250000D01*
G01*
X18655000Y-97275000D01*
G75*
G02*
X18405000Y-97525000I-250000J0D01*
G01*
G37*
G36*
G01*
X18405000Y-100625000D02*
X17155000Y-100625000D01*
G75*
G02*
X16905000Y-100375000I0J250000D01*
G01*
X16905000Y-99575000D01*
G75*
G02*
X17155000Y-99325000I250000J0D01*
G01*
X18405000Y-99325000D01*
G75*
G02*
X18655000Y-99575000I0J-250000D01*
G01*
X18655000Y-100375000D01*
G75*
G02*
X18405000Y-100625000I-250000J0D01*
G01*
G37*
%TD*%
%TO.C,R10*%
G36*
G01*
X26045000Y-96785000D02*
X27295000Y-96785000D01*
G75*
G02*
X27545000Y-97035000I0J-250000D01*
G01*
X27545000Y-97835000D01*
G75*
G02*
X27295000Y-98085000I-250000J0D01*
G01*
X26045000Y-98085000D01*
G75*
G02*
X25795000Y-97835000I0J250000D01*
G01*
X25795000Y-97035000D01*
G75*
G02*
X26045000Y-96785000I250000J0D01*
G01*
G37*
G36*
G01*
X26045000Y-93685000D02*
X27295000Y-93685000D01*
G75*
G02*
X27545000Y-93935000I0J-250000D01*
G01*
X27545000Y-94735000D01*
G75*
G02*
X27295000Y-94985000I-250000J0D01*
G01*
X26045000Y-94985000D01*
G75*
G02*
X25795000Y-94735000I0J250000D01*
G01*
X25795000Y-93935000D01*
G75*
G02*
X26045000Y-93685000I250000J0D01*
G01*
G37*
%TD*%
%TO.C,R11*%
G36*
G01*
X19950000Y-114925000D02*
X19950000Y-113675000D01*
G75*
G02*
X20200000Y-113425000I250000J0D01*
G01*
X21000000Y-113425000D01*
G75*
G02*
X21250000Y-113675000I0J-250000D01*
G01*
X21250000Y-114925000D01*
G75*
G02*
X21000000Y-115175000I-250000J0D01*
G01*
X20200000Y-115175000D01*
G75*
G02*
X19950000Y-114925000I0J250000D01*
G01*
G37*
G36*
G01*
X16850000Y-114925000D02*
X16850000Y-113675000D01*
G75*
G02*
X17100000Y-113425000I250000J0D01*
G01*
X17900000Y-113425000D01*
G75*
G02*
X18150000Y-113675000I0J-250000D01*
G01*
X18150000Y-114925000D01*
G75*
G02*
X17900000Y-115175000I-250000J0D01*
G01*
X17100000Y-115175000D01*
G75*
G02*
X16850000Y-114925000I0J250000D01*
G01*
G37*
%TD*%
%TO.C,R12*%
G36*
G01*
X74940000Y-87260000D02*
X76190000Y-87260000D01*
G75*
G02*
X76440000Y-87510000I0J-250000D01*
G01*
X76440000Y-88310000D01*
G75*
G02*
X76190000Y-88560000I-250000J0D01*
G01*
X74940000Y-88560000D01*
G75*
G02*
X74690000Y-88310000I0J250000D01*
G01*
X74690000Y-87510000D01*
G75*
G02*
X74940000Y-87260000I250000J0D01*
G01*
G37*
G36*
G01*
X74940000Y-84160000D02*
X76190000Y-84160000D01*
G75*
G02*
X76440000Y-84410000I0J-250000D01*
G01*
X76440000Y-85210000D01*
G75*
G02*
X76190000Y-85460000I-250000J0D01*
G01*
X74940000Y-85460000D01*
G75*
G02*
X74690000Y-85210000I0J250000D01*
G01*
X74690000Y-84410000D01*
G75*
G02*
X74940000Y-84160000I250000J0D01*
G01*
G37*
%TD*%
D13*
%TO.C,Y1*%
X61062500Y-104775000D03*
X46887500Y-104775000D03*
%TD*%
%TO.C,C8*%
G36*
G01*
X35930000Y-102854999D02*
X35930000Y-104155001D01*
G75*
G02*
X35680001Y-104405000I-249999J0D01*
G01*
X34854999Y-104405000D01*
G75*
G02*
X34605000Y-104155001I0J249999D01*
G01*
X34605000Y-102854999D01*
G75*
G02*
X34854999Y-102605000I249999J0D01*
G01*
X35680001Y-102605000D01*
G75*
G02*
X35930000Y-102854999I0J-249999D01*
G01*
G37*
G36*
G01*
X39055000Y-102854999D02*
X39055000Y-104155001D01*
G75*
G02*
X38805001Y-104405000I-249999J0D01*
G01*
X37979999Y-104405000D01*
G75*
G02*
X37730000Y-104155001I0J249999D01*
G01*
X37730000Y-102854999D01*
G75*
G02*
X37979999Y-102605000I249999J0D01*
G01*
X38805001Y-102605000D01*
G75*
G02*
X39055000Y-102854999I0J-249999D01*
G01*
G37*
%TD*%
D14*
%TO.C,U2*%
G36*
X56688060Y-88422702D02*
G01*
X56299152Y-88033794D01*
X57359812Y-86973134D01*
X57748720Y-87362042D01*
X56688060Y-88422702D01*
G37*
G36*
X56122374Y-87857017D02*
G01*
X55733466Y-87468109D01*
X56794126Y-86407449D01*
X57183034Y-86796357D01*
X56122374Y-87857017D01*
G37*
G36*
X55556689Y-87291332D02*
G01*
X55167781Y-86902424D01*
X56228441Y-85841764D01*
X56617349Y-86230672D01*
X55556689Y-87291332D01*
G37*
G36*
X54991004Y-86725646D02*
G01*
X54602096Y-86336738D01*
X55662756Y-85276078D01*
X56051664Y-85664986D01*
X54991004Y-86725646D01*
G37*
G36*
X54425318Y-86159961D02*
G01*
X54036410Y-85771053D01*
X55097070Y-84710393D01*
X55485978Y-85099301D01*
X54425318Y-86159961D01*
G37*
G36*
X53859633Y-85594275D02*
G01*
X53470725Y-85205367D01*
X54531385Y-84144707D01*
X54920293Y-84533615D01*
X53859633Y-85594275D01*
G37*
G36*
X53293947Y-85028590D02*
G01*
X52905039Y-84639682D01*
X53965699Y-83579022D01*
X54354607Y-83967930D01*
X53293947Y-85028590D01*
G37*
G36*
X52728262Y-84462904D02*
G01*
X52339354Y-84073996D01*
X53400014Y-83013336D01*
X53788922Y-83402244D01*
X52728262Y-84462904D01*
G37*
G36*
X52162576Y-83897219D02*
G01*
X51773668Y-83508311D01*
X52834328Y-82447651D01*
X53223236Y-82836559D01*
X52162576Y-83897219D01*
G37*
G36*
X51596891Y-83331534D02*
G01*
X51207983Y-82942626D01*
X52268643Y-81881966D01*
X52657551Y-82270874D01*
X51596891Y-83331534D01*
G37*
G36*
X51031206Y-82765848D02*
G01*
X50642298Y-82376940D01*
X51702958Y-81316280D01*
X52091866Y-81705188D01*
X51031206Y-82765848D01*
G37*
G36*
X49687702Y-82376940D02*
G01*
X49298794Y-82765848D01*
X48238134Y-81705188D01*
X48627042Y-81316280D01*
X49687702Y-82376940D01*
G37*
G36*
X49122017Y-82942626D02*
G01*
X48733109Y-83331534D01*
X47672449Y-82270874D01*
X48061357Y-81881966D01*
X49122017Y-82942626D01*
G37*
G36*
X48556332Y-83508311D02*
G01*
X48167424Y-83897219D01*
X47106764Y-82836559D01*
X47495672Y-82447651D01*
X48556332Y-83508311D01*
G37*
G36*
X47990646Y-84073996D02*
G01*
X47601738Y-84462904D01*
X46541078Y-83402244D01*
X46929986Y-83013336D01*
X47990646Y-84073996D01*
G37*
G36*
X47424961Y-84639682D02*
G01*
X47036053Y-85028590D01*
X45975393Y-83967930D01*
X46364301Y-83579022D01*
X47424961Y-84639682D01*
G37*
G36*
X46859275Y-85205367D02*
G01*
X46470367Y-85594275D01*
X45409707Y-84533615D01*
X45798615Y-84144707D01*
X46859275Y-85205367D01*
G37*
G36*
X46293590Y-85771053D02*
G01*
X45904682Y-86159961D01*
X44844022Y-85099301D01*
X45232930Y-84710393D01*
X46293590Y-85771053D01*
G37*
G36*
X45727904Y-86336738D02*
G01*
X45338996Y-86725646D01*
X44278336Y-85664986D01*
X44667244Y-85276078D01*
X45727904Y-86336738D01*
G37*
G36*
X45162219Y-86902424D02*
G01*
X44773311Y-87291332D01*
X43712651Y-86230672D01*
X44101559Y-85841764D01*
X45162219Y-86902424D01*
G37*
G36*
X44596534Y-87468109D02*
G01*
X44207626Y-87857017D01*
X43146966Y-86796357D01*
X43535874Y-86407449D01*
X44596534Y-87468109D01*
G37*
G36*
X44030848Y-88033794D02*
G01*
X43641940Y-88422702D01*
X42581280Y-87362042D01*
X42970188Y-86973134D01*
X44030848Y-88033794D01*
G37*
G36*
X42970188Y-90826866D02*
G01*
X42581280Y-90437958D01*
X43641940Y-89377298D01*
X44030848Y-89766206D01*
X42970188Y-90826866D01*
G37*
G36*
X43535874Y-91392551D02*
G01*
X43146966Y-91003643D01*
X44207626Y-89942983D01*
X44596534Y-90331891D01*
X43535874Y-91392551D01*
G37*
G36*
X44101559Y-91958236D02*
G01*
X43712651Y-91569328D01*
X44773311Y-90508668D01*
X45162219Y-90897576D01*
X44101559Y-91958236D01*
G37*
G36*
X44667244Y-92523922D02*
G01*
X44278336Y-92135014D01*
X45338996Y-91074354D01*
X45727904Y-91463262D01*
X44667244Y-92523922D01*
G37*
G36*
X45232930Y-93089607D02*
G01*
X44844022Y-92700699D01*
X45904682Y-91640039D01*
X46293590Y-92028947D01*
X45232930Y-93089607D01*
G37*
G36*
X45798615Y-93655293D02*
G01*
X45409707Y-93266385D01*
X46470367Y-92205725D01*
X46859275Y-92594633D01*
X45798615Y-93655293D01*
G37*
G36*
X46364301Y-94220978D02*
G01*
X45975393Y-93832070D01*
X47036053Y-92771410D01*
X47424961Y-93160318D01*
X46364301Y-94220978D01*
G37*
G36*
X46929986Y-94786664D02*
G01*
X46541078Y-94397756D01*
X47601738Y-93337096D01*
X47990646Y-93726004D01*
X46929986Y-94786664D01*
G37*
G36*
X47495672Y-95352349D02*
G01*
X47106764Y-94963441D01*
X48167424Y-93902781D01*
X48556332Y-94291689D01*
X47495672Y-95352349D01*
G37*
G36*
X48061357Y-95918034D02*
G01*
X47672449Y-95529126D01*
X48733109Y-94468466D01*
X49122017Y-94857374D01*
X48061357Y-95918034D01*
G37*
G36*
X48627042Y-96483720D02*
G01*
X48238134Y-96094812D01*
X49298794Y-95034152D01*
X49687702Y-95423060D01*
X48627042Y-96483720D01*
G37*
G36*
X52091866Y-96094812D02*
G01*
X51702958Y-96483720D01*
X50642298Y-95423060D01*
X51031206Y-95034152D01*
X52091866Y-96094812D01*
G37*
G36*
X52657551Y-95529126D02*
G01*
X52268643Y-95918034D01*
X51207983Y-94857374D01*
X51596891Y-94468466D01*
X52657551Y-95529126D01*
G37*
G36*
X53223236Y-94963441D02*
G01*
X52834328Y-95352349D01*
X51773668Y-94291689D01*
X52162576Y-93902781D01*
X53223236Y-94963441D01*
G37*
G36*
X53788922Y-94397756D02*
G01*
X53400014Y-94786664D01*
X52339354Y-93726004D01*
X52728262Y-93337096D01*
X53788922Y-94397756D01*
G37*
G36*
X54354607Y-93832070D02*
G01*
X53965699Y-94220978D01*
X52905039Y-93160318D01*
X53293947Y-92771410D01*
X54354607Y-93832070D01*
G37*
G36*
X54920293Y-93266385D02*
G01*
X54531385Y-93655293D01*
X53470725Y-92594633D01*
X53859633Y-92205725D01*
X54920293Y-93266385D01*
G37*
G36*
X55485978Y-92700699D02*
G01*
X55097070Y-93089607D01*
X54036410Y-92028947D01*
X54425318Y-91640039D01*
X55485978Y-92700699D01*
G37*
G36*
X56051664Y-92135014D02*
G01*
X55662756Y-92523922D01*
X54602096Y-91463262D01*
X54991004Y-91074354D01*
X56051664Y-92135014D01*
G37*
G36*
X56617349Y-91569328D02*
G01*
X56228441Y-91958236D01*
X55167781Y-90897576D01*
X55556689Y-90508668D01*
X56617349Y-91569328D01*
G37*
G36*
X57183034Y-91003643D02*
G01*
X56794126Y-91392551D01*
X55733466Y-90331891D01*
X56122374Y-89942983D01*
X57183034Y-91003643D01*
G37*
G36*
X57748720Y-90437958D02*
G01*
X57359812Y-90826866D01*
X56299152Y-89766206D01*
X56688060Y-89377298D01*
X57748720Y-90437958D01*
G37*
%TD*%
M02*
