%TF.GenerationSoftware,KiCad,Pcbnew,5.1.9*%
%TF.CreationDate,2021-03-22T22:06:03+01:00*%
%TF.ProjectId,control_voltage_eurorack_module,636f6e74-726f-46c5-9f76-6f6c74616765,rev?*%
%TF.SameCoordinates,Original*%
%TF.FileFunction,Legend,Top*%
%TF.FilePolarity,Positive*%
%FSLAX46Y46*%
G04 Gerber Fmt 4.6, Leading zero omitted, Abs format (unit mm)*
G04 Created by KiCad (PCBNEW 5.1.9) date 2021-03-22 22:06:03*
%MOMM*%
%LPD*%
G01*
G04 APERTURE LIST*
%ADD10C,0.120000*%
%ADD11C,0.304800*%
%ADD12C,0.127000*%
%ADD13C,0.150000*%
%ADD14C,0.015000*%
G04 APERTURE END LIST*
D10*
%TO.C,RV8*%
X58570000Y-82305000D02*
X58570000Y-78440000D01*
X58570000Y-73930000D02*
X58570000Y-70065000D01*
X68510000Y-82305000D02*
X68510000Y-78440000D01*
X68510000Y-73930000D02*
X68510000Y-70065000D01*
X58570000Y-82305000D02*
X60169000Y-82305000D01*
X61911000Y-82305000D02*
X62670000Y-82305000D01*
X64411000Y-82305000D02*
X65170000Y-82305000D01*
X66910000Y-82305000D02*
X68510000Y-82305000D01*
X58570000Y-70065000D02*
X68510000Y-70065000D01*
%TO.C,RV7*%
X58570000Y-65160000D02*
X58570000Y-61295000D01*
X58570000Y-56785000D02*
X58570000Y-52920000D01*
X68510000Y-65160000D02*
X68510000Y-61295000D01*
X68510000Y-56785000D02*
X68510000Y-52920000D01*
X58570000Y-65160000D02*
X60169000Y-65160000D01*
X61911000Y-65160000D02*
X62670000Y-65160000D01*
X64411000Y-65160000D02*
X65170000Y-65160000D01*
X66910000Y-65160000D02*
X68510000Y-65160000D01*
X58570000Y-52920000D02*
X68510000Y-52920000D01*
%TO.C,RV6*%
X58570000Y-48015000D02*
X58570000Y-44150000D01*
X58570000Y-39640000D02*
X58570000Y-35775000D01*
X68510000Y-48015000D02*
X68510000Y-44150000D01*
X68510000Y-39640000D02*
X68510000Y-35775000D01*
X58570000Y-48015000D02*
X60169000Y-48015000D01*
X61911000Y-48015000D02*
X62670000Y-48015000D01*
X64411000Y-48015000D02*
X65170000Y-48015000D01*
X66910000Y-48015000D02*
X68510000Y-48015000D01*
X58570000Y-35775000D02*
X68510000Y-35775000D01*
%TO.C,RV5*%
X58570000Y-30870000D02*
X58570000Y-27005000D01*
X58570000Y-22495000D02*
X58570000Y-18630000D01*
X68510000Y-30870000D02*
X68510000Y-27005000D01*
X68510000Y-22495000D02*
X68510000Y-18630000D01*
X58570000Y-30870000D02*
X60169000Y-30870000D01*
X61911000Y-30870000D02*
X62670000Y-30870000D01*
X64411000Y-30870000D02*
X65170000Y-30870000D01*
X66910000Y-30870000D02*
X68510000Y-30870000D01*
X58570000Y-18630000D02*
X68510000Y-18630000D01*
%TO.C,RV4*%
X20470000Y-82305000D02*
X20470000Y-78440000D01*
X20470000Y-73930000D02*
X20470000Y-70065000D01*
X30410000Y-82305000D02*
X30410000Y-78440000D01*
X30410000Y-73930000D02*
X30410000Y-70065000D01*
X20470000Y-82305000D02*
X22069000Y-82305000D01*
X23811000Y-82305000D02*
X24570000Y-82305000D01*
X26311000Y-82305000D02*
X27070000Y-82305000D01*
X28810000Y-82305000D02*
X30410000Y-82305000D01*
X20470000Y-70065000D02*
X30410000Y-70065000D01*
%TO.C,RV3*%
X20470000Y-65160000D02*
X20470000Y-61295000D01*
X20470000Y-56785000D02*
X20470000Y-52920000D01*
X30410000Y-65160000D02*
X30410000Y-61295000D01*
X30410000Y-56785000D02*
X30410000Y-52920000D01*
X20470000Y-65160000D02*
X22069000Y-65160000D01*
X23811000Y-65160000D02*
X24570000Y-65160000D01*
X26311000Y-65160000D02*
X27070000Y-65160000D01*
X28810000Y-65160000D02*
X30410000Y-65160000D01*
X20470000Y-52920000D02*
X30410000Y-52920000D01*
%TO.C,RV2*%
X20470000Y-48015000D02*
X20470000Y-44150000D01*
X20470000Y-39640000D02*
X20470000Y-35775000D01*
X30410000Y-48015000D02*
X30410000Y-44150000D01*
X30410000Y-39640000D02*
X30410000Y-35775000D01*
X20470000Y-48015000D02*
X22069000Y-48015000D01*
X23811000Y-48015000D02*
X24570000Y-48015000D01*
X26311000Y-48015000D02*
X27070000Y-48015000D01*
X28810000Y-48015000D02*
X30410000Y-48015000D01*
X20470000Y-35775000D02*
X30410000Y-35775000D01*
%TO.C,RV1*%
X20470000Y-30870000D02*
X20470000Y-27005000D01*
X20470000Y-22495000D02*
X20470000Y-18630000D01*
X30410000Y-30870000D02*
X30410000Y-27005000D01*
X30410000Y-22495000D02*
X30410000Y-18630000D01*
X20470000Y-30870000D02*
X22069000Y-30870000D01*
X23811000Y-30870000D02*
X24570000Y-30870000D01*
X26311000Y-30870000D02*
X27070000Y-30870000D01*
X28810000Y-30870000D02*
X30410000Y-30870000D01*
X20470000Y-18630000D02*
X30410000Y-18630000D01*
%TO.C,J4*%
X20895000Y-95250000D02*
X23555000Y-95250000D01*
X20895000Y-95250000D02*
X20895000Y-102930000D01*
X20895000Y-102930000D02*
X23555000Y-102930000D01*
X23555000Y-95250000D02*
X23555000Y-102930000D01*
X23555000Y-92650000D02*
X23555000Y-93980000D01*
X22225000Y-92650000D02*
X23555000Y-92650000D01*
%TO.C,D1*%
X40233870Y-23685163D02*
G75*
G02*
X42315961Y-23685000I1041130J-1079837D01*
G01*
X40233870Y-25844837D02*
G75*
G03*
X42315961Y-25845000I1041130J1079837D01*
G01*
X39602665Y-23686392D02*
G75*
G02*
X42835000Y-23529484I1672335J-1078608D01*
G01*
X39602665Y-25843608D02*
G75*
G03*
X42835000Y-26000516I1672335J1078608D01*
G01*
X42835000Y-26001000D02*
X42835000Y-25845000D01*
X42835000Y-23685000D02*
X42835000Y-23529000D01*
%TO.C,D2*%
X40233870Y-40830163D02*
G75*
G02*
X42315961Y-40830000I1041130J-1079837D01*
G01*
X40233870Y-42989837D02*
G75*
G03*
X42315961Y-42990000I1041130J1079837D01*
G01*
X39602665Y-40831392D02*
G75*
G02*
X42835000Y-40674484I1672335J-1078608D01*
G01*
X39602665Y-42988608D02*
G75*
G03*
X42835000Y-43145516I1672335J1078608D01*
G01*
X42835000Y-43146000D02*
X42835000Y-42990000D01*
X42835000Y-40830000D02*
X42835000Y-40674000D01*
%TO.C,D3*%
X40233870Y-57975163D02*
G75*
G02*
X42315961Y-57975000I1041130J-1079837D01*
G01*
X40233870Y-60134837D02*
G75*
G03*
X42315961Y-60135000I1041130J1079837D01*
G01*
X39602665Y-57976392D02*
G75*
G02*
X42835000Y-57819484I1672335J-1078608D01*
G01*
X39602665Y-60133608D02*
G75*
G03*
X42835000Y-60290516I1672335J1078608D01*
G01*
X42835000Y-60291000D02*
X42835000Y-60135000D01*
X42835000Y-57975000D02*
X42835000Y-57819000D01*
%TO.C,D4*%
X40233870Y-75120163D02*
G75*
G02*
X42315961Y-75120000I1041130J-1079837D01*
G01*
X40233870Y-77279837D02*
G75*
G03*
X42315961Y-77280000I1041130J1079837D01*
G01*
X39602665Y-75121392D02*
G75*
G02*
X42835000Y-74964484I1672335J-1078608D01*
G01*
X39602665Y-77278608D02*
G75*
G03*
X42835000Y-77435516I1672335J1078608D01*
G01*
X42835000Y-77436000D02*
X42835000Y-77280000D01*
X42835000Y-75120000D02*
X42835000Y-74964000D01*
%TO.C,D5*%
X78333870Y-23685163D02*
G75*
G02*
X80415961Y-23685000I1041130J-1079837D01*
G01*
X78333870Y-25844837D02*
G75*
G03*
X80415961Y-25845000I1041130J1079837D01*
G01*
X77702665Y-23686392D02*
G75*
G02*
X80935000Y-23529484I1672335J-1078608D01*
G01*
X77702665Y-25843608D02*
G75*
G03*
X80935000Y-26000516I1672335J1078608D01*
G01*
X80935000Y-26001000D02*
X80935000Y-25845000D01*
X80935000Y-23685000D02*
X80935000Y-23529000D01*
%TO.C,D6*%
X78333870Y-40830163D02*
G75*
G02*
X80415961Y-40830000I1041130J-1079837D01*
G01*
X78333870Y-42989837D02*
G75*
G03*
X80415961Y-42990000I1041130J1079837D01*
G01*
X77702665Y-40831392D02*
G75*
G02*
X80935000Y-40674484I1672335J-1078608D01*
G01*
X77702665Y-42988608D02*
G75*
G03*
X80935000Y-43145516I1672335J1078608D01*
G01*
X80935000Y-43146000D02*
X80935000Y-42990000D01*
X80935000Y-40830000D02*
X80935000Y-40674000D01*
%TO.C,D7*%
X78333870Y-57975163D02*
G75*
G02*
X80415961Y-57975000I1041130J-1079837D01*
G01*
X78333870Y-60134837D02*
G75*
G03*
X80415961Y-60135000I1041130J1079837D01*
G01*
X77702665Y-57976392D02*
G75*
G02*
X80935000Y-57819484I1672335J-1078608D01*
G01*
X77702665Y-60133608D02*
G75*
G03*
X80935000Y-60290516I1672335J1078608D01*
G01*
X80935000Y-60291000D02*
X80935000Y-60135000D01*
X80935000Y-57975000D02*
X80935000Y-57819000D01*
%TO.C,D8*%
X78333870Y-75120163D02*
G75*
G02*
X80415961Y-75120000I1041130J-1079837D01*
G01*
X78333870Y-77279837D02*
G75*
G03*
X80415961Y-77280000I1041130J1079837D01*
G01*
X77702665Y-75121392D02*
G75*
G02*
X80935000Y-74964484I1672335J-1078608D01*
G01*
X77702665Y-77278608D02*
G75*
G03*
X80935000Y-77435516I1672335J1078608D01*
G01*
X80935000Y-77436000D02*
X80935000Y-77280000D01*
X80935000Y-75120000D02*
X80935000Y-74964000D01*
%TO.C,J5*%
X75501000Y-114935000D02*
G75*
G03*
X75501000Y-114935000I-4000000J0D01*
G01*
%TO.C,J7*%
X32829000Y-114935000D02*
G75*
G03*
X32829000Y-114935000I-4000000J0D01*
G01*
%TO.C,J6*%
X61277000Y-114935000D02*
G75*
G03*
X61277000Y-114935000I-4000000J0D01*
G01*
%TO.C,J3*%
X47053000Y-114935000D02*
G75*
G03*
X47053000Y-114935000I-4000000J0D01*
G01*
D11*
%TO.C,SW1*%
X70725000Y-89290000D02*
G75*
G03*
X70725000Y-89290000I-200000J0D01*
G01*
D12*
X78525000Y-104790000D02*
X76525000Y-104790000D01*
X78525000Y-99290000D02*
X78525000Y-104790000D01*
X67525000Y-104790000D02*
X69525000Y-104790000D01*
X67525000Y-99290000D02*
X67525000Y-104790000D01*
X78525000Y-90790000D02*
X78525000Y-95790000D01*
X77025000Y-90790000D02*
X78525000Y-90790000D01*
X67525000Y-90790000D02*
X67525000Y-96290000D01*
X69025000Y-90790000D02*
X67525000Y-90790000D01*
%TO.C,RV8*%
D13*
X56342380Y-77730238D02*
X55866190Y-78063571D01*
X56342380Y-78301666D02*
X55342380Y-78301666D01*
X55342380Y-77920714D01*
X55390000Y-77825476D01*
X55437619Y-77777857D01*
X55532857Y-77730238D01*
X55675714Y-77730238D01*
X55770952Y-77777857D01*
X55818571Y-77825476D01*
X55866190Y-77920714D01*
X55866190Y-78301666D01*
X55342380Y-77444523D02*
X56342380Y-77111190D01*
X55342380Y-76777857D01*
X55770952Y-76301666D02*
X55723333Y-76396904D01*
X55675714Y-76444523D01*
X55580476Y-76492142D01*
X55532857Y-76492142D01*
X55437619Y-76444523D01*
X55390000Y-76396904D01*
X55342380Y-76301666D01*
X55342380Y-76111190D01*
X55390000Y-76015952D01*
X55437619Y-75968333D01*
X55532857Y-75920714D01*
X55580476Y-75920714D01*
X55675714Y-75968333D01*
X55723333Y-76015952D01*
X55770952Y-76111190D01*
X55770952Y-76301666D01*
X55818571Y-76396904D01*
X55866190Y-76444523D01*
X55961428Y-76492142D01*
X56151904Y-76492142D01*
X56247142Y-76444523D01*
X56294761Y-76396904D01*
X56342380Y-76301666D01*
X56342380Y-76111190D01*
X56294761Y-76015952D01*
X56247142Y-75968333D01*
X56151904Y-75920714D01*
X55961428Y-75920714D01*
X55866190Y-75968333D01*
X55818571Y-76015952D01*
X55770952Y-76111190D01*
%TO.C,RV7*%
X56342380Y-60585238D02*
X55866190Y-60918571D01*
X56342380Y-61156666D02*
X55342380Y-61156666D01*
X55342380Y-60775714D01*
X55390000Y-60680476D01*
X55437619Y-60632857D01*
X55532857Y-60585238D01*
X55675714Y-60585238D01*
X55770952Y-60632857D01*
X55818571Y-60680476D01*
X55866190Y-60775714D01*
X55866190Y-61156666D01*
X55342380Y-60299523D02*
X56342380Y-59966190D01*
X55342380Y-59632857D01*
X55342380Y-59394761D02*
X55342380Y-58728095D01*
X56342380Y-59156666D01*
%TO.C,RV6*%
X56342380Y-43440238D02*
X55866190Y-43773571D01*
X56342380Y-44011666D02*
X55342380Y-44011666D01*
X55342380Y-43630714D01*
X55390000Y-43535476D01*
X55437619Y-43487857D01*
X55532857Y-43440238D01*
X55675714Y-43440238D01*
X55770952Y-43487857D01*
X55818571Y-43535476D01*
X55866190Y-43630714D01*
X55866190Y-44011666D01*
X55342380Y-43154523D02*
X56342380Y-42821190D01*
X55342380Y-42487857D01*
X55342380Y-41725952D02*
X55342380Y-41916428D01*
X55390000Y-42011666D01*
X55437619Y-42059285D01*
X55580476Y-42154523D01*
X55770952Y-42202142D01*
X56151904Y-42202142D01*
X56247142Y-42154523D01*
X56294761Y-42106904D01*
X56342380Y-42011666D01*
X56342380Y-41821190D01*
X56294761Y-41725952D01*
X56247142Y-41678333D01*
X56151904Y-41630714D01*
X55913809Y-41630714D01*
X55818571Y-41678333D01*
X55770952Y-41725952D01*
X55723333Y-41821190D01*
X55723333Y-42011666D01*
X55770952Y-42106904D01*
X55818571Y-42154523D01*
X55913809Y-42202142D01*
%TO.C,RV5*%
X56342380Y-26295238D02*
X55866190Y-26628571D01*
X56342380Y-26866666D02*
X55342380Y-26866666D01*
X55342380Y-26485714D01*
X55390000Y-26390476D01*
X55437619Y-26342857D01*
X55532857Y-26295238D01*
X55675714Y-26295238D01*
X55770952Y-26342857D01*
X55818571Y-26390476D01*
X55866190Y-26485714D01*
X55866190Y-26866666D01*
X55342380Y-26009523D02*
X56342380Y-25676190D01*
X55342380Y-25342857D01*
X55342380Y-24533333D02*
X55342380Y-25009523D01*
X55818571Y-25057142D01*
X55770952Y-25009523D01*
X55723333Y-24914285D01*
X55723333Y-24676190D01*
X55770952Y-24580952D01*
X55818571Y-24533333D01*
X55913809Y-24485714D01*
X56151904Y-24485714D01*
X56247142Y-24533333D01*
X56294761Y-24580952D01*
X56342380Y-24676190D01*
X56342380Y-24914285D01*
X56294761Y-25009523D01*
X56247142Y-25057142D01*
%TO.C,RV4*%
X18242380Y-77730238D02*
X17766190Y-78063571D01*
X18242380Y-78301666D02*
X17242380Y-78301666D01*
X17242380Y-77920714D01*
X17290000Y-77825476D01*
X17337619Y-77777857D01*
X17432857Y-77730238D01*
X17575714Y-77730238D01*
X17670952Y-77777857D01*
X17718571Y-77825476D01*
X17766190Y-77920714D01*
X17766190Y-78301666D01*
X17242380Y-77444523D02*
X18242380Y-77111190D01*
X17242380Y-76777857D01*
X17575714Y-76015952D02*
X18242380Y-76015952D01*
X17194761Y-76254047D02*
X17909047Y-76492142D01*
X17909047Y-75873095D01*
%TO.C,RV3*%
X18242380Y-60585238D02*
X17766190Y-60918571D01*
X18242380Y-61156666D02*
X17242380Y-61156666D01*
X17242380Y-60775714D01*
X17290000Y-60680476D01*
X17337619Y-60632857D01*
X17432857Y-60585238D01*
X17575714Y-60585238D01*
X17670952Y-60632857D01*
X17718571Y-60680476D01*
X17766190Y-60775714D01*
X17766190Y-61156666D01*
X17242380Y-60299523D02*
X18242380Y-59966190D01*
X17242380Y-59632857D01*
X17242380Y-59394761D02*
X17242380Y-58775714D01*
X17623333Y-59109047D01*
X17623333Y-58966190D01*
X17670952Y-58870952D01*
X17718571Y-58823333D01*
X17813809Y-58775714D01*
X18051904Y-58775714D01*
X18147142Y-58823333D01*
X18194761Y-58870952D01*
X18242380Y-58966190D01*
X18242380Y-59251904D01*
X18194761Y-59347142D01*
X18147142Y-59394761D01*
%TO.C,RV2*%
X18242380Y-43440238D02*
X17766190Y-43773571D01*
X18242380Y-44011666D02*
X17242380Y-44011666D01*
X17242380Y-43630714D01*
X17290000Y-43535476D01*
X17337619Y-43487857D01*
X17432857Y-43440238D01*
X17575714Y-43440238D01*
X17670952Y-43487857D01*
X17718571Y-43535476D01*
X17766190Y-43630714D01*
X17766190Y-44011666D01*
X17242380Y-43154523D02*
X18242380Y-42821190D01*
X17242380Y-42487857D01*
X17337619Y-42202142D02*
X17290000Y-42154523D01*
X17242380Y-42059285D01*
X17242380Y-41821190D01*
X17290000Y-41725952D01*
X17337619Y-41678333D01*
X17432857Y-41630714D01*
X17528095Y-41630714D01*
X17670952Y-41678333D01*
X18242380Y-42249761D01*
X18242380Y-41630714D01*
%TO.C,RV1*%
X18242380Y-26295238D02*
X17766190Y-26628571D01*
X18242380Y-26866666D02*
X17242380Y-26866666D01*
X17242380Y-26485714D01*
X17290000Y-26390476D01*
X17337619Y-26342857D01*
X17432857Y-26295238D01*
X17575714Y-26295238D01*
X17670952Y-26342857D01*
X17718571Y-26390476D01*
X17766190Y-26485714D01*
X17766190Y-26866666D01*
X17242380Y-26009523D02*
X18242380Y-25676190D01*
X17242380Y-25342857D01*
X18242380Y-24485714D02*
X18242380Y-25057142D01*
X18242380Y-24771428D02*
X17242380Y-24771428D01*
X17385238Y-24866666D01*
X17480476Y-24961904D01*
X17528095Y-25057142D01*
%TO.C,J4*%
X21891666Y-90662380D02*
X21891666Y-91376666D01*
X21844047Y-91519523D01*
X21748809Y-91614761D01*
X21605952Y-91662380D01*
X21510714Y-91662380D01*
X22796428Y-90995714D02*
X22796428Y-91662380D01*
X22558333Y-90614761D02*
X22320238Y-91329047D01*
X22939285Y-91329047D01*
%TO.C,D1*%
X40536904Y-28177380D02*
X40536904Y-27177380D01*
X40775000Y-27177380D01*
X40917857Y-27225000D01*
X41013095Y-27320238D01*
X41060714Y-27415476D01*
X41108333Y-27605952D01*
X41108333Y-27748809D01*
X41060714Y-27939285D01*
X41013095Y-28034523D01*
X40917857Y-28129761D01*
X40775000Y-28177380D01*
X40536904Y-28177380D01*
X42060714Y-28177380D02*
X41489285Y-28177380D01*
X41775000Y-28177380D02*
X41775000Y-27177380D01*
X41679761Y-27320238D01*
X41584523Y-27415476D01*
X41489285Y-27463095D01*
%TO.C,D2*%
X40536904Y-45322380D02*
X40536904Y-44322380D01*
X40775000Y-44322380D01*
X40917857Y-44370000D01*
X41013095Y-44465238D01*
X41060714Y-44560476D01*
X41108333Y-44750952D01*
X41108333Y-44893809D01*
X41060714Y-45084285D01*
X41013095Y-45179523D01*
X40917857Y-45274761D01*
X40775000Y-45322380D01*
X40536904Y-45322380D01*
X41489285Y-44417619D02*
X41536904Y-44370000D01*
X41632142Y-44322380D01*
X41870238Y-44322380D01*
X41965476Y-44370000D01*
X42013095Y-44417619D01*
X42060714Y-44512857D01*
X42060714Y-44608095D01*
X42013095Y-44750952D01*
X41441666Y-45322380D01*
X42060714Y-45322380D01*
%TO.C,D3*%
X40536904Y-62467380D02*
X40536904Y-61467380D01*
X40775000Y-61467380D01*
X40917857Y-61515000D01*
X41013095Y-61610238D01*
X41060714Y-61705476D01*
X41108333Y-61895952D01*
X41108333Y-62038809D01*
X41060714Y-62229285D01*
X41013095Y-62324523D01*
X40917857Y-62419761D01*
X40775000Y-62467380D01*
X40536904Y-62467380D01*
X41441666Y-61467380D02*
X42060714Y-61467380D01*
X41727380Y-61848333D01*
X41870238Y-61848333D01*
X41965476Y-61895952D01*
X42013095Y-61943571D01*
X42060714Y-62038809D01*
X42060714Y-62276904D01*
X42013095Y-62372142D01*
X41965476Y-62419761D01*
X41870238Y-62467380D01*
X41584523Y-62467380D01*
X41489285Y-62419761D01*
X41441666Y-62372142D01*
%TO.C,D4*%
X40536904Y-79612380D02*
X40536904Y-78612380D01*
X40775000Y-78612380D01*
X40917857Y-78660000D01*
X41013095Y-78755238D01*
X41060714Y-78850476D01*
X41108333Y-79040952D01*
X41108333Y-79183809D01*
X41060714Y-79374285D01*
X41013095Y-79469523D01*
X40917857Y-79564761D01*
X40775000Y-79612380D01*
X40536904Y-79612380D01*
X41965476Y-78945714D02*
X41965476Y-79612380D01*
X41727380Y-78564761D02*
X41489285Y-79279047D01*
X42108333Y-79279047D01*
%TO.C,D5*%
X78636904Y-28177380D02*
X78636904Y-27177380D01*
X78875000Y-27177380D01*
X79017857Y-27225000D01*
X79113095Y-27320238D01*
X79160714Y-27415476D01*
X79208333Y-27605952D01*
X79208333Y-27748809D01*
X79160714Y-27939285D01*
X79113095Y-28034523D01*
X79017857Y-28129761D01*
X78875000Y-28177380D01*
X78636904Y-28177380D01*
X80113095Y-27177380D02*
X79636904Y-27177380D01*
X79589285Y-27653571D01*
X79636904Y-27605952D01*
X79732142Y-27558333D01*
X79970238Y-27558333D01*
X80065476Y-27605952D01*
X80113095Y-27653571D01*
X80160714Y-27748809D01*
X80160714Y-27986904D01*
X80113095Y-28082142D01*
X80065476Y-28129761D01*
X79970238Y-28177380D01*
X79732142Y-28177380D01*
X79636904Y-28129761D01*
X79589285Y-28082142D01*
%TO.C,D6*%
X78636904Y-45322380D02*
X78636904Y-44322380D01*
X78875000Y-44322380D01*
X79017857Y-44370000D01*
X79113095Y-44465238D01*
X79160714Y-44560476D01*
X79208333Y-44750952D01*
X79208333Y-44893809D01*
X79160714Y-45084285D01*
X79113095Y-45179523D01*
X79017857Y-45274761D01*
X78875000Y-45322380D01*
X78636904Y-45322380D01*
X80065476Y-44322380D02*
X79875000Y-44322380D01*
X79779761Y-44370000D01*
X79732142Y-44417619D01*
X79636904Y-44560476D01*
X79589285Y-44750952D01*
X79589285Y-45131904D01*
X79636904Y-45227142D01*
X79684523Y-45274761D01*
X79779761Y-45322380D01*
X79970238Y-45322380D01*
X80065476Y-45274761D01*
X80113095Y-45227142D01*
X80160714Y-45131904D01*
X80160714Y-44893809D01*
X80113095Y-44798571D01*
X80065476Y-44750952D01*
X79970238Y-44703333D01*
X79779761Y-44703333D01*
X79684523Y-44750952D01*
X79636904Y-44798571D01*
X79589285Y-44893809D01*
%TO.C,D7*%
X78636904Y-62467380D02*
X78636904Y-61467380D01*
X78875000Y-61467380D01*
X79017857Y-61515000D01*
X79113095Y-61610238D01*
X79160714Y-61705476D01*
X79208333Y-61895952D01*
X79208333Y-62038809D01*
X79160714Y-62229285D01*
X79113095Y-62324523D01*
X79017857Y-62419761D01*
X78875000Y-62467380D01*
X78636904Y-62467380D01*
X79541666Y-61467380D02*
X80208333Y-61467380D01*
X79779761Y-62467380D01*
%TO.C,D8*%
X78636904Y-79612380D02*
X78636904Y-78612380D01*
X78875000Y-78612380D01*
X79017857Y-78660000D01*
X79113095Y-78755238D01*
X79160714Y-78850476D01*
X79208333Y-79040952D01*
X79208333Y-79183809D01*
X79160714Y-79374285D01*
X79113095Y-79469523D01*
X79017857Y-79564761D01*
X78875000Y-79612380D01*
X78636904Y-79612380D01*
X79779761Y-79040952D02*
X79684523Y-78993333D01*
X79636904Y-78945714D01*
X79589285Y-78850476D01*
X79589285Y-78802857D01*
X79636904Y-78707619D01*
X79684523Y-78660000D01*
X79779761Y-78612380D01*
X79970238Y-78612380D01*
X80065476Y-78660000D01*
X80113095Y-78707619D01*
X80160714Y-78802857D01*
X80160714Y-78850476D01*
X80113095Y-78945714D01*
X80065476Y-78993333D01*
X79970238Y-79040952D01*
X79779761Y-79040952D01*
X79684523Y-79088571D01*
X79636904Y-79136190D01*
X79589285Y-79231428D01*
X79589285Y-79421904D01*
X79636904Y-79517142D01*
X79684523Y-79564761D01*
X79779761Y-79612380D01*
X79970238Y-79612380D01*
X80065476Y-79564761D01*
X80113095Y-79517142D01*
X80160714Y-79421904D01*
X80160714Y-79231428D01*
X80113095Y-79136190D01*
X80065476Y-79088571D01*
X79970238Y-79040952D01*
%TO.C,J5*%
X71167666Y-114887380D02*
X71167666Y-115601666D01*
X71120047Y-115744523D01*
X71024809Y-115839761D01*
X70881952Y-115887380D01*
X70786714Y-115887380D01*
X72120047Y-114887380D02*
X71643857Y-114887380D01*
X71596238Y-115363571D01*
X71643857Y-115315952D01*
X71739095Y-115268333D01*
X71977190Y-115268333D01*
X72072428Y-115315952D01*
X72120047Y-115363571D01*
X72167666Y-115458809D01*
X72167666Y-115696904D01*
X72120047Y-115792142D01*
X72072428Y-115839761D01*
X71977190Y-115887380D01*
X71739095Y-115887380D01*
X71643857Y-115839761D01*
X71596238Y-115792142D01*
%TO.C,J7*%
X28495666Y-114887380D02*
X28495666Y-115601666D01*
X28448047Y-115744523D01*
X28352809Y-115839761D01*
X28209952Y-115887380D01*
X28114714Y-115887380D01*
X28876619Y-114887380D02*
X29543285Y-114887380D01*
X29114714Y-115887380D01*
%TO.C,J6*%
X56943666Y-114887380D02*
X56943666Y-115601666D01*
X56896047Y-115744523D01*
X56800809Y-115839761D01*
X56657952Y-115887380D01*
X56562714Y-115887380D01*
X57848428Y-114887380D02*
X57657952Y-114887380D01*
X57562714Y-114935000D01*
X57515095Y-114982619D01*
X57419857Y-115125476D01*
X57372238Y-115315952D01*
X57372238Y-115696904D01*
X57419857Y-115792142D01*
X57467476Y-115839761D01*
X57562714Y-115887380D01*
X57753190Y-115887380D01*
X57848428Y-115839761D01*
X57896047Y-115792142D01*
X57943666Y-115696904D01*
X57943666Y-115458809D01*
X57896047Y-115363571D01*
X57848428Y-115315952D01*
X57753190Y-115268333D01*
X57562714Y-115268333D01*
X57467476Y-115315952D01*
X57419857Y-115363571D01*
X57372238Y-115458809D01*
%TO.C,J3*%
X42719666Y-114887380D02*
X42719666Y-115601666D01*
X42672047Y-115744523D01*
X42576809Y-115839761D01*
X42433952Y-115887380D01*
X42338714Y-115887380D01*
X43100619Y-114887380D02*
X43719666Y-114887380D01*
X43386333Y-115268333D01*
X43529190Y-115268333D01*
X43624428Y-115315952D01*
X43672047Y-115363571D01*
X43719666Y-115458809D01*
X43719666Y-115696904D01*
X43672047Y-115792142D01*
X43624428Y-115839761D01*
X43529190Y-115887380D01*
X43243476Y-115887380D01*
X43148238Y-115839761D01*
X43100619Y-115792142D01*
%TO.C,SW1*%
D14*
X66540178Y-105203568D02*
X66587831Y-105060610D01*
X66587831Y-104822346D01*
X66540178Y-104727040D01*
X66492526Y-104679387D01*
X66397220Y-104631734D01*
X66301914Y-104631734D01*
X66206609Y-104679387D01*
X66158956Y-104727040D01*
X66111303Y-104822346D01*
X66063650Y-105012957D01*
X66015997Y-105108263D01*
X65968345Y-105155915D01*
X65873039Y-105203568D01*
X65777733Y-105203568D01*
X65682428Y-105155915D01*
X65634775Y-105108263D01*
X65587122Y-105012957D01*
X65587122Y-104774693D01*
X65634775Y-104631734D01*
X65587122Y-104298165D02*
X66587831Y-104059901D01*
X65873039Y-103869290D01*
X66587831Y-103678678D01*
X65587122Y-103440414D01*
X66587831Y-102535011D02*
X66587831Y-103106845D01*
X66587831Y-102820928D02*
X65587122Y-102820928D01*
X65730081Y-102916233D01*
X65825386Y-103011539D01*
X65873039Y-103106845D01*
%TD*%
M02*
